<?xml version="1.0" encoding="utf-8"?>
<!-- Generator: Adobe Illustrator 18.1.1, SVG Export Plug-In . SVG Version: 6.00 Build 0)  -->
<!DOCTYPE svg PUBLIC "-//W3C//DTD SVG 1.1//EN" "http://www.w3.org/Graphics/SVG/1.1/DTD/svg11.dtd">
<svg version="1.1" id="Layer_1" xmlns="http://www.w3.org/2000/svg" xmlns:xlink="http://www.w3.org/1999/xlink" x="0px" y="0px"
	 viewBox="-324.6 300 1600 200" enable-background="new -324.6 300 1600 200" xml:space="preserve">
<g>
	<g>
		<defs>
			<rect id="SVGID_1_" x="-332.6" y="284.6" width="1616.1" height="230.9"/>
		</defs>
		<clipPath id="SVGID_2_">
			<use xlink:href="#SVGID_1_"  overflow="visible"/>
		</clipPath>
		<g clip-path="url(#SVGID_2_)">
			
				<rect x="-862" y="373" transform="matrix(-0.7071 -0.7071 0.7071 -0.7071 -1291.2977 211.886)" fill="#2B5166" width="520.4" height="0.7"/>
			
				<rect x="-859.4" y="370.4" transform="matrix(-0.7071 -0.7071 0.7071 -0.7071 -1285.1665 209.2295)" fill="#2B5166" width="520.4" height="0.7"/>
			
				<rect x="-856.8" y="367.8" transform="matrix(-0.7071 -0.7071 0.7071 -0.7071 -1278.7568 206.6885)" fill="#2B5166" width="520.4" height="0.7"/>
			
				<rect x="-854.2" y="365.2" transform="matrix(-0.7071 -0.7071 0.7071 -0.7071 -1272.626 204.0321)" fill="#2B5166" width="520.4" height="0.7"/>
			
				<rect x="-779.2" y="435.3" transform="matrix(-0.7071 -0.7071 0.7071 -0.7071 -1194.0063 376.7785)" fill="#2B5166" width="520.4" height="0.7"/>
			
				<rect x="-776.6" y="432.8" transform="matrix(-0.7071 -0.7071 0.7071 -0.7071 -1187.7937 374.3192)" fill="#2B5166" width="520.4" height="0.7"/>
			
				<rect x="-774" y="430.1" transform="matrix(-0.7071 -0.7071 0.7071 -0.7071 -1181.4657 371.5812)" fill="#2B5166" width="520.4" height="0.7"/>
			
				<rect x="-771.4" y="427.6" transform="matrix(-0.7071 -0.7071 0.7071 -0.7071 -1175.2531 369.1216)" fill="#2B5166" width="520.4" height="0.7"/>
			
				<rect x="-768.8" y="424.9" transform="matrix(-0.7071 -0.7071 0.7071 -0.7071 -1168.925 366.3836)" fill="#2B5166" width="520.4" height="0.7"/>
			
				<rect x="-766.2" y="422.4" transform="matrix(-0.7071 -0.7071 0.7071 -0.7071 -1162.7124 363.9243)" fill="#2B5166" width="520.4" height="0.7"/>
			
				<rect x="-763.6" y="419.7" transform="matrix(-0.7071 -0.7071 0.7071 -0.7071 -1156.3844 361.186)" fill="#2B5166" width="520.4" height="0.7"/>
			
				<rect x="-761" y="417.2" transform="matrix(-0.7071 -0.7071 0.7071 -0.7071 -1150.1718 358.7267)" fill="#2B5166" width="520.4" height="0.7"/>
			
				<rect x="-758.4" y="414.5" transform="matrix(-0.7071 -0.7071 0.7071 -0.7071 -1143.8439 355.9886)" fill="#2B5166" width="520.4" height="0.7"/>
			
				<rect x="-755.8" y="412" transform="matrix(-0.7071 -0.7071 0.7071 -0.7071 -1137.6312 353.5293)" fill="#2B5166" width="520.4" height="0.7"/>
			
				<rect x="-753.2" y="409.3" transform="matrix(-0.7071 -0.7071 0.7071 -0.7071 -1131.303 350.7911)" fill="#2B5166" width="520.4" height="0.7"/>
			
				<rect x="-750.6" y="406.8" transform="matrix(-0.7071 -0.7071 0.7071 -0.7071 -1125.0906 348.3317)" fill="#2B5166" width="520.4" height="0.7"/>
			
				<rect x="-748" y="404.2" transform="matrix(-0.7071 -0.7071 0.7071 -0.7071 -1118.7625 345.5937)" fill="#2B5166" width="520.4" height="0.7"/>
			
				<rect x="-745.4" y="401.6" transform="matrix(-0.7071 -0.7071 0.7071 -0.7071 -1112.5497 343.1342)" fill="#2B5166" width="520.4" height="0.7"/>
			
				<rect x="-742.8" y="399" transform="matrix(-0.7071 -0.7071 0.7071 -0.7071 -1106.2218 340.3961)" fill="#2B5166" width="520.4" height="0.7"/>
			
				<rect x="-740.2" y="396.4" transform="matrix(-0.7071 -0.7071 0.7071 -0.7071 -1100.0092 337.9368)" fill="#2B5166" width="520.4" height="0.7"/>
			
				<rect x="-737.6" y="393.8" transform="matrix(-0.7071 -0.7071 0.7071 -0.7071 -1093.6813 335.1987)" fill="#2B5166" width="520.4" height="0.7"/>
			
				<rect x="-735" y="391.2" transform="matrix(-0.7071 -0.7071 0.7071 -0.7071 -1087.4686 332.7392)" fill="#2B5166" width="520.4" height="0.7"/>
			
				<rect x="-732.4" y="388.6" transform="matrix(-0.7071 -0.7071 0.7071 -0.7071 -1081.1405 330.0012)" fill="#2B5166" width="520.4" height="0.7"/>
			
				<rect x="-729.8" y="386" transform="matrix(-0.7071 -0.7071 0.7071 -0.7071 -1074.9281 327.5417)" fill="#2B5166" width="520.4" height="0.7"/>
			
				<rect x="-727.2" y="383.4" transform="matrix(-0.7071 -0.7071 0.7071 -0.7071 -1068.6 324.8038)" fill="#2B5166" width="520.4" height="0.7"/>
			
				<rect x="-724.6" y="380.9" transform="matrix(-0.7071 -0.7071 0.7071 -0.7071 -1062.3873 322.3441)" fill="#2B5166" width="520.4" height="0.7"/>
			
				<rect x="-722" y="378.2" transform="matrix(-0.7071 -0.7071 0.7071 -0.7071 -1056.0593 319.6062)" fill="#2B5166" width="520.4" height="0.7"/>
			
				<rect x="-719.4" y="375.7" transform="matrix(-0.7071 -0.7071 0.7071 -0.7071 -1049.8468 317.1468)" fill="#2B5166" width="520.4" height="0.7"/>
			
				<rect x="-716.8" y="373" transform="matrix(-0.7071 -0.7071 0.7071 -0.7071 -1043.5187 314.4085)" fill="#2B5166" width="520.4" height="0.7"/>
			
				<rect x="-714.2" y="370.5" transform="matrix(-0.7071 -0.7071 0.7071 -0.7071 -1037.306 311.9492)" fill="#2B5166" width="520.4" height="0.7"/>
			
				<rect x="-711.6" y="367.8" transform="matrix(-0.7071 -0.7071 0.7071 -0.7071 -1030.9781 309.2112)" fill="#2B5166" width="520.4" height="0.7"/>
			
				<rect x="-709" y="365.3" transform="matrix(-0.7071 -0.7071 0.7071 -0.7071 -1024.7654 306.7516)" fill="#2B5166" width="520.4" height="0.7"/>
			
				<rect x="-634" y="435.4" transform="matrix(-0.7071 -0.7071 0.7071 -0.7071 -946.1459 479.4983)" fill="#2B5166" width="520.4" height="0.7"/>
			
				<rect x="-631.4" y="432.8" transform="matrix(-0.7071 -0.7071 0.7071 -0.7071 -940.0148 476.8419)" fill="#2B5166" width="520.4" height="0.7"/>
			
				<rect x="-628.8" y="430.2" transform="matrix(-0.7071 -0.7071 0.7071 -0.7071 -933.6052 474.3007)" fill="#2B5166" width="520.4" height="0.7"/>
			
				<rect x="-626.2" y="427.6" transform="matrix(-0.7071 -0.7071 0.7071 -0.7071 -927.4742 471.6443)" fill="#2B5166" width="520.4" height="0.7"/>
			
				<rect x="-623.6" y="425" transform="matrix(-0.7071 -0.7071 0.7071 -0.7071 -921.0645 469.1034)" fill="#2B5166" width="520.4" height="0.7"/>
			
				<rect x="-621" y="422.4" transform="matrix(-0.7071 -0.7071 0.7071 -0.7071 -914.9336 466.4467)" fill="#2B5166" width="520.4" height="0.7"/>
			
				<rect x="-618.4" y="419.8" transform="matrix(-0.7071 -0.7071 0.7071 -0.7071 -908.5239 463.9058)" fill="#2B5166" width="520.4" height="0.7"/>
			
				<rect x="-615.9" y="417.2" transform="matrix(-0.7071 -0.7071 0.7071 -0.7071 -902.3928 461.2494)" fill="#2B5166" width="520.4" height="0.7"/>
			
				<rect x="-613.2" y="414.6" transform="matrix(-0.7071 -0.7071 0.7071 -0.7071 -895.9833 458.7083)" fill="#2B5166" width="520.4" height="0.7"/>
			
				<rect x="-610.7" y="412" transform="matrix(-0.7071 -0.7071 0.7071 -0.7071 -889.8522 456.0518)" fill="#2B5166" width="520.4" height="0.7"/>
			
				<rect x="-608" y="409.4" transform="matrix(-0.7071 -0.7071 0.7071 -0.7071 -883.4427 453.5107)" fill="#2B5166" width="520.4" height="0.7"/>
			
				<rect x="-605.5" y="406.8" transform="matrix(-0.7071 -0.7071 0.7071 -0.7071 -877.3116 450.8544)" fill="#2B5166" width="520.4" height="0.7"/>
			
				<rect x="-602.8" y="404.2" transform="matrix(-0.7071 -0.7071 0.7071 -0.7071 -870.9019 448.3135)" fill="#2B5166" width="520.4" height="0.7"/>
			
				<rect x="-600.3" y="401.6" transform="matrix(-0.7071 -0.7071 0.7071 -0.7071 -864.7711 445.6568)" fill="#2B5166" width="520.4" height="0.7"/>
			
				<rect x="-597.6" y="399" transform="matrix(-0.7071 -0.7071 0.7071 -0.7071 -858.3613 443.1159)" fill="#2B5166" width="520.4" height="0.7"/>
			
				<rect x="-595.1" y="396.4" transform="matrix(-0.7071 -0.7071 0.7071 -0.7071 -852.2303 440.4595)" fill="#2B5166" width="520.4" height="0.7"/>
			
				<rect x="-592.4" y="393.8" transform="matrix(-0.7071 -0.7071 0.7071 -0.7071 -845.8207 437.9183)" fill="#2B5166" width="520.4" height="0.7"/>
			
				<rect x="-589.9" y="391.2" transform="matrix(-0.7071 -0.7071 0.7071 -0.7071 -839.6896 435.2619)" fill="#2B5166" width="520.4" height="0.7"/>
			
				<rect x="-587.2" y="388.6" transform="matrix(-0.7071 -0.7071 0.7071 -0.7071 -833.2802 432.7208)" fill="#2B5166" width="520.4" height="0.7"/>
			
				<rect x="-584.7" y="386" transform="matrix(-0.7071 -0.7071 0.7071 -0.7071 -827.149 430.0643)" fill="#2B5166" width="520.4" height="0.7"/>
			
				<rect x="-582" y="383.4" transform="matrix(-0.7071 -0.7071 0.7071 -0.7071 -820.7394 427.5233)" fill="#2B5166" width="520.4" height="0.7"/>
			
				<rect x="-579.5" y="380.8" transform="matrix(-0.7071 -0.7071 0.7071 -0.7071 -814.6085 424.8669)" fill="#2B5166" width="520.4" height="0.7"/>
			
				<rect x="-576.8" y="378.2" transform="matrix(-0.7071 -0.7071 0.7071 -0.7071 -808.1989 422.3259)" fill="#2B5166" width="520.4" height="0.7"/>
			
				<rect x="-574.3" y="375.6" transform="matrix(-0.7071 -0.7071 0.7071 -0.7071 -802.0679 419.6693)" fill="#2B5166" width="520.4" height="0.7"/>
			
				<rect x="-571.6" y="373" transform="matrix(-0.7071 -0.7071 0.7071 -0.7071 -795.6581 417.1284)" fill="#2B5166" width="520.4" height="0.7"/>
			
				<rect x="-569.1" y="370.4" transform="matrix(-0.7071 -0.7071 0.7071 -0.7071 -789.5272 414.472)" fill="#2B5166" width="520.4" height="0.7"/>
			
				<rect x="-566.4" y="367.8" transform="matrix(-0.7071 -0.7071 0.7071 -0.7071 -783.1176 411.9309)" fill="#2B5166" width="520.4" height="0.7"/>
			
				<rect x="-563.9" y="365.2" transform="matrix(-0.7071 -0.7071 0.7071 -0.7071 -776.9865 409.2744)" fill="#2B5166" width="520.4" height="0.7"/>
			
				<rect x="-488.8" y="435.3" transform="matrix(-0.7071 -0.7071 0.7071 -0.7071 -698.367 582.0211)" fill="#2B5166" width="520.4" height="0.7"/>
			
				<rect x="-486.2" y="432.8" transform="matrix(-0.7071 -0.7071 0.7071 -0.7071 -692.1544 579.5617)" fill="#2B5166" width="520.4" height="0.7"/>
			
				<rect x="-483.6" y="430.1" transform="matrix(-0.7071 -0.7071 0.7071 -0.7071 -685.8264 576.8234)" fill="#2B5166" width="520.4" height="0.7"/>
			
				<rect x="-481" y="427.6" transform="matrix(-0.7071 -0.7071 0.7071 -0.7071 -679.6137 574.3641)" fill="#2B5166" width="520.4" height="0.7"/>
			
				<rect x="-478.4" y="424.9" transform="matrix(-0.7071 -0.7071 0.7071 -0.7071 -673.2858 571.626)" fill="#2B5166" width="520.4" height="0.7"/>
			
				<rect x="-475.8" y="422.4" transform="matrix(-0.7071 -0.7071 0.7071 -0.7071 -667.0731 569.1664)" fill="#2B5166" width="520.4" height="0.7"/>
			
				<rect x="-473.2" y="419.7" transform="matrix(-0.7071 -0.7071 0.7071 -0.7071 -660.745 566.4285)" fill="#2B5166" width="520.4" height="0.7"/>
			
				<rect x="-470.7" y="417.2" transform="matrix(-0.7071 -0.7071 0.7071 -0.7071 -654.5325 563.9691)" fill="#2B5166" width="520.4" height="0.7"/>
			
				<rect x="-468.1" y="414.5" transform="matrix(-0.7071 -0.7071 0.7071 -0.7071 -648.2044 561.2311)" fill="#2B5166" width="520.4" height="0.7"/>
			
				<rect x="-465.5" y="412" transform="matrix(-0.7071 -0.7071 0.7071 -0.7071 -641.9917 558.7715)" fill="#2B5166" width="520.4" height="0.7"/>
			
				<rect x="-462.9" y="409.3" transform="matrix(-0.7071 -0.7071 0.7071 -0.7071 -635.6638 556.0335)" fill="#2B5166" width="520.4" height="0.7"/>
			
				<rect x="-460.3" y="406.8" transform="matrix(-0.7071 -0.7071 0.7071 -0.7071 -629.4512 553.5742)" fill="#2B5166" width="520.4" height="0.7"/>
			
				<rect x="-457.7" y="404.1" transform="matrix(-0.7071 -0.7071 0.7071 -0.7071 -623.1232 550.8359)" fill="#2B5166" width="520.4" height="0.7"/>
			
				<rect x="-455.1" y="401.6" transform="matrix(-0.7071 -0.7071 0.7071 -0.7071 -616.9105 548.3766)" fill="#2B5166" width="520.4" height="0.7"/>
			
				<rect x="-452.5" y="398.9" transform="matrix(-0.7071 -0.7071 0.7071 -0.7071 -610.5825 545.6385)" fill="#2B5166" width="520.4" height="0.7"/>
			
				<rect x="-449.9" y="396.4" transform="matrix(-0.7071 -0.7071 0.7071 -0.7071 -604.3699 543.179)" fill="#2B5166" width="520.4" height="0.7"/>
			
				<rect x="-447.2" y="393.8" transform="matrix(-0.7071 -0.7071 0.7071 -0.7071 -597.9602 540.638)" fill="#2B5166" width="520.4" height="0.7"/>
			
				<rect x="-444.7" y="391.2" transform="matrix(-0.7071 -0.7071 0.7071 -0.7071 -591.8292 537.9816)" fill="#2B5166" width="520.4" height="0.7"/>
			
				<rect x="-442" y="388.6" transform="matrix(-0.7071 -0.7071 0.7071 -0.7071 -585.4196 535.4406)" fill="#2B5166" width="520.4" height="0.7"/>
			
				<rect x="-439.5" y="386" transform="matrix(-0.7071 -0.7071 0.7071 -0.7071 -579.2885 532.7841)" fill="#2B5166" width="520.4" height="0.7"/>
			
				<rect x="-436.8" y="383.4" transform="matrix(-0.7071 -0.7071 0.7071 -0.7071 -572.879 530.243)" fill="#2B5166" width="520.4" height="0.7"/>
			
				<rect x="-434.3" y="380.8" transform="matrix(-0.7071 -0.7071 0.7071 -0.7071 -566.748 527.5867)" fill="#2B5166" width="520.4" height="0.7"/>
			
				<rect x="-431.6" y="378.2" transform="matrix(-0.7071 -0.7071 0.7071 -0.7071 -560.3385 525.0457)" fill="#2B5166" width="520.4" height="0.7"/>
			
				<rect x="-429.1" y="375.6" transform="matrix(-0.7071 -0.7071 0.7071 -0.7071 -554.2074 522.3891)" fill="#2B5166" width="520.4" height="0.7"/>
			
				<rect x="-426.4" y="373" transform="matrix(-0.7071 -0.7071 0.7071 -0.7071 -547.7976 519.8481)" fill="#2B5166" width="520.4" height="0.7"/>
			
				<rect x="-423.9" y="370.4" transform="matrix(-0.7071 -0.7071 0.7071 -0.7071 -541.6668 517.1917)" fill="#2B5166" width="520.4" height="0.7"/>
			
				<rect x="-421.2" y="367.8" transform="matrix(-0.7071 -0.7071 0.7071 -0.7071 -535.257 514.6505)" fill="#2B5166" width="520.4" height="0.7"/>
			
				<rect x="-418.7" y="365.2" transform="matrix(-0.7071 -0.7071 0.7071 -0.7071 -529.1262 511.994)" fill="#2B5166" width="520.4" height="0.7"/>
			
				<rect x="-343.6" y="435.3" transform="matrix(-0.7071 -0.7071 0.7071 -0.7071 -450.5065 684.7408)" fill="#2B5166" width="520.4" height="0.7"/>
			
				<rect x="-341" y="432.8" transform="matrix(-0.7071 -0.7071 0.7071 -0.7071 -444.2937 682.2813)" fill="#2B5166" width="520.4" height="0.7"/>
			
				<rect x="-338.4" y="430.1" transform="matrix(-0.7071 -0.7071 0.7071 -0.7071 -437.9659 679.5432)" fill="#2B5166" width="520.4" height="0.7"/>
			
				<rect x="-335.8" y="427.6" transform="matrix(-0.7071 -0.7071 0.7071 -0.7071 -431.7532 677.0839)" fill="#2B5166" width="520.4" height="0.7"/>
			
				<rect x="-333.2" y="424.9" transform="matrix(-0.7071 -0.7071 0.7071 -0.7071 -425.4253 674.3458)" fill="#2B5166" width="520.4" height="0.7"/>
			
				<rect x="-330.6" y="422.4" transform="matrix(-0.7071 -0.7071 0.7071 -0.7071 -419.2126 671.8863)" fill="#2B5166" width="520.4" height="0.7"/>
			
				<rect x="-328" y="419.7" transform="matrix(-0.7071 -0.7071 0.7071 -0.7071 -412.8847 669.1481)" fill="#2B5166" width="520.4" height="0.7"/>
			
				<rect x="-325.4" y="417.2" transform="matrix(-0.7071 -0.7071 0.7071 -0.7071 -406.672 666.6889)" fill="#2B5166" width="520.4" height="0.7"/>
			
				<rect x="-322.8" y="414.5" transform="matrix(-0.7071 -0.7071 0.7071 -0.7071 -400.3438 663.9506)" fill="#2B5166" width="520.4" height="0.7"/>
			
				<rect x="-320.3" y="412" transform="matrix(-0.7071 -0.7071 0.7071 -0.7071 -394.1314 661.4913)" fill="#2B5166" width="520.4" height="0.7"/>
			
				<rect x="-317.7" y="409.3" transform="matrix(-0.7071 -0.7071 0.7071 -0.7071 -387.8033 658.7533)" fill="#2B5166" width="520.4" height="0.7"/>
			
				<rect x="-315.1" y="406.8" transform="matrix(-0.7071 -0.7071 0.7071 -0.7071 -381.5906 656.2937)" fill="#2B5166" width="520.4" height="0.7"/>
			
				<rect x="-312.5" y="404.2" transform="matrix(-0.7071 -0.7071 0.7071 -0.7071 -375.2627 653.5557)" fill="#2B5166" width="520.4" height="0.7"/>
			
				<rect x="-309.9" y="401.6" transform="matrix(-0.7071 -0.7071 0.7071 -0.7071 -369.05 651.0964)" fill="#2B5166" width="520.4" height="0.7"/>
			
				<rect x="-307.3" y="399" transform="matrix(-0.7071 -0.7071 0.7071 -0.7071 -362.7221 648.3582)" fill="#2B5166" width="520.4" height="0.7"/>
			
				<rect x="-304.7" y="396.4" transform="matrix(-0.7071 -0.7071 0.7071 -0.7071 -356.5094 645.8987)" fill="#2B5166" width="520.4" height="0.7"/>
			
				<rect x="-302.1" y="393.8" transform="matrix(-0.7071 -0.7071 0.7071 -0.7071 -350.1813 643.1607)" fill="#2B5166" width="520.4" height="0.7"/>
			
				<rect x="-299.5" y="391.2" transform="matrix(-0.7071 -0.7071 0.7071 -0.7071 -343.9688 640.7014)" fill="#2B5166" width="520.4" height="0.7"/>
			
				<rect x="-296.9" y="388.6" transform="matrix(-0.7071 -0.7071 0.7071 -0.7071 -337.6408 637.9633)" fill="#2B5166" width="520.4" height="0.7"/>
			
				<rect x="-294.3" y="386" transform="matrix(-0.7071 -0.7071 0.7071 -0.7071 -331.4282 635.5038)" fill="#2B5166" width="520.4" height="0.7"/>
			
				<rect x="-291.7" y="383.4" transform="matrix(-0.7071 -0.7071 0.7071 -0.7071 -325.1001 632.7657)" fill="#2B5166" width="520.4" height="0.7"/>
			
				<rect x="-289.1" y="380.9" transform="matrix(-0.7071 -0.7071 0.7071 -0.7071 -318.8875 630.3064)" fill="#2B5166" width="520.4" height="0.7"/>
			
				<rect x="-286.5" y="378.2" transform="matrix(-0.7071 -0.7071 0.7071 -0.7071 -312.5595 627.5681)" fill="#2B5166" width="520.4" height="0.7"/>
			
				<rect x="-283.9" y="375.7" transform="matrix(-0.7071 -0.7071 0.7071 -0.7071 -306.3468 625.1088)" fill="#2B5166" width="520.4" height="0.7"/>
			
				<rect x="-281.3" y="373" transform="matrix(-0.7071 -0.7071 0.7071 -0.7071 -300.0188 622.3708)" fill="#2B5166" width="520.4" height="0.7"/>
			
				<rect x="-278.7" y="370.5" transform="matrix(-0.7071 -0.7071 0.7071 -0.7071 -293.8062 619.9112)" fill="#2B5166" width="520.4" height="0.7"/>
			
				<rect x="-276.1" y="367.8" transform="matrix(-0.7071 -0.7071 0.7071 -0.7071 -287.4781 617.1732)" fill="#2B5166" width="520.4" height="0.7"/>
			
				<rect x="-273.5" y="365.3" transform="matrix(-0.7071 -0.7071 0.7071 -0.7071 -281.2657 614.7138)" fill="#2B5166" width="520.4" height="0.7"/>
			
				<rect x="-198.4" y="435.4" transform="matrix(-0.7071 -0.7071 0.7071 -0.7071 -202.6459 787.4604)" fill="#2B5166" width="520.4" height="0.7"/>
			
				<rect x="-195.9" y="432.8" transform="matrix(-0.7071 -0.7071 0.7071 -0.7071 -196.515 784.804)" fill="#2B5166" width="520.4" height="0.7"/>
			
				<rect x="-193.2" y="430.2" transform="matrix(-0.7071 -0.7071 0.7071 -0.7071 -190.1053 782.2629)" fill="#2B5166" width="520.4" height="0.7"/>
			
				<rect x="-190.7" y="427.6" transform="matrix(-0.7071 -0.7071 0.7071 -0.7071 -183.9745 779.6066)" fill="#2B5166" width="520.4" height="0.7"/>
			
				<rect x="-188" y="425" transform="matrix(-0.7071 -0.7071 0.7071 -0.7071 -177.5647 777.0654)" fill="#2B5166" width="520.4" height="0.7"/>
			
				<rect x="-185.5" y="422.4" transform="matrix(-0.7071 -0.7071 0.7071 -0.7071 -171.4337 774.4091)" fill="#2B5166" width="520.4" height="0.7"/>
			
				<rect x="-182.8" y="419.8" transform="matrix(-0.7071 -0.7071 0.7071 -0.7071 -165.0242 771.868)" fill="#2B5166" width="520.4" height="0.7"/>
			
				<rect x="-180.3" y="417.2" transform="matrix(-0.7071 -0.7071 0.7071 -0.7071 -158.8931 769.2115)" fill="#2B5166" width="520.4" height="0.7"/>
			
				<rect x="-177.6" y="414.6" transform="matrix(-0.7071 -0.7071 0.7071 -0.7071 -152.4835 766.6703)" fill="#2B5166" width="520.4" height="0.7"/>
			
				<rect x="-175.1" y="412" transform="matrix(-0.7071 -0.7071 0.7071 -0.7071 -146.3525 764.0139)" fill="#2B5166" width="520.4" height="0.7"/>
			
				<rect x="-172.5" y="409.4" transform="matrix(-0.7071 -0.7071 0.7071 -0.7071 -139.9428 761.4731)" fill="#2B5166" width="520.4" height="0.7"/>
			
				<rect x="-169.9" y="406.8" transform="matrix(-0.7071 -0.7071 0.7071 -0.7071 -133.8119 758.8163)" fill="#2B5166" width="520.4" height="0.7"/>
			
				<rect x="-167.3" y="404.2" transform="matrix(-0.7071 -0.7071 0.7071 -0.7071 -127.4022 756.2754)" fill="#2B5166" width="520.4" height="0.7"/>
			
				<rect x="-164.7" y="401.6" transform="matrix(-0.7071 -0.7071 0.7071 -0.7071 -121.2712 753.619)" fill="#2B5166" width="520.4" height="0.7"/>
			
				<rect x="-162.1" y="399" transform="matrix(-0.7071 -0.7071 0.7071 -0.7071 -114.8615 751.0778)" fill="#2B5166" width="520.4" height="0.7"/>
			
				<rect x="-159.5" y="396.4" transform="matrix(-0.7071 -0.7071 0.7071 -0.7071 -108.7305 748.4214)" fill="#2B5166" width="520.4" height="0.7"/>
			
				<rect x="-156.9" y="393.8" transform="matrix(-0.7071 -0.7071 0.7071 -0.7071 -102.321 745.8804)" fill="#2B5166" width="520.4" height="0.7"/>
			
				<rect x="-154.4" y="391.2" transform="matrix(-0.7071 -0.7071 0.7071 -0.7071 -96.19 743.224)" fill="#2B5166" width="520.4" height="0.7"/>
			
				<rect x="-151.7" y="388.6" transform="matrix(-0.7071 -0.7071 0.7071 -0.7071 -89.7802 740.6829)" fill="#2B5166" width="520.4" height="0.7"/>
			
				<rect x="-149.2" y="386" transform="matrix(-0.7071 -0.7071 0.7071 -0.7071 -83.6494 738.0264)" fill="#2B5166" width="520.4" height="0.7"/>
			
				<rect x="-146.5" y="383.4" transform="matrix(-0.7071 -0.7071 0.7071 -0.7071 -77.2396 735.4855)" fill="#2B5166" width="520.4" height="0.7"/>
			
				<rect x="-144" y="380.8" transform="matrix(-0.7071 -0.7071 0.7071 -0.7071 -71.1087 732.8288)" fill="#2B5166" width="520.4" height="0.7"/>
			
				<rect x="-141.3" y="378.2" transform="matrix(-0.7071 -0.7071 0.7071 -0.7071 -64.699 730.2879)" fill="#2B5166" width="520.4" height="0.7"/>
			
				<rect x="-138.8" y="375.6" transform="matrix(-0.7071 -0.7071 0.7071 -0.7071 -58.568 727.6315)" fill="#2B5166" width="520.4" height="0.7"/>
			
				<rect x="-136.1" y="373" transform="matrix(-0.7071 -0.7071 0.7071 -0.7071 -52.1584 725.0905)" fill="#2B5166" width="520.4" height="0.7"/>
			
				<rect x="-133.6" y="370.4" transform="matrix(-0.7071 -0.7071 0.7071 -0.7071 -46.0274 722.4339)" fill="#2B5166" width="520.4" height="0.7"/>
			
				<rect x="-130.9" y="367.8" transform="matrix(-0.7071 -0.7071 0.7071 -0.7071 -39.6178 719.8929)" fill="#2B5166" width="520.4" height="0.7"/>
			
				<rect x="-128.4" y="365.2" transform="matrix(-0.7071 -0.7071 0.7071 -0.7071 -33.4868 717.2365)" fill="#2B5166" width="520.4" height="0.7"/>
			
				<rect x="-53.3" y="435.3" transform="matrix(-0.7071 -0.7071 0.7071 -0.7071 45.1328 889.983)" fill="#2B5166" width="520.4" height="0.7"/>
			
				<rect x="-50.7" y="432.8" transform="matrix(-0.7071 -0.7071 0.7071 -0.7071 51.3455 887.5237)" fill="#2B5166" width="520.4" height="0.7"/>
			
				<rect x="-48.1" y="430.1" transform="matrix(-0.7071 -0.7071 0.7071 -0.7071 57.6734 884.7855)" fill="#2B5166" width="520.4" height="0.7"/>
			
				<rect x="-45.5" y="427.6" transform="matrix(-0.7071 -0.7071 0.7071 -0.7071 63.886 882.3263)" fill="#2B5166" width="520.4" height="0.7"/>
			
				<rect x="-42.9" y="424.9" transform="matrix(-0.7071 -0.7071 0.7071 -0.7071 70.2142 879.5881)" fill="#2B5166" width="520.4" height="0.7"/>
			
				<rect x="-40.3" y="422.4" transform="matrix(-0.7071 -0.7071 0.7071 -0.7071 76.4266 877.1287)" fill="#2B5166" width="520.4" height="0.7"/>
			
				<rect x="-37.7" y="419.7" transform="matrix(-0.7071 -0.7071 0.7071 -0.7071 82.7547 874.3906)" fill="#2B5166" width="520.4" height="0.7"/>
			
				<rect x="-35.1" y="417.2" transform="matrix(-0.7071 -0.7071 0.7071 -0.7071 88.9675 871.9312)" fill="#2B5166" width="520.4" height="0.7"/>
			
				<rect x="-32.5" y="414.5" transform="matrix(-0.7071 -0.7071 0.7071 -0.7071 95.2953 869.193)" fill="#2B5166" width="520.4" height="0.7"/>
			
				<rect x="-29.9" y="412" transform="matrix(-0.7071 -0.7071 0.7071 -0.7071 101.508 866.7338)" fill="#2B5166" width="520.4" height="0.7"/>
			
				<rect x="-27.3" y="409.3" transform="matrix(-0.7071 -0.7071 0.7071 -0.7071 107.8359 863.9956)" fill="#2B5166" width="520.4" height="0.7"/>
			
				<rect x="-24.7" y="406.8" transform="matrix(-0.7071 -0.7071 0.7071 -0.7071 114.0486 861.5361)" fill="#2B5166" width="520.4" height="0.7"/>
			
				<rect x="-22.1" y="404.1" transform="matrix(-0.7071 -0.7071 0.7071 -0.7071 120.3767 858.7982)" fill="#2B5166" width="520.4" height="0.7"/>
			
				<rect x="-19.5" y="401.6" transform="matrix(-0.7071 -0.7071 0.7071 -0.7071 126.5892 856.3387)" fill="#2B5166" width="520.4" height="0.7"/>
			
				<rect x="-16.9" y="398.9" transform="matrix(-0.7071 -0.7071 0.7071 -0.7071 132.9174 853.6005)" fill="#2B5166" width="520.4" height="0.7"/>
			
				<rect x="-14.3" y="396.4" transform="matrix(-0.7071 -0.7071 0.7071 -0.7071 139.13 851.1412)" fill="#2B5166" width="520.4" height="0.7"/>
			
				<rect x="-11.7" y="393.8" transform="matrix(-0.7071 -0.7071 0.7071 -0.7071 145.5395 848.6002)" fill="#2B5166" width="520.4" height="0.7"/>
			
				<rect x="-9.2" y="391.2" transform="matrix(-0.7071 -0.7071 0.7071 -0.7071 151.6706 845.9438)" fill="#2B5166" width="520.4" height="0.7"/>
			
				<rect x="-6.5" y="388.6" transform="matrix(-0.7071 -0.7071 0.7071 -0.7071 158.0802 843.4026)" fill="#2B5166" width="520.4" height="0.7"/>
			
				<rect x="-4" y="386" transform="matrix(-0.7071 -0.7071 0.7071 -0.7071 164.2111 840.7463)" fill="#2B5166" width="520.4" height="0.7"/>
			
				<rect x="-1.3" y="383.4" transform="matrix(-0.7071 -0.7071 0.7071 -0.7071 170.6209 838.2053)" fill="#2B5166" width="520.4" height="0.7"/>
			
				<rect x="1.2" y="380.8" transform="matrix(-0.7071 -0.7071 0.7071 -0.7071 176.7518 835.5486)" fill="#2B5166" width="520.4" height="0.7"/>
			
				<rect x="3.9" y="378.2" transform="matrix(-0.7071 -0.7071 0.7071 -0.7071 183.1615 833.0076)" fill="#2B5166" width="520.4" height="0.7"/>
			
				<rect x="6.4" y="375.6" transform="matrix(-0.7071 -0.7071 0.7071 -0.7071 189.2923 830.3513)" fill="#2B5166" width="520.4" height="0.7"/>
			
				<rect x="9.1" y="373" transform="matrix(-0.7071 -0.7071 0.7071 -0.7071 195.7022 827.8101)" fill="#2B5166" width="520.4" height="0.7"/>
			
				<rect x="11.6" y="370.4" transform="matrix(-0.7071 -0.7071 0.7071 -0.7071 201.833 825.1537)" fill="#2B5166" width="520.4" height="0.7"/>
			
				<rect x="14.3" y="367.8" transform="matrix(-0.7071 -0.7071 0.7071 -0.7071 208.2427 822.6127)" fill="#2B5166" width="520.4" height="0.7"/>
			
				<rect x="16.8" y="365.2" transform="matrix(-0.7071 -0.7071 0.7071 -0.7071 214.3738 819.9561)" fill="#2B5166" width="520.4" height="0.7"/>
			
				<rect x="91.9" y="435.3" transform="matrix(-0.7071 -0.7071 0.7071 -0.7071 292.9933 992.7028)" fill="#2B5166" width="520.4" height="0.7"/>
			
				<rect x="94.5" y="432.8" transform="matrix(-0.7071 -0.7071 0.7071 -0.7071 299.206 990.2435)" fill="#2B5166" width="520.4" height="0.7"/>
			
				<rect x="97.1" y="430.1" transform="matrix(-0.7071 -0.7071 0.7071 -0.7071 305.5339 987.5054)" fill="#2B5166" width="520.4" height="0.7"/>
			
				<rect x="99.7" y="427.6" transform="matrix(-0.7071 -0.7071 0.7071 -0.7071 311.7466 985.0458)" fill="#2B5166" width="520.4" height="0.7"/>
			
				<rect x="102.3" y="424.9" transform="matrix(-0.7071 -0.7071 0.7071 -0.7071 318.0746 982.3079)" fill="#2B5166" width="520.4" height="0.7"/>
			
				<rect x="104.9" y="422.4" transform="matrix(-0.7071 -0.7071 0.7071 -0.7071 324.2871 979.8485)" fill="#2B5166" width="520.4" height="0.7"/>
			
				<rect x="107.5" y="419.7" transform="matrix(-0.7071 -0.7071 0.7071 -0.7071 330.6153 977.1103)" fill="#2B5166" width="520.4" height="0.7"/>
			
				<rect x="110.1" y="417.2" transform="matrix(-0.7071 -0.7071 0.7071 -0.7071 336.8278 974.6508)" fill="#2B5166" width="520.4" height="0.7"/>
			
				<rect x="112.7" y="414.5" transform="matrix(-0.7071 -0.7071 0.7071 -0.7071 343.1559 971.9128)" fill="#2B5166" width="520.4" height="0.7"/>
			
				<rect x="115.3" y="412" transform="matrix(-0.7071 -0.7071 0.7071 -0.7071 349.3685 969.4536)" fill="#2B5166" width="520.4" height="0.7"/>
			
				<rect x="117.9" y="409.3" transform="matrix(-0.7071 -0.7071 0.7071 -0.7071 355.6965 966.7153)" fill="#2B5166" width="520.4" height="0.7"/>
			
				<rect x="120.5" y="406.8" transform="matrix(-0.7071 -0.7071 0.7071 -0.7071 361.9091 964.2559)" fill="#2B5166" width="520.4" height="0.7"/>
			
				<rect x="123.1" y="404.1" transform="matrix(-0.7071 -0.7071 0.7071 -0.7071 368.2371 961.5178)" fill="#2B5166" width="520.4" height="0.7"/>
			
				<rect x="125.7" y="401.6" transform="matrix(-0.7071 -0.7071 0.7071 -0.7071 374.4498 959.0583)" fill="#2B5166" width="520.4" height="0.7"/>
			
				<rect x="128.3" y="399" transform="matrix(-0.7071 -0.7071 0.7071 -0.7071 380.7779 956.3203)" fill="#2B5166" width="520.4" height="0.7"/>
			
				<rect x="130.9" y="396.4" transform="matrix(-0.7071 -0.7071 0.7071 -0.7071 386.9903 953.8609)" fill="#2B5166" width="520.4" height="0.7"/>
			
				<rect x="133.5" y="393.8" transform="matrix(-0.7071 -0.7071 0.7071 -0.7071 393.3184 951.1229)" fill="#2B5166" width="520.4" height="0.7"/>
			
				<rect x="136.1" y="391.2" transform="matrix(-0.7071 -0.7071 0.7071 -0.7071 399.5312 948.6634)" fill="#2B5166" width="520.4" height="0.7"/>
			
				<rect x="138.7" y="388.6" transform="matrix(-0.7071 -0.7071 0.7071 -0.7071 405.859 945.9253)" fill="#2B5166" width="520.4" height="0.7"/>
			
				<rect x="141.2" y="386" transform="matrix(-0.7071 -0.7071 0.7071 -0.7071 412.0717 943.4659)" fill="#2B5166" width="520.4" height="0.7"/>
			
				<rect x="143.8" y="383.4" transform="matrix(-0.7071 -0.7071 0.7071 -0.7071 418.3996 940.7279)" fill="#2B5166" width="520.4" height="0.7"/>
			
				<rect x="146.4" y="380.8" transform="matrix(-0.7071 -0.7071 0.7071 -0.7071 424.6123 938.2684)" fill="#2B5166" width="520.4" height="0.7"/>
			
				<rect x="149" y="378.2" transform="matrix(-0.7071 -0.7071 0.7071 -0.7071 430.9404 935.5304)" fill="#2B5166" width="520.4" height="0.7"/>
			
				<rect x="151.6" y="375.7" transform="matrix(-0.7071 -0.7071 0.7071 -0.7071 437.1529 933.071)" fill="#2B5166" width="520.4" height="0.7"/>
			
				<rect x="154.2" y="373" transform="matrix(-0.7071 -0.7071 0.7071 -0.7071 443.481 930.3328)" fill="#2B5166" width="520.4" height="0.7"/>
			
				<rect x="156.8" y="370.5" transform="matrix(-0.7071 -0.7071 0.7071 -0.7071 449.6935 927.8734)" fill="#2B5166" width="520.4" height="0.7"/>
			
				<rect x="159.4" y="367.8" transform="matrix(-0.7071 -0.7071 0.7071 -0.7071 456.0216 925.1354)" fill="#2B5166" width="520.4" height="0.7"/>
			
				<rect x="162" y="365.3" transform="matrix(-0.7071 -0.7071 0.7071 -0.7071 462.2343 922.6759)" fill="#2B5166" width="520.4" height="0.7"/>
			
				<rect x="237.1" y="435.4" transform="matrix(-0.7071 -0.7071 0.7071 -0.7071 540.8538 1095.4225)" fill="#2B5166" width="520.4" height="0.7"/>
			
				<rect x="239.6" y="432.8" transform="matrix(-0.7071 -0.7071 0.7071 -0.7071 546.9849 1092.7661)" fill="#2B5166" width="520.4" height="0.7"/>
			
				<rect x="242.3" y="430.2" transform="matrix(-0.7071 -0.7071 0.7071 -0.7071 553.3944 1090.2252)" fill="#2B5166" width="520.4" height="0.7"/>
			
				<rect x="244.8" y="427.6" transform="matrix(-0.7071 -0.7071 0.7071 -0.7071 559.5255 1087.5686)" fill="#2B5166" width="520.4" height="0.7"/>
			
				<rect x="247.5" y="425" transform="matrix(-0.7071 -0.7071 0.7071 -0.7071 565.9351 1085.0275)" fill="#2B5166" width="520.4" height="0.7"/>
			
				<rect x="250" y="422.4" transform="matrix(-0.7071 -0.7071 0.7071 -0.7071 572.066 1082.3711)" fill="#2B5166" width="520.4" height="0.7"/>
			
				<rect x="252.7" y="419.8" transform="matrix(-0.7071 -0.7071 0.7071 -0.7071 578.4756 1079.83)" fill="#2B5166" width="520.4" height="0.7"/>
			
				<rect x="255.2" y="417.2" transform="matrix(-0.7071 -0.7071 0.7071 -0.7071 584.6066 1077.1736)" fill="#2B5166" width="520.4" height="0.7"/>
			
				<rect x="257.9" y="414.6" transform="matrix(-0.7071 -0.7071 0.7071 -0.7071 591.0164 1074.6326)" fill="#2B5166" width="520.4" height="0.7"/>
			
				<rect x="260.4" y="412" transform="matrix(-0.7071 -0.7071 0.7071 -0.7071 597.1473 1071.9761)" fill="#2B5166" width="520.4" height="0.7"/>
			
				<rect x="263.1" y="409.4" transform="matrix(-0.7071 -0.7071 0.7071 -0.7071 603.557 1069.4349)" fill="#2B5166" width="520.4" height="0.7"/>
			
				<rect x="265.6" y="406.8" transform="matrix(-0.7071 -0.7071 0.7071 -0.7071 609.688 1066.7787)" fill="#2B5166" width="520.4" height="0.7"/>
			
				<rect x="268.3" y="404.2" transform="matrix(-0.7071 -0.7071 0.7071 -0.7071 616.0975 1064.2375)" fill="#2B5166" width="520.4" height="0.7"/>
			
				<rect x="270.8" y="401.6" transform="matrix(-0.7071 -0.7071 0.7071 -0.7071 622.2287 1061.5811)" fill="#2B5166" width="520.4" height="0.7"/>
			
				<rect x="273.5" y="399" transform="matrix(-0.7071 -0.7071 0.7071 -0.7071 628.6383 1059.0402)" fill="#2B5166" width="520.4" height="0.7"/>
			
				<rect x="276" y="396.4" transform="matrix(-0.7071 -0.7071 0.7071 -0.7071 634.7692 1056.3837)" fill="#2B5166" width="520.4" height="0.7"/>
			
				<rect x="278.7" y="393.8" transform="matrix(-0.7071 -0.7071 0.7071 -0.7071 641.1791 1053.8425)" fill="#2B5166" width="520.4" height="0.7"/>
			
				<rect x="281.2" y="391.2" transform="matrix(-0.7071 -0.7071 0.7071 -0.7071 647.3098 1051.186)" fill="#2B5166" width="520.4" height="0.7"/>
			
				<rect x="283.9" y="388.6" transform="matrix(-0.7071 -0.7071 0.7071 -0.7071 653.7196 1048.6451)" fill="#2B5166" width="520.4" height="0.7"/>
			
				<rect x="286.4" y="386" transform="matrix(-0.7071 -0.7071 0.7071 -0.7071 659.8503 1045.9885)" fill="#2B5166" width="520.4" height="0.7"/>
			
				<rect x="289" y="383.4" transform="matrix(-0.7071 -0.7071 0.7071 -0.7071 666.2603 1043.4475)" fill="#2B5166" width="520.4" height="0.7"/>
			
				<rect x="291.6" y="380.8" transform="matrix(-0.7071 -0.7071 0.7071 -0.7071 672.3912 1040.791)" fill="#2B5166" width="520.4" height="0.7"/>
			
				<rect x="294.2" y="378.2" transform="matrix(-0.7071 -0.7071 0.7071 -0.7071 678.8008 1038.25)" fill="#2B5166" width="520.4" height="0.7"/>
			
				<rect x="296.8" y="375.6" transform="matrix(-0.7071 -0.7071 0.7071 -0.7071 684.9319 1035.5936)" fill="#2B5166" width="520.4" height="0.7"/>
			
				<rect x="299.4" y="373" transform="matrix(-0.7071 -0.7071 0.7071 -0.7071 691.3416 1033.0526)" fill="#2B5166" width="520.4" height="0.7"/>
			
				<rect x="302" y="370.4" transform="matrix(-0.7071 -0.7071 0.7071 -0.7071 697.4724 1030.3961)" fill="#2B5166" width="520.4" height="0.7"/>
			
				<rect x="304.6" y="367.8" transform="matrix(-0.7071 -0.7071 0.7071 -0.7071 703.8821 1027.8551)" fill="#2B5166" width="520.4" height="0.7"/>
			
				<rect x="307.1" y="365.2" transform="matrix(-0.7071 -0.7071 0.7071 -0.7071 710.0131 1025.1985)" fill="#2B5166" width="520.4" height="0.7"/>
			
				<rect x="382.2" y="435.3" transform="matrix(-0.7071 -0.7071 0.7071 -0.7071 788.6324 1197.9452)" fill="#2B5166" width="520.4" height="0.7"/>
			
				<rect x="384.8" y="432.8" transform="matrix(-0.7071 -0.7071 0.7071 -0.7071 794.8453 1195.4857)" fill="#2B5166" width="520.4" height="0.7"/>
			
				<rect x="387.4" y="430.1" transform="matrix(-0.7071 -0.7071 0.7071 -0.7071 801.1733 1192.7476)" fill="#2B5166" width="520.4" height="0.7"/>
			
				<rect x="390" y="427.6" transform="matrix(-0.7071 -0.7071 0.7071 -0.7071 807.3858 1190.2883)" fill="#2B5166" width="520.4" height="0.7"/>
			
				<rect x="392.6" y="424.9" transform="matrix(-0.7071 -0.7071 0.7071 -0.7071 813.7139 1187.5503)" fill="#2B5166" width="520.4" height="0.7"/>
			
				<rect x="395.2" y="422.4" transform="matrix(-0.7071 -0.7071 0.7071 -0.7071 819.9267 1185.0907)" fill="#2B5166" width="520.4" height="0.7"/>
			
				<rect x="397.8" y="419.7" transform="matrix(-0.7071 -0.7071 0.7071 -0.7071 826.2545 1182.3527)" fill="#2B5166" width="520.4" height="0.7"/>
			
				<rect x="400.4" y="417.2" transform="matrix(-0.7071 -0.7071 0.7071 -0.7071 832.4672 1179.8934)" fill="#2B5166" width="520.4" height="0.7"/>
			
				<rect x="403" y="414.5" transform="matrix(-0.7071 -0.7071 0.7071 -0.7071 838.7952 1177.155)" fill="#2B5166" width="520.4" height="0.7"/>
			
				<rect x="405.6" y="412" transform="matrix(-0.7071 -0.7071 0.7071 -0.7071 845.0079 1174.6957)" fill="#2B5166" width="520.4" height="0.7"/>
			
				<rect x="408.2" y="409.3" transform="matrix(-0.7071 -0.7071 0.7071 -0.7071 851.3359 1171.9578)" fill="#2B5166" width="520.4" height="0.7"/>
			
				<rect x="410.8" y="406.8" transform="matrix(-0.7071 -0.7071 0.7071 -0.7071 857.5486 1169.4984)" fill="#2B5166" width="520.4" height="0.7"/>
			
				<rect x="413.4" y="404.1" transform="matrix(-0.7071 -0.7071 0.7071 -0.7071 863.8765 1166.7601)" fill="#2B5166" width="520.4" height="0.7"/>
			
				<rect x="416" y="401.6" transform="matrix(-0.7071 -0.7071 0.7071 -0.7071 870.0892 1164.3008)" fill="#2B5166" width="520.4" height="0.7"/>
			
				<rect x="418.6" y="398.9" transform="matrix(-0.7071 -0.7071 0.7071 -0.7071 876.4171 1161.5627)" fill="#2B5166" width="520.4" height="0.7"/>
			
				<rect x="421.2" y="396.4" transform="matrix(-0.7071 -0.7071 0.7071 -0.7071 882.6297 1159.1035)" fill="#2B5166" width="520.4" height="0.7"/>
			
				<rect x="423.9" y="393.8" transform="matrix(-0.7071 -0.7071 0.7071 -0.7071 889.0393 1156.5621)" fill="#2B5166" width="520.4" height="0.7"/>
			
				<rect x="426.4" y="391.2" transform="matrix(-0.7071 -0.7071 0.7071 -0.7071 895.1705 1153.9058)" fill="#2B5166" width="520.4" height="0.7"/>
			
				<rect x="429.1" y="388.6" transform="matrix(-0.7071 -0.7071 0.7071 -0.7071 901.58 1151.3649)" fill="#2B5166" width="520.4" height="0.7"/>
			
				<rect x="431.6" y="386" transform="matrix(-0.7071 -0.7071 0.7071 -0.7071 907.7109 1148.7085)" fill="#2B5166" width="520.4" height="0.7"/>
			
				<rect x="434.3" y="383.4" transform="matrix(-0.7071 -0.7071 0.7071 -0.7071 914.1207 1146.1671)" fill="#2B5166" width="520.4" height="0.7"/>
			
				<rect x="436.8" y="380.8" transform="matrix(-0.7071 -0.7071 0.7071 -0.7071 920.2516 1143.5109)" fill="#2B5166" width="520.4" height="0.7"/>
			
				<rect x="439.4" y="378.2" transform="matrix(-0.7071 -0.7071 0.7071 -0.7071 926.6611 1140.9698)" fill="#2B5166" width="520.4" height="0.7"/>
			
				<rect x="442" y="375.6" transform="matrix(-0.7071 -0.7071 0.7071 -0.7071 932.7924 1138.3134)" fill="#2B5166" width="520.4" height="0.7"/>
			
				<rect x="444.6" y="373" transform="matrix(-0.7071 -0.7071 0.7071 -0.7071 939.2019 1135.7722)" fill="#2B5166" width="520.4" height="0.7"/>
			
				<rect x="447.2" y="370.4" transform="matrix(-0.7071 -0.7071 0.7071 -0.7071 945.3329 1133.116)" fill="#2B5166" width="520.4" height="0.7"/>
			
				<rect x="449.8" y="367.8" transform="matrix(-0.7071 -0.7071 0.7071 -0.7071 951.7426 1130.575)" fill="#2B5166" width="520.4" height="0.7"/>
			
				<rect x="452.3" y="365.2" transform="matrix(-0.7071 -0.7071 0.7071 -0.7071 957.8735 1127.9183)" fill="#2B5166" width="520.4" height="0.7"/>
			
				<rect x="527.4" y="435.3" transform="matrix(-0.7071 -0.7071 0.7071 -0.7071 1036.4932 1300.665)" fill="#2B5166" width="520.4" height="0.7"/>
			
				<rect x="530" y="432.8" transform="matrix(-0.7071 -0.7071 0.7071 -0.7071 1042.7058 1298.2054)" fill="#2B5166" width="520.4" height="0.7"/>
			
				<rect x="532.6" y="430.1" transform="matrix(-0.7071 -0.7071 0.7071 -0.7071 1049.0337 1295.4674)" fill="#2B5166" width="520.4" height="0.7"/>
			
				<rect x="535.2" y="427.6" transform="matrix(-0.7071 -0.7071 0.7071 -0.7071 1055.2463 1293.0079)" fill="#2B5166" width="520.4" height="0.7"/>
			
				<rect x="537.8" y="424.9" transform="matrix(-0.7071 -0.7071 0.7071 -0.7071 1061.5746 1290.2698)" fill="#2B5166" width="520.4" height="0.7"/>
			
				<rect x="540.4" y="422.4" transform="matrix(-0.7071 -0.7071 0.7071 -0.7071 1067.7871 1287.8105)" fill="#2B5166" width="520.4" height="0.7"/>
			
				<rect x="543" y="419.7" transform="matrix(-0.7071 -0.7071 0.7071 -0.7071 1074.1151 1285.0725)" fill="#2B5166" width="520.4" height="0.7"/>
			
				<rect x="545.6" y="417.2" transform="matrix(-0.7071 -0.7071 0.7071 -0.7071 1080.3278 1282.6128)" fill="#2B5166" width="520.4" height="0.7"/>
			
				<rect x="548.2" y="414.5" transform="matrix(-0.7071 -0.7071 0.7071 -0.7071 1086.6556 1279.8749)" fill="#2B5166" width="520.4" height="0.7"/>
			
				<rect x="550.8" y="412" transform="matrix(-0.7071 -0.7071 0.7071 -0.7071 1092.8683 1277.4155)" fill="#2B5166" width="520.4" height="0.7"/>
			
				<rect x="553.4" y="409.3" transform="matrix(-0.7071 -0.7071 0.7071 -0.7071 1099.1965 1274.6772)" fill="#2B5166" width="520.4" height="0.7"/>
			
				<rect x="556" y="406.8" transform="matrix(-0.7071 -0.7071 0.7071 -0.7071 1105.4091 1272.2178)" fill="#2B5166" width="520.4" height="0.7"/>
			
				<rect x="558.6" y="404.1" transform="matrix(-0.7071 -0.7071 0.7071 -0.7071 1111.7371 1269.48)" fill="#2B5166" width="520.4" height="0.7"/>
			
				<rect x="561.2" y="401.6" transform="matrix(-0.7071 -0.7071 0.7071 -0.7071 1117.9495 1267.0205)" fill="#2B5166" width="520.4" height="0.7"/>
			
				<rect x="563.8" y="398.9" transform="matrix(-0.7071 -0.7071 0.7071 -0.7071 1124.2777 1264.2823)" fill="#2B5166" width="520.4" height="0.7"/>
			
				<rect x="566.4" y="396.4" transform="matrix(-0.7071 -0.7071 0.7071 -0.7071 1130.4902 1261.8229)" fill="#2B5166" width="520.4" height="0.7"/>
			
				<rect x="569" y="393.8" transform="matrix(-0.7071 -0.7071 0.7071 -0.7071 1136.8182 1259.085)" fill="#2B5166" width="520.4" height="0.7"/>
			
				<rect x="571.6" y="391.2" transform="matrix(-0.7071 -0.7071 0.7071 -0.7071 1143.0309 1256.6256)" fill="#2B5166" width="520.4" height="0.7"/>
			
				<rect x="574.2" y="388.6" transform="matrix(-0.7071 -0.7071 0.7071 -0.7071 1149.3589 1253.8873)" fill="#2B5166" width="520.4" height="0.7"/>
			
				<rect x="576.8" y="386" transform="matrix(-0.7071 -0.7071 0.7071 -0.7071 1155.5715 1251.4279)" fill="#2B5166" width="520.4" height="0.7"/>
			
				<rect x="579.4" y="383.4" transform="matrix(-0.7071 -0.7071 0.7071 -0.7071 1161.8995 1248.6901)" fill="#2B5166" width="520.4" height="0.7"/>
			
				<rect x="582" y="380.8" transform="matrix(-0.7071 -0.7071 0.7071 -0.7071 1168.1121 1246.2306)" fill="#2B5166" width="520.4" height="0.7"/>
			
				<rect x="584.6" y="378.2" transform="matrix(-0.7071 -0.7071 0.7071 -0.7071 1174.4403 1243.4924)" fill="#2B5166" width="520.4" height="0.7"/>
			
				<rect x="587.2" y="375.6" transform="matrix(-0.7071 -0.7071 0.7071 -0.7071 1180.6526 1241.033)" fill="#2B5166" width="520.4" height="0.7"/>
			
				<rect x="589.8" y="373" transform="matrix(-0.7071 -0.7071 0.7071 -0.7071 1186.9808 1238.295)" fill="#2B5166" width="520.4" height="0.7"/>
			
				<rect x="592.4" y="370.5" transform="matrix(-0.7071 -0.7071 0.7071 -0.7071 1193.1935 1235.8353)" fill="#2B5166" width="520.4" height="0.7"/>
			
				<rect x="595" y="367.8" transform="matrix(-0.7071 -0.7071 0.7071 -0.7071 1199.5215 1233.0974)" fill="#2B5166" width="520.4" height="0.7"/>
			
				<rect x="597.6" y="365.3" transform="matrix(-0.7071 -0.7071 0.7071 -0.7071 1205.734 1230.6381)" fill="#2B5166" width="520.4" height="0.7"/>
			
				<rect x="672.6" y="435.3" transform="matrix(-0.7071 -0.7071 0.7071 -0.7071 1284.3536 1403.3845)" fill="#2B5166" width="520.4" height="0.7"/>
			
				<rect x="675.2" y="432.7" transform="matrix(-0.7071 -0.7071 0.7071 -0.7071 1290.4846 1400.7281)" fill="#2B5166" width="520.4" height="0.7"/>
			
				<rect x="677.8" y="430.2" transform="matrix(-0.7071 -0.7071 0.7071 -0.7071 1296.8942 1398.187)" fill="#2B5166" width="520.4" height="0.7"/>
			
				<rect x="680.3" y="427.6" transform="matrix(-0.7071 -0.7071 0.7071 -0.7071 1303.0253 1395.5308)" fill="#2B5166" width="520.4" height="0.7"/>
			
				<rect x="683" y="425" transform="matrix(-0.7071 -0.7071 0.7071 -0.7071 1309.4349 1392.9897)" fill="#2B5166" width="520.4" height="0.7"/>
			
				<rect x="685.5" y="422.4" transform="matrix(-0.7071 -0.7071 0.7071 -0.7071 1315.5657 1390.3334)" fill="#2B5166" width="520.4" height="0.7"/>
			
				<rect x="688.2" y="419.8" transform="matrix(-0.7071 -0.7071 0.7071 -0.7071 1321.9756 1387.7921)" fill="#2B5166" width="520.4" height="0.7"/>
			
				<rect x="690.7" y="417.2" transform="matrix(-0.7071 -0.7071 0.7071 -0.7071 1328.1063 1385.1357)" fill="#2B5166" width="520.4" height="0.7"/>
			
				<rect x="693.4" y="414.6" transform="matrix(-0.7071 -0.7071 0.7071 -0.7071 1334.5161 1382.5947)" fill="#2B5166" width="520.4" height="0.7"/>
			
				<rect x="695.9" y="412" transform="matrix(-0.7071 -0.7071 0.7071 -0.7071 1340.6472 1379.9382)" fill="#2B5166" width="520.4" height="0.7"/>
			
				<rect x="698.6" y="409.4" transform="matrix(-0.7071 -0.7071 0.7071 -0.7071 1347.0566 1377.3971)" fill="#2B5166" width="520.4" height="0.7"/>
			
				<rect x="701.1" y="406.8" transform="matrix(-0.7071 -0.7071 0.7071 -0.7071 1353.1877 1374.7407)" fill="#2B5166" width="520.4" height="0.7"/>
			
				<rect x="703.8" y="404.2" transform="matrix(-0.7071 -0.7071 0.7071 -0.7071 1359.5974 1372.1996)" fill="#2B5166" width="520.4" height="0.7"/>
			
				<rect x="706.3" y="401.6" transform="matrix(-0.7071 -0.7071 0.7071 -0.7071 1365.7283 1369.5432)" fill="#2B5166" width="520.4" height="0.7"/>
			
				<rect x="709" y="399" transform="matrix(-0.7071 -0.7071 0.7071 -0.7071 1372.1381 1367.0022)" fill="#2B5166" width="520.4" height="0.7"/>
			
				<rect x="711.5" y="396.4" transform="matrix(-0.7071 -0.7071 0.7071 -0.7071 1378.269 1364.3457)" fill="#2B5166" width="520.4" height="0.7"/>
			
				<rect x="714.2" y="393.8" transform="matrix(-0.7071 -0.7071 0.7071 -0.7071 1384.6786 1361.8046)" fill="#2B5166" width="520.4" height="0.7"/>
			
				<rect x="716.7" y="391.2" transform="matrix(-0.7071 -0.7071 0.7071 -0.7071 1390.8096 1359.1482)" fill="#2B5166" width="520.4" height="0.7"/>
			
				<rect x="719.4" y="388.6" transform="matrix(-0.7071 -0.7071 0.7071 -0.7071 1397.2194 1356.6071)" fill="#2B5166" width="520.4" height="0.7"/>
			
				<rect x="721.9" y="386" transform="matrix(-0.7071 -0.7071 0.7071 -0.7071 1403.3503 1353.9508)" fill="#2B5166" width="520.4" height="0.7"/>
			
				<rect x="724.6" y="383.4" transform="matrix(-0.7071 -0.7071 0.7071 -0.7071 1409.7599 1351.4097)" fill="#2B5166" width="520.4" height="0.7"/>
			
				<rect x="727.1" y="380.8" transform="matrix(-0.7071 -0.7071 0.7071 -0.7071 1415.891 1348.7532)" fill="#2B5166" width="520.4" height="0.7"/>
			
				<rect x="729.8" y="378.2" transform="matrix(-0.7071 -0.7071 0.7071 -0.7071 1422.3005 1346.212)" fill="#2B5166" width="520.4" height="0.7"/>
			
				<rect x="732.3" y="375.6" transform="matrix(-0.7071 -0.7071 0.7071 -0.7071 1428.4315 1343.5557)" fill="#2B5166" width="520.4" height="0.7"/>
			
				<rect x="735" y="373" transform="matrix(-0.7071 -0.7071 0.7071 -0.7071 1434.8413 1341.0144)" fill="#2B5166" width="520.4" height="0.7"/>
			
				<rect x="737.5" y="370.4" transform="matrix(-0.7071 -0.7071 0.7071 -0.7071 1440.9722 1338.3582)" fill="#2B5166" width="520.4" height="0.7"/>
			
				<rect x="740.2" y="367.8" transform="matrix(-0.7071 -0.7071 0.7071 -0.7071 1447.3818 1335.8171)" fill="#2B5166" width="520.4" height="0.7"/>
			
				<rect x="742.7" y="365.2" transform="matrix(-0.7071 -0.7071 0.7071 -0.7071 1453.5129 1333.1605)" fill="#2B5166" width="520.4" height="0.7"/>
			
				<rect x="817.8" y="435.3" transform="matrix(-0.7071 -0.7071 0.7071 -0.7071 1532.1323 1505.9075)" fill="#2B5166" width="520.4" height="0.7"/>
			
				<rect x="820.4" y="432.8" transform="matrix(-0.7071 -0.7071 0.7071 -0.7071 1538.3452 1503.4479)" fill="#2B5166" width="520.4" height="0.7"/>
			
				<rect x="823" y="430.1" transform="matrix(-0.7071 -0.7071 0.7071 -0.7071 1544.6732 1500.7098)" fill="#2B5166" width="520.4" height="0.7"/>
			
				<rect x="825.6" y="427.6" transform="matrix(-0.7071 -0.7071 0.7071 -0.7071 1550.8857 1498.2505)" fill="#2B5166" width="520.4" height="0.7"/>
			
				<rect x="828.2" y="424.9" transform="matrix(-0.7071 -0.7071 0.7071 -0.7071 1557.2137 1495.5125)" fill="#2B5166" width="520.4" height="0.7"/>
			
				<rect x="830.7" y="422.4" transform="matrix(-0.7071 -0.7071 0.7071 -0.7071 1563.4264 1493.0529)" fill="#2B5166" width="520.4" height="0.7"/>
			
				<rect x="833.3" y="419.7" transform="matrix(-0.7071 -0.7071 0.7071 -0.7071 1569.7545 1490.3149)" fill="#2B5166" width="520.4" height="0.7"/>
			
				<rect x="835.9" y="417.2" transform="matrix(-0.7071 -0.7071 0.7071 -0.7071 1575.9669 1487.8555)" fill="#2B5166" width="520.4" height="0.7"/>
			
				<rect x="838.5" y="414.5" transform="matrix(-0.7071 -0.7071 0.7071 -0.7071 1582.2952 1485.1173)" fill="#2B5166" width="520.4" height="0.7"/>
			
				<rect x="841.1" y="412" transform="matrix(-0.7071 -0.7071 0.7071 -0.7071 1588.5076 1482.6578)" fill="#2B5166" width="520.4" height="0.7"/>
			
				<rect x="843.7" y="409.3" transform="matrix(-0.7071 -0.7071 0.7071 -0.7071 1594.8357 1479.92)" fill="#2B5166" width="520.4" height="0.7"/>
			
				<rect x="846.3" y="406.8" transform="matrix(-0.7071 -0.7071 0.7071 -0.7071 1601.0483 1477.4603)" fill="#2B5166" width="520.4" height="0.7"/>
			
				<rect x="848.9" y="404.1" transform="matrix(-0.7071 -0.7071 0.7071 -0.7071 1607.3763 1474.7224)" fill="#2B5166" width="520.4" height="0.7"/>
			
				<rect x="851.5" y="401.6" transform="matrix(-0.7071 -0.7071 0.7071 -0.7071 1613.5891 1472.2631)" fill="#2B5166" width="520.4" height="0.7"/>
			
				<rect x="854.1" y="398.9" transform="matrix(-0.7071 -0.7071 0.7071 -0.7071 1619.9169 1469.5248)" fill="#2B5166" width="520.4" height="0.7"/>
			
				<rect x="856.7" y="396.4" transform="matrix(-0.7071 -0.7071 0.7071 -0.7071 1626.1296 1467.0656)" fill="#2B5166" width="520.4" height="0.7"/>
			
				<rect x="859.3" y="393.7" transform="matrix(-0.7071 -0.7071 0.7071 -0.7071 1632.4576 1464.3274)" fill="#2B5166" width="520.4" height="0.7"/>
			
				<rect x="861.9" y="391.2" transform="matrix(-0.7071 -0.7071 0.7071 -0.7071 1638.6704 1461.868)" fill="#2B5166" width="520.4" height="0.7"/>
			
				<rect x="864.6" y="388.6" transform="matrix(-0.7071 -0.7071 0.7071 -0.7071 1645.0798 1459.3267)" fill="#2B5166" width="520.4" height="0.7"/>
			
				<rect x="867.1" y="386" transform="matrix(-0.7071 -0.7071 0.7071 -0.7071 1651.2108 1456.6705)" fill="#2B5166" width="520.4" height="0.7"/>
			
				<rect x="869.8" y="383.4" transform="matrix(-0.7071 -0.7071 0.7071 -0.7071 1657.6204 1454.1293)" fill="#2B5166" width="520.4" height="0.7"/>
			
				<rect x="872.3" y="380.8" transform="matrix(-0.7071 -0.7071 0.7071 -0.7071 1663.7516 1451.473)" fill="#2B5166" width="520.4" height="0.7"/>
			
				<rect x="875" y="378.2" transform="matrix(-0.7071 -0.7071 0.7071 -0.7071 1670.161 1448.9316)" fill="#2B5166" width="520.4" height="0.7"/>
			
				<rect x="877.5" y="375.6" transform="matrix(-0.7071 -0.7071 0.7071 -0.7071 1676.2921 1446.2755)" fill="#2B5166" width="520.4" height="0.7"/>
			
				<rect x="880.2" y="373" transform="matrix(-0.7071 -0.7071 0.7071 -0.7071 1682.7017 1443.7344)" fill="#2B5166" width="520.4" height="0.7"/>
			
				<rect x="882.7" y="370.4" transform="matrix(-0.7071 -0.7071 0.7071 -0.7071 1688.8328 1441.078)" fill="#2B5166" width="520.4" height="0.7"/>
			
				<rect x="885.4" y="367.8" transform="matrix(-0.7071 -0.7071 0.7071 -0.7071 1695.2423 1438.5367)" fill="#2B5166" width="520.4" height="0.7"/>
			
				<rect x="887.9" y="365.2" transform="matrix(-0.7071 -0.7071 0.7071 -0.7071 1701.3733 1435.8806)" fill="#2B5166" width="520.4" height="0.7"/>
			
				<rect x="963" y="435.3" transform="matrix(-0.7071 -0.7071 0.7071 -0.7071 1779.9932 1608.6271)" fill="#2B5166" width="520.4" height="0.7"/>
			
				<rect x="965.6" y="432.8" transform="matrix(-0.7071 -0.7071 0.7071 -0.7071 1786.2053 1606.1675)" fill="#2B5166" width="520.4" height="0.7"/>
			
				<rect x="968.2" y="430.1" transform="matrix(-0.7071 -0.7071 0.7071 -0.7071 1792.5337 1603.4298)" fill="#2B5166" width="520.4" height="0.7"/>
			
				<rect x="970.8" y="427.6" transform="matrix(-0.7071 -0.7071 0.7071 -0.7071 1798.746 1600.9697)" fill="#2B5166" width="520.4" height="0.7"/>
			
				<rect x="973.4" y="424.9" transform="matrix(-0.7071 -0.7071 0.7071 -0.7071 1805.0743 1598.2321)" fill="#2B5166" width="520.4" height="0.7"/>
			
				<rect x="976" y="422.4" transform="matrix(-0.7071 -0.7071 0.7071 -0.7071 1811.2867 1595.7726)" fill="#2B5166" width="520.4" height="0.7"/>
			
				<rect x="978.5" y="419.7" transform="matrix(-0.7071 -0.7071 0.7071 -0.7071 1817.6149 1593.0348)" fill="#2B5166" width="520.4" height="0.7"/>
			
				<rect x="981.1" y="417.2" transform="matrix(-0.7071 -0.7071 0.7071 -0.7071 1823.8274 1590.5748)" fill="#2B5166" width="520.4" height="0.7"/>
			
				<rect x="983.7" y="414.5" transform="matrix(-0.7071 -0.7071 0.7071 -0.7071 1830.1554 1587.8372)" fill="#2B5166" width="520.4" height="0.7"/>
			
				<rect x="986.3" y="412" transform="matrix(-0.7071 -0.7071 0.7071 -0.7071 1836.3678 1585.3776)" fill="#2B5166" width="520.4" height="0.7"/>
			
				<rect x="988.9" y="409.3" transform="matrix(-0.7071 -0.7071 0.7071 -0.7071 1842.6963 1582.6396)" fill="#2B5166" width="520.4" height="0.7"/>
			
				<rect x="991.5" y="406.8" transform="matrix(-0.7071 -0.7071 0.7071 -0.7071 1848.9089 1580.1801)" fill="#2B5166" width="520.4" height="0.7"/>
			
				<rect x="994.1" y="404.1" transform="matrix(-0.7071 -0.7071 0.7071 -0.7071 1855.2368 1577.4423)" fill="#2B5166" width="520.4" height="0.7"/>
			
				<rect x="996.7" y="401.6" transform="matrix(-0.7071 -0.7071 0.7071 -0.7071 1861.4493 1574.9827)" fill="#2B5166" width="520.4" height="0.7"/>
			
				<rect x="999.3" y="398.9" transform="matrix(-0.7071 -0.7071 0.7071 -0.7071 1867.7775 1572.2445)" fill="#2B5166" width="520.4" height="0.7"/>
			
				<rect x="1001.9" y="396.4" transform="matrix(-0.7071 -0.7071 0.7071 -0.7071 1873.9901 1569.785)" fill="#2B5166" width="520.4" height="0.7"/>
			
				<rect x="1004.5" y="393.8" transform="matrix(-0.7071 -0.7071 0.7071 -0.7071 1880.3181 1567.0472)" fill="#2B5166" width="520.4" height="0.7"/>
			
				<rect x="1007.1" y="391.2" transform="matrix(-0.7071 -0.7071 0.7071 -0.7071 1886.5305 1564.5876)" fill="#2B5166" width="520.4" height="0.7"/>
			
				<rect x="1009.7" y="388.6" transform="matrix(-0.7071 -0.7071 0.7071 -0.7071 1892.8588 1561.8496)" fill="#2B5166" width="520.4" height="0.7"/>
			
				<rect x="1012.3" y="386" transform="matrix(-0.7071 -0.7071 0.7071 -0.7071 1899.0712 1559.39)" fill="#2B5166" width="520.4" height="0.7"/>
			
				<rect x="1014.9" y="383.4" transform="matrix(-0.7071 -0.7071 0.7071 -0.7071 1905.3993 1556.6523)" fill="#2B5166" width="520.4" height="0.7"/>
			
				<rect x="1017.5" y="380.8" transform="matrix(-0.7071 -0.7071 0.7071 -0.7071 1911.6117 1554.1926)" fill="#2B5166" width="520.4" height="0.7"/>
			
				<rect x="1020.1" y="378.2" transform="matrix(-0.7071 -0.7071 0.7071 -0.7071 1917.9399 1551.4546)" fill="#2B5166" width="520.4" height="0.7"/>
			
				<rect x="1022.7" y="375.6" transform="matrix(-0.7071 -0.7071 0.7071 -0.7071 1924.1526 1548.9951)" fill="#2B5166" width="520.4" height="0.7"/>
			
				<rect x="1025.3" y="373" transform="matrix(-0.7071 -0.7071 0.7071 -0.7071 1930.4805 1546.2573)" fill="#2B5166" width="520.4" height="0.7"/>
			
				<rect x="1027.9" y="370.5" transform="matrix(-0.7071 -0.7071 0.7071 -0.7071 1936.6931 1543.7975)" fill="#2B5166" width="520.4" height="0.7"/>
			
				<rect x="1030.5" y="367.8" transform="matrix(-0.7071 -0.7071 0.7071 -0.7071 1943.0212 1541.0597)" fill="#2B5166" width="520.4" height="0.7"/>
			
				<rect x="1033.1" y="365.3" transform="matrix(-0.7071 -0.7071 0.7071 -0.7071 1949.2336 1538.6001)" fill="#2B5166" width="520.4" height="0.7"/>
			
				<rect x="1108.2" y="435.3" transform="matrix(-0.7071 -0.7071 0.7071 -0.7071 2027.8533 1711.3466)" fill="#2B5166" width="520.4" height="0.7"/>
			
				<rect x="1110.7" y="432.7" transform="matrix(-0.7071 -0.7071 0.7071 -0.7071 2033.9845 1708.6906)" fill="#2B5166" width="520.4" height="0.7"/>
			
				<rect x="1113.4" y="430.1" transform="matrix(-0.7071 -0.7071 0.7071 -0.7071 2040.3942 1706.149)" fill="#2B5166" width="520.4" height="0.7"/>
			
				<rect x="1115.9" y="427.6" transform="matrix(-0.7071 -0.7071 0.7071 -0.7071 2046.5251 1703.4929)" fill="#2B5166" width="520.4" height="0.7"/>
			
				<rect x="1118.6" y="425" transform="matrix(-0.7071 -0.7071 0.7071 -0.7071 2052.9346 1700.9517)" fill="#2B5166" width="520.4" height="0.7"/>
			
				<rect x="1121.1" y="422.4" transform="matrix(-0.7071 -0.7071 0.7071 -0.7071 2059.0657 1698.2954)" fill="#2B5166" width="520.4" height="0.7"/>
			
				<rect x="1123.8" y="419.8" transform="matrix(-0.7071 -0.7071 0.7071 -0.7071 2065.4753 1695.754)" fill="#2B5166" width="520.4" height="0.7"/>
			
				<rect x="1126.3" y="417.2" transform="matrix(-0.7071 -0.7071 0.7071 -0.7071 2071.6062 1693.0979)" fill="#2B5166" width="520.4" height="0.7"/>
			
				<rect x="1128.9" y="414.6" transform="matrix(-0.7071 -0.7071 0.7071 -0.7071 2078.0159 1690.5566)" fill="#2B5166" width="520.4" height="0.7"/>
			
				<rect x="1131.5" y="412" transform="matrix(-0.7071 -0.7071 0.7071 -0.7071 2084.147 1687.9001)" fill="#2B5166" width="520.4" height="0.7"/>
			
				<rect x="1134.1" y="409.4" transform="matrix(-0.7071 -0.7071 0.7071 -0.7071 2090.5564 1685.359)" fill="#2B5166" width="520.4" height="0.7"/>
			
				<rect x="1136.7" y="406.8" transform="matrix(-0.7071 -0.7071 0.7071 -0.7071 2096.6877 1682.703)" fill="#2B5166" width="520.4" height="0.7"/>
			
				<rect x="1139.3" y="404.2" transform="matrix(-0.7071 -0.7071 0.7071 -0.7071 2103.0972 1680.1617)" fill="#2B5166" width="520.4" height="0.7"/>
			
				<rect x="1141.9" y="401.6" transform="matrix(-0.7071 -0.7071 0.7071 -0.7071 2109.2283 1677.5055)" fill="#2B5166" width="520.4" height="0.7"/>
			
				<rect x="1144.5" y="399" transform="matrix(-0.7071 -0.7071 0.7071 -0.7071 2115.6379 1674.964)" fill="#2B5166" width="520.4" height="0.7"/>
			
				<rect x="1147" y="396.4" transform="matrix(-0.7071 -0.7071 0.7071 -0.7071 2121.769 1672.308)" fill="#2B5166" width="520.4" height="0.7"/>
			
				<rect x="1149.7" y="393.8" transform="matrix(-0.7071 -0.7071 0.7071 -0.7071 2128.1785 1669.7666)" fill="#2B5166" width="520.4" height="0.7"/>
			
				<rect x="1152.2" y="391.2" transform="matrix(-0.7071 -0.7071 0.7071 -0.7071 2134.3096 1667.1105)" fill="#2B5166" width="520.4" height="0.7"/>
			
				<rect x="1154.9" y="388.6" transform="matrix(-0.7071 -0.7071 0.7071 -0.7071 2140.719 1664.5691)" fill="#2B5166" width="520.4" height="0.7"/>
			
				<rect x="1157.4" y="386" transform="matrix(-0.7071 -0.7071 0.7071 -0.7071 2146.8501 1661.913)" fill="#2B5166" width="520.4" height="0.7"/>
			
				<rect x="1160.1" y="383.4" transform="matrix(-0.7071 -0.7071 0.7071 -0.7071 2153.2598 1659.3717)" fill="#2B5166" width="520.4" height="0.7"/>
			
				<rect x="1162.6" y="380.8" transform="matrix(-0.7071 -0.7071 0.7071 -0.7071 2159.3909 1656.7153)" fill="#2B5166" width="520.4" height="0.7"/>
			
				<rect x="1165.3" y="378.2" transform="matrix(-0.7071 -0.7071 0.7071 -0.7071 2165.8003 1654.1741)" fill="#2B5166" width="520.4" height="0.7"/>
			
				<rect x="1167.8" y="375.6" transform="matrix(-0.7071 -0.7071 0.7071 -0.7071 2171.9314 1651.5178)" fill="#2B5166" width="520.4" height="0.7"/>
			
				<rect x="1170.5" y="373" transform="matrix(-0.7071 -0.7071 0.7071 -0.7071 2178.3408 1648.9766)" fill="#2B5166" width="520.4" height="0.7"/>
			
				<rect x="1173" y="370.4" transform="matrix(-0.7071 -0.7071 0.7071 -0.7071 2184.4719 1646.3204)" fill="#2B5166" width="520.4" height="0.7"/>
			
				<rect x="1175.7" y="367.8" transform="matrix(-0.7071 -0.7071 0.7071 -0.7071 2190.8821 1643.7791)" fill="#2B5166" width="520.4" height="0.7"/>
			
				<rect x="1178.2" y="365.2" transform="matrix(-0.7071 -0.7071 0.7071 -0.7071 2197.0127 1641.1228)" fill="#2B5166" width="520.4" height="0.7"/>
			
				<rect x="1253.3" y="435.3" transform="matrix(-0.7071 -0.7071 0.7071 -0.7071 2275.6326 1813.8695)" fill="#2B5166" width="520.4" height="0.7"/>
			
				<rect x="1255.9" y="432.8" transform="matrix(-0.7071 -0.7071 0.7071 -0.7071 2281.845 1811.4098)" fill="#2B5166" width="520.4" height="0.7"/>
			
				<rect x="1258.5" y="430.1" transform="matrix(-0.7071 -0.7071 0.7071 -0.7071 2288.1731 1808.672)" fill="#2B5166" width="520.4" height="0.7"/>
			
				<rect x="1261.1" y="427.6" transform="matrix(-0.7071 -0.7071 0.7071 -0.7071 2294.3855 1806.2124)" fill="#2B5166" width="520.4" height="0.7"/>
			
				<rect x="1263.7" y="424.9" transform="matrix(-0.7071 -0.7071 0.7071 -0.7071 2300.7134 1803.4745)" fill="#2B5166" width="520.4" height="0.7"/>
			
				<rect x="1266.3" y="422.4" transform="matrix(-0.7071 -0.7071 0.7071 -0.7071 2306.926 1801.015)" fill="#2B5166" width="520.4" height="0.7"/>
			
				<rect x="1268.9" y="419.7" transform="matrix(-0.7071 -0.7071 0.7071 -0.7071 2313.2544 1798.2769)" fill="#2B5166" width="520.4" height="0.7"/>
			
				<rect x="1271.5" y="417.2" transform="matrix(-0.7071 -0.7071 0.7071 -0.7071 2319.467 1795.8174)" fill="#2B5166" width="520.4" height="0.7"/>
			
				<rect x="1274.1" y="414.5" transform="matrix(-0.7071 -0.7071 0.7071 -0.7071 2325.7949 1793.0795)" fill="#2B5166" width="520.4" height="0.7"/>
		</g>
	</g>
</g>
</svg>
