<?xml version="1.0" encoding="utf-8"?>
<!-- Generator: Adobe Illustrator 18.1.1, SVG Export Plug-In . SVG Version: 6.00 Build 0)  -->
<!DOCTYPE svg PUBLIC "-//W3C//DTD SVG 1.1//EN" "http://www.w3.org/Graphics/SVG/1.1/DTD/svg11.dtd">
<svg version="1.1" id="Layer_1" xmlns="http://www.w3.org/2000/svg" xmlns:xlink="http://www.w3.org/1999/xlink" x="0px" y="0px"
	 viewBox="-13 -170 200 800" enable-background="new -13 -170 200 800" xml:space="preserve">
<g>
	<defs>
		<rect id="SVGID_1_" x="-67.9" y="-389.5" width="309.8" height="1239.1"/>
	</defs>
	<clipPath id="SVGID_2_">
		<use xlink:href="#SVGID_1_"  overflow="visible"/>
	</clipPath>
	
		<line clip-path="url(#SVGID_2_)" fill="none" stroke="#2B5166" stroke-miterlimit="10" x1="71.1" y1="1101.6" x2="-1047.9" y2="-17.4"/>
	
		<line clip-path="url(#SVGID_2_)" fill="none" stroke="#2B5166" stroke-miterlimit="10" x1="73.8" y1="1098.9" x2="-1045.2" y2="-20.1"/>
	
		<line clip-path="url(#SVGID_2_)" fill="none" stroke="#2B5166" stroke-miterlimit="10" x1="76.5" y1="1096.2" x2="-1042.4" y2="-22.8"/>
	
		<line clip-path="url(#SVGID_2_)" fill="none" stroke="#2B5166" stroke-miterlimit="10" x1="79.2" y1="1093.4" x2="-1039.7" y2="-25.5"/>
	
		<line clip-path="url(#SVGID_2_)" fill="none" stroke="#2B5166" stroke-miterlimit="10" x1="81.9" y1="1090.7" x2="-1037" y2="-28.2"/>
	
		<line clip-path="url(#SVGID_2_)" fill="none" stroke="#2B5166" stroke-miterlimit="10" x1="84.7" y1="1088" x2="-1034.3" y2="-31"/>
	
		<line clip-path="url(#SVGID_2_)" fill="none" stroke="#2B5166" stroke-miterlimit="10" x1="87.4" y1="1085.3" x2="-1031.6" y2="-33.7"/>
	
		<line clip-path="url(#SVGID_2_)" fill="none" stroke="#2B5166" stroke-miterlimit="10" x1="90.1" y1="1082.6" x2="-1028.9" y2="-36.4"/>
	
		<line clip-path="url(#SVGID_2_)" fill="none" stroke="#2B5166" stroke-miterlimit="10" x1="92.8" y1="1079.9" x2="-1026.2" y2="-39.1"/>
	
		<line clip-path="url(#SVGID_2_)" fill="none" stroke="#2B5166" stroke-miterlimit="10" x1="95.5" y1="1077.2" x2="-1023.5" y2="-41.8"/>
	
		<line clip-path="url(#SVGID_2_)" fill="none" stroke="#2B5166" stroke-miterlimit="10" x1="98.2" y1="1074.5" x2="-1020.8" y2="-44.5"/>
	
		<line clip-path="url(#SVGID_2_)" fill="none" stroke="#2B5166" stroke-miterlimit="10" x1="100.9" y1="1071.8" x2="-1018.1" y2="-47.2"/>
	
		<line clip-path="url(#SVGID_2_)" fill="none" stroke="#2B5166" stroke-miterlimit="10" x1="103.6" y1="1069.1" x2="-1015.3" y2="-49.9"/>
	
		<line clip-path="url(#SVGID_2_)" fill="none" stroke="#2B5166" stroke-miterlimit="10" x1="106.3" y1="1066.3" x2="-1012.6" y2="-52.6"/>
	
		<line clip-path="url(#SVGID_2_)" fill="none" stroke="#2B5166" stroke-miterlimit="10" x1="109.1" y1="1063.6" x2="-1009.9" y2="-55.3"/>
	
		<line clip-path="url(#SVGID_2_)" fill="none" stroke="#2B5166" stroke-miterlimit="10" x1="111.8" y1="1060.9" x2="-1007.2" y2="-58.1"/>
	
		<line clip-path="url(#SVGID_2_)" fill="none" stroke="#2B5166" stroke-miterlimit="10" x1="114.5" y1="1058.2" x2="-1004.5" y2="-60.8"/>
	
		<line clip-path="url(#SVGID_2_)" fill="none" stroke="#2B5166" stroke-miterlimit="10" x1="117.2" y1="1055.5" x2="-1001.8" y2="-63.5"/>
	
		<line clip-path="url(#SVGID_2_)" fill="none" stroke="#2B5166" stroke-miterlimit="10" x1="119.9" y1="1052.8" x2="-999.1" y2="-66.2"/>
	
		<line clip-path="url(#SVGID_2_)" fill="none" stroke="#2B5166" stroke-miterlimit="10" x1="122.6" y1="1050.1" x2="-996.4" y2="-68.9"/>
	
		<line clip-path="url(#SVGID_2_)" fill="none" stroke="#2B5166" stroke-miterlimit="10" x1="125.3" y1="1047.4" x2="-993.7" y2="-71.6"/>
	
		<line clip-path="url(#SVGID_2_)" fill="none" stroke="#2B5166" stroke-miterlimit="10" x1="128" y1="1044.7" x2="-990.9" y2="-74.3"/>
	
		<line clip-path="url(#SVGID_2_)" fill="none" stroke="#2B5166" stroke-miterlimit="10" x1="130.7" y1="1041.9" x2="-988.2" y2="-77"/>
	
		<line clip-path="url(#SVGID_2_)" fill="none" stroke="#2B5166" stroke-miterlimit="10" x1="133.4" y1="1039.2" x2="-985.5" y2="-79.7"/>
	
		<line clip-path="url(#SVGID_2_)" fill="none" stroke="#2B5166" stroke-miterlimit="10" x1="136.2" y1="1036.5" x2="-982.8" y2="-82.4"/>
	
		<line clip-path="url(#SVGID_2_)" fill="none" stroke="#2B5166" stroke-miterlimit="10" x1="138.9" y1="1033.8" x2="-980.1" y2="-85.2"/>
	
		<line clip-path="url(#SVGID_2_)" fill="none" stroke="#2B5166" stroke-miterlimit="10" x1="141.6" y1="1031.1" x2="-977.4" y2="-87.9"/>
	
		<line clip-path="url(#SVGID_2_)" fill="none" stroke="#2B5166" stroke-miterlimit="10" x1="144.3" y1="1028.4" x2="-974.7" y2="-90.6"/>
	
		<line clip-path="url(#SVGID_2_)" fill="none" stroke="#2B5166" stroke-miterlimit="10" x1="147" y1="1025.7" x2="-972" y2="-93.3"/>
	
		<line clip-path="url(#SVGID_2_)" fill="none" stroke="#2B5166" stroke-miterlimit="10" x1="149.7" y1="1023" x2="-969.3" y2="-96"/>
	
		<line clip-path="url(#SVGID_2_)" fill="none" stroke="#2B5166" stroke-miterlimit="10" x1="152.4" y1="1020.3" x2="-966.6" y2="-98.7"/>
	
		<line clip-path="url(#SVGID_2_)" fill="none" stroke="#2B5166" stroke-miterlimit="10" x1="155.1" y1="1017.6" x2="-963.8" y2="-101.4"/>
	
		<line clip-path="url(#SVGID_2_)" fill="none" stroke="#2B5166" stroke-miterlimit="10" x1="157.8" y1="1014.8" x2="-961.1" y2="-104.1"/>
	
		<line clip-path="url(#SVGID_2_)" fill="none" stroke="#2B5166" stroke-miterlimit="10" x1="160.6" y1="1012.1" x2="-958.4" y2="-106.8"/>
	
		<line clip-path="url(#SVGID_2_)" fill="none" stroke="#2B5166" stroke-miterlimit="10" x1="163.3" y1="1009.4" x2="-955.7" y2="-109.6"/>
	
		<line clip-path="url(#SVGID_2_)" fill="none" stroke="#2B5166" stroke-miterlimit="10" x1="166" y1="1006.7" x2="-953" y2="-112.3"/>
	
		<line clip-path="url(#SVGID_2_)" fill="none" stroke="#2B5166" stroke-miterlimit="10" x1="168.7" y1="1004" x2="-950.3" y2="-115"/>
	
		<line clip-path="url(#SVGID_2_)" fill="none" stroke="#2B5166" stroke-miterlimit="10" x1="171.4" y1="1001.3" x2="-947.6" y2="-117.7"/>
	
		<line clip-path="url(#SVGID_2_)" fill="none" stroke="#2B5166" stroke-miterlimit="10" x1="174.1" y1="998.6" x2="-944.9" y2="-120.4"/>
	
		<line clip-path="url(#SVGID_2_)" fill="none" stroke="#2B5166" stroke-miterlimit="10" x1="176.8" y1="995.9" x2="-942.2" y2="-123.1"/>
	
		<line clip-path="url(#SVGID_2_)" fill="none" stroke="#2B5166" stroke-miterlimit="10" x1="179.5" y1="993.2" x2="-939.5" y2="-125.8"/>
	
		<line clip-path="url(#SVGID_2_)" fill="none" stroke="#2B5166" stroke-miterlimit="10" x1="182.2" y1="990.4" x2="-936.7" y2="-128.5"/>
	
		<line clip-path="url(#SVGID_2_)" fill="none" stroke="#2B5166" stroke-miterlimit="10" x1="184.9" y1="987.7" x2="-934" y2="-131.2"/>
	
		<line clip-path="url(#SVGID_2_)" fill="none" stroke="#2B5166" stroke-miterlimit="10" x1="187.7" y1="985" x2="-931.3" y2="-133.9"/>
	
		<line clip-path="url(#SVGID_2_)" fill="none" stroke="#2B5166" stroke-miterlimit="10" x1="190.4" y1="982.3" x2="-928.6" y2="-136.7"/>
	
		<line clip-path="url(#SVGID_2_)" fill="none" stroke="#2B5166" stroke-miterlimit="10" x1="193.1" y1="979.6" x2="-925.9" y2="-139.4"/>
	
		<line clip-path="url(#SVGID_2_)" fill="none" stroke="#2B5166" stroke-miterlimit="10" x1="195.8" y1="976.9" x2="-923.2" y2="-142.1"/>
	
		<line clip-path="url(#SVGID_2_)" fill="none" stroke="#2B5166" stroke-miterlimit="10" x1="198.5" y1="974.2" x2="-920.5" y2="-144.8"/>
	
		<line clip-path="url(#SVGID_2_)" fill="none" stroke="#2B5166" stroke-miterlimit="10" x1="201.2" y1="971.5" x2="-917.8" y2="-147.5"/>
	
		<line clip-path="url(#SVGID_2_)" fill="none" stroke="#2B5166" stroke-miterlimit="10" x1="203.9" y1="968.8" x2="-915.1" y2="-150.2"/>
	
		<line clip-path="url(#SVGID_2_)" fill="none" stroke="#2B5166" stroke-miterlimit="10" x1="206.6" y1="966.1" x2="-912.3" y2="-152.9"/>
	
		<line clip-path="url(#SVGID_2_)" fill="none" stroke="#2B5166" stroke-miterlimit="10" x1="209.3" y1="963.3" x2="-909.6" y2="-155.6"/>
	
		<line clip-path="url(#SVGID_2_)" fill="none" stroke="#2B5166" stroke-miterlimit="10" x1="212.1" y1="960.6" x2="-906.9" y2="-158.3"/>
	
		<line clip-path="url(#SVGID_2_)" fill="none" stroke="#2B5166" stroke-miterlimit="10" x1="214.8" y1="957.9" x2="-904.2" y2="-161.1"/>
	
		<line clip-path="url(#SVGID_2_)" fill="none" stroke="#2B5166" stroke-miterlimit="10" x1="217.5" y1="955.2" x2="-901.5" y2="-163.8"/>
	
		<line clip-path="url(#SVGID_2_)" fill="none" stroke="#2B5166" stroke-miterlimit="10" x1="220.2" y1="952.5" x2="-898.8" y2="-166.5"/>
	
		<line clip-path="url(#SVGID_2_)" fill="none" stroke="#2B5166" stroke-miterlimit="10" x1="222.9" y1="949.8" x2="-896.1" y2="-169.2"/>
	
		<line clip-path="url(#SVGID_2_)" fill="none" stroke="#2B5166" stroke-miterlimit="10" x1="225.6" y1="947.1" x2="-893.4" y2="-171.9"/>
	
		<line clip-path="url(#SVGID_2_)" fill="none" stroke="#2B5166" stroke-miterlimit="10" x1="228.3" y1="944.4" x2="-890.7" y2="-174.6"/>
	
		<line clip-path="url(#SVGID_2_)" fill="none" stroke="#2B5166" stroke-miterlimit="10" x1="231" y1="941.7" x2="-888" y2="-177.3"/>
	
		<line clip-path="url(#SVGID_2_)" fill="none" stroke="#2B5166" stroke-miterlimit="10" x1="233.7" y1="939" x2="-885.2" y2="-180"/>
	
		<line clip-path="url(#SVGID_2_)" fill="none" stroke="#2B5166" stroke-miterlimit="10" x1="236.4" y1="936.2" x2="-882.5" y2="-182.7"/>
	
		<line clip-path="url(#SVGID_2_)" fill="none" stroke="#2B5166" stroke-miterlimit="10" x1="239.2" y1="933.5" x2="-879.8" y2="-185.4"/>
	
		<line clip-path="url(#SVGID_2_)" fill="none" stroke="#2B5166" stroke-miterlimit="10" x1="241.9" y1="930.8" x2="-877.1" y2="-188.2"/>
	
		<line clip-path="url(#SVGID_2_)" fill="none" stroke="#2B5166" stroke-miterlimit="10" x1="244.6" y1="928.1" x2="-874.4" y2="-190.9"/>
	
		<line clip-path="url(#SVGID_2_)" fill="none" stroke="#2B5166" stroke-miterlimit="10" x1="247.3" y1="925.4" x2="-871.7" y2="-193.6"/>
	
		<line clip-path="url(#SVGID_2_)" fill="none" stroke="#2B5166" stroke-miterlimit="10" x1="250" y1="922.7" x2="-869" y2="-196.3"/>
	
		<line clip-path="url(#SVGID_2_)" fill="none" stroke="#2B5166" stroke-miterlimit="10" x1="252.7" y1="920" x2="-866.3" y2="-199"/>
	
		<line clip-path="url(#SVGID_2_)" fill="none" stroke="#2B5166" stroke-miterlimit="10" x1="255.4" y1="917.3" x2="-863.6" y2="-201.7"/>
	
		<line clip-path="url(#SVGID_2_)" fill="none" stroke="#2B5166" stroke-miterlimit="10" x1="258.1" y1="914.6" x2="-860.8" y2="-204.4"/>
	
		<line clip-path="url(#SVGID_2_)" fill="none" stroke="#2B5166" stroke-miterlimit="10" x1="260.8" y1="911.8" x2="-858.1" y2="-207.1"/>
	
		<line clip-path="url(#SVGID_2_)" fill="none" stroke="#2B5166" stroke-miterlimit="10" x1="263.5" y1="909.1" x2="-855.4" y2="-209.8"/>
	
		<line clip-path="url(#SVGID_2_)" fill="none" stroke="#2B5166" stroke-miterlimit="10" x1="266.3" y1="906.4" x2="-852.7" y2="-212.6"/>
	
		<line clip-path="url(#SVGID_2_)" fill="none" stroke="#2B5166" stroke-miterlimit="10" x1="269" y1="903.7" x2="-850" y2="-215.3"/>
	
		<line clip-path="url(#SVGID_2_)" fill="none" stroke="#2B5166" stroke-miterlimit="10" x1="271.7" y1="901" x2="-847.3" y2="-218"/>
	
		<line clip-path="url(#SVGID_2_)" fill="none" stroke="#2B5166" stroke-miterlimit="10" x1="274.4" y1="898.3" x2="-844.6" y2="-220.7"/>
	
		<line clip-path="url(#SVGID_2_)" fill="none" stroke="#2B5166" stroke-miterlimit="10" x1="277.1" y1="895.6" x2="-841.9" y2="-223.4"/>
	
		<line clip-path="url(#SVGID_2_)" fill="none" stroke="#2B5166" stroke-miterlimit="10" x1="279.8" y1="892.9" x2="-839.2" y2="-226.1"/>
	
		<line clip-path="url(#SVGID_2_)" fill="none" stroke="#2B5166" stroke-miterlimit="10" x1="282.5" y1="890.2" x2="-836.5" y2="-228.8"/>
	
		<line clip-path="url(#SVGID_2_)" fill="none" stroke="#2B5166" stroke-miterlimit="10" x1="285.2" y1="887.5" x2="-833.7" y2="-231.5"/>
	
		<line clip-path="url(#SVGID_2_)" fill="none" stroke="#2B5166" stroke-miterlimit="10" x1="287.9" y1="884.7" x2="-831" y2="-234.2"/>
	
		<line clip-path="url(#SVGID_2_)" fill="none" stroke="#2B5166" stroke-miterlimit="10" x1="290.7" y1="882" x2="-828.3" y2="-236.9"/>
	
		<line clip-path="url(#SVGID_2_)" fill="none" stroke="#2B5166" stroke-miterlimit="10" x1="293.4" y1="879.3" x2="-825.6" y2="-239.7"/>
	
		<line clip-path="url(#SVGID_2_)" fill="none" stroke="#2B5166" stroke-miterlimit="10" x1="296.1" y1="876.6" x2="-822.9" y2="-242.4"/>
	
		<line clip-path="url(#SVGID_2_)" fill="none" stroke="#2B5166" stroke-miterlimit="10" x1="298.8" y1="873.9" x2="-820.2" y2="-245.1"/>
	
		<line clip-path="url(#SVGID_2_)" fill="none" stroke="#2B5166" stroke-miterlimit="10" x1="301.5" y1="871.2" x2="-817.5" y2="-247.8"/>
	
		<line clip-path="url(#SVGID_2_)" fill="none" stroke="#2B5166" stroke-miterlimit="10" x1="304.2" y1="868.5" x2="-814.8" y2="-250.5"/>
	
		<line clip-path="url(#SVGID_2_)" fill="none" stroke="#2B5166" stroke-miterlimit="10" x1="306.9" y1="865.8" x2="-812.1" y2="-253.2"/>
	
		<line clip-path="url(#SVGID_2_)" fill="none" stroke="#2B5166" stroke-miterlimit="10" x1="309.6" y1="863.1" x2="-809.3" y2="-255.9"/>
	
		<line clip-path="url(#SVGID_2_)" fill="none" stroke="#2B5166" stroke-miterlimit="10" x1="312.3" y1="860.3" x2="-806.6" y2="-258.6"/>
	
		<line clip-path="url(#SVGID_2_)" fill="none" stroke="#2B5166" stroke-miterlimit="10" x1="315" y1="857.6" x2="-803.9" y2="-261.3"/>
	
		<line clip-path="url(#SVGID_2_)" fill="none" stroke="#2B5166" stroke-miterlimit="10" x1="317.8" y1="854.9" x2="-801.2" y2="-264.1"/>
	
		<line clip-path="url(#SVGID_2_)" fill="none" stroke="#2B5166" stroke-miterlimit="10" x1="320.5" y1="852.2" x2="-798.5" y2="-266.8"/>
	
		<line clip-path="url(#SVGID_2_)" fill="none" stroke="#2B5166" stroke-miterlimit="10" x1="323.2" y1="849.5" x2="-795.8" y2="-269.5"/>
	
		<line clip-path="url(#SVGID_2_)" fill="none" stroke="#2B5166" stroke-miterlimit="10" x1="325.9" y1="846.8" x2="-793.1" y2="-272.2"/>
	
		<line clip-path="url(#SVGID_2_)" fill="none" stroke="#2B5166" stroke-miterlimit="10" x1="328.6" y1="844.1" x2="-790.4" y2="-274.9"/>
	
		<line clip-path="url(#SVGID_2_)" fill="none" stroke="#2B5166" stroke-miterlimit="10" x1="331.3" y1="841.4" x2="-787.7" y2="-277.6"/>
	
		<line clip-path="url(#SVGID_2_)" fill="none" stroke="#2B5166" stroke-miterlimit="10" x1="334" y1="838.7" x2="-785" y2="-280.3"/>
	
		<line clip-path="url(#SVGID_2_)" fill="none" stroke="#2B5166" stroke-miterlimit="10" x1="336.7" y1="836" x2="-782.2" y2="-283"/>
	
		<line clip-path="url(#SVGID_2_)" fill="none" stroke="#2B5166" stroke-miterlimit="10" x1="339.4" y1="833.2" x2="-779.5" y2="-285.7"/>
	
		<line clip-path="url(#SVGID_2_)" fill="none" stroke="#2B5166" stroke-miterlimit="10" x1="342.2" y1="830.5" x2="-776.8" y2="-288.4"/>
	
		<line clip-path="url(#SVGID_2_)" fill="none" stroke="#2B5166" stroke-miterlimit="10" x1="344.9" y1="827.8" x2="-774.1" y2="-291.2"/>
	
		<line clip-path="url(#SVGID_2_)" fill="none" stroke="#2B5166" stroke-miterlimit="10" x1="347.6" y1="825.1" x2="-771.4" y2="-293.9"/>
	
		<line clip-path="url(#SVGID_2_)" fill="none" stroke="#2B5166" stroke-miterlimit="10" x1="350.3" y1="822.4" x2="-768.7" y2="-296.6"/>
	
		<line clip-path="url(#SVGID_2_)" fill="none" stroke="#2B5166" stroke-miterlimit="10" x1="353" y1="819.7" x2="-766" y2="-299.3"/>
	
		<line clip-path="url(#SVGID_2_)" fill="none" stroke="#2B5166" stroke-miterlimit="10" x1="355.7" y1="817" x2="-763.3" y2="-302"/>
	
		<line clip-path="url(#SVGID_2_)" fill="none" stroke="#2B5166" stroke-miterlimit="10" x1="358.4" y1="814.3" x2="-760.6" y2="-304.7"/>
	
		<line clip-path="url(#SVGID_2_)" fill="none" stroke="#2B5166" stroke-miterlimit="10" x1="361.1" y1="811.6" x2="-757.9" y2="-307.4"/>
	
		<line clip-path="url(#SVGID_2_)" fill="none" stroke="#2B5166" stroke-miterlimit="10" x1="363.8" y1="808.8" x2="-755.1" y2="-310.1"/>
	
		<line clip-path="url(#SVGID_2_)" fill="none" stroke="#2B5166" stroke-miterlimit="10" x1="366.5" y1="806.1" x2="-752.4" y2="-312.8"/>
	
		<line clip-path="url(#SVGID_2_)" fill="none" stroke="#2B5166" stroke-miterlimit="10" x1="369.3" y1="803.4" x2="-749.7" y2="-315.5"/>
	
		<line clip-path="url(#SVGID_2_)" fill="none" stroke="#2B5166" stroke-miterlimit="10" x1="372" y1="800.7" x2="-747" y2="-318.3"/>
	
		<line clip-path="url(#SVGID_2_)" fill="none" stroke="#2B5166" stroke-miterlimit="10" x1="374.7" y1="798" x2="-744.3" y2="-321"/>
	
		<line clip-path="url(#SVGID_2_)" fill="none" stroke="#2B5166" stroke-miterlimit="10" x1="377.4" y1="795.3" x2="-741.6" y2="-323.7"/>
	
		<line clip-path="url(#SVGID_2_)" fill="none" stroke="#2B5166" stroke-miterlimit="10" x1="380.1" y1="792.6" x2="-738.9" y2="-326.4"/>
	
		<line clip-path="url(#SVGID_2_)" fill="none" stroke="#2B5166" stroke-miterlimit="10" x1="382.8" y1="789.9" x2="-736.2" y2="-329.1"/>
	
		<line clip-path="url(#SVGID_2_)" fill="none" stroke="#2B5166" stroke-miterlimit="10" x1="385.5" y1="787.2" x2="-733.5" y2="-331.8"/>
	
		<line clip-path="url(#SVGID_2_)" fill="none" stroke="#2B5166" stroke-miterlimit="10" x1="388.2" y1="784.5" x2="-730.7" y2="-334.5"/>
	
		<line clip-path="url(#SVGID_2_)" fill="none" stroke="#2B5166" stroke-miterlimit="10" x1="390.9" y1="781.7" x2="-728" y2="-337.2"/>
	
		<line clip-path="url(#SVGID_2_)" fill="none" stroke="#2B5166" stroke-miterlimit="10" x1="393.7" y1="779" x2="-725.3" y2="-339.9"/>
	
		<line clip-path="url(#SVGID_2_)" fill="none" stroke="#2B5166" stroke-miterlimit="10" x1="396.4" y1="776.3" x2="-722.6" y2="-342.7"/>
	
		<line clip-path="url(#SVGID_2_)" fill="none" stroke="#2B5166" stroke-miterlimit="10" x1="399.1" y1="773.6" x2="-719.9" y2="-345.4"/>
	
		<line clip-path="url(#SVGID_2_)" fill="none" stroke="#2B5166" stroke-miterlimit="10" x1="401.8" y1="770.9" x2="-717.2" y2="-348.1"/>
	
		<line clip-path="url(#SVGID_2_)" fill="none" stroke="#2B5166" stroke-miterlimit="10" x1="404.5" y1="768.2" x2="-714.5" y2="-350.8"/>
	
		<line clip-path="url(#SVGID_2_)" fill="none" stroke="#2B5166" stroke-miterlimit="10" x1="407.2" y1="765.5" x2="-711.8" y2="-353.5"/>
	
		<line clip-path="url(#SVGID_2_)" fill="none" stroke="#2B5166" stroke-miterlimit="10" x1="409.9" y1="762.8" x2="-709.1" y2="-356.2"/>
	
		<line clip-path="url(#SVGID_2_)" fill="none" stroke="#2B5166" stroke-miterlimit="10" x1="412.6" y1="760.1" x2="-706.4" y2="-358.9"/>
	
		<line clip-path="url(#SVGID_2_)" fill="none" stroke="#2B5166" stroke-miterlimit="10" x1="415.3" y1="757.4" x2="-703.6" y2="-361.6"/>
	
		<line clip-path="url(#SVGID_2_)" fill="none" stroke="#2B5166" stroke-miterlimit="10" x1="418" y1="754.6" x2="-700.9" y2="-364.3"/>
	
		<line clip-path="url(#SVGID_2_)" fill="none" stroke="#2B5166" stroke-miterlimit="10" x1="420.8" y1="751.9" x2="-698.2" y2="-367"/>
	
		<line clip-path="url(#SVGID_2_)" fill="none" stroke="#2B5166" stroke-miterlimit="10" x1="423.5" y1="749.2" x2="-695.5" y2="-369.8"/>
	
		<line clip-path="url(#SVGID_2_)" fill="none" stroke="#2B5166" stroke-miterlimit="10" x1="426.2" y1="746.5" x2="-692.8" y2="-372.5"/>
	
		<line clip-path="url(#SVGID_2_)" fill="none" stroke="#2B5166" stroke-miterlimit="10" x1="428.9" y1="743.8" x2="-690.1" y2="-375.2"/>
	
		<line clip-path="url(#SVGID_2_)" fill="none" stroke="#2B5166" stroke-miterlimit="10" x1="431.6" y1="741.1" x2="-687.4" y2="-377.9"/>
	
		<line clip-path="url(#SVGID_2_)" fill="none" stroke="#2B5166" stroke-miterlimit="10" x1="434.3" y1="738.4" x2="-684.7" y2="-380.6"/>
	
		<line clip-path="url(#SVGID_2_)" fill="none" stroke="#2B5166" stroke-miterlimit="10" x1="437" y1="735.7" x2="-682" y2="-383.3"/>
	
		<line clip-path="url(#SVGID_2_)" fill="none" stroke="#2B5166" stroke-miterlimit="10" x1="439.7" y1="733" x2="-679.2" y2="-386"/>
	
		<line clip-path="url(#SVGID_2_)" fill="none" stroke="#2B5166" stroke-miterlimit="10" x1="442.4" y1="730.2" x2="-676.5" y2="-388.7"/>
	
		<line clip-path="url(#SVGID_2_)" fill="none" stroke="#2B5166" stroke-miterlimit="10" x1="445.1" y1="727.5" x2="-673.8" y2="-391.4"/>
	
		<line clip-path="url(#SVGID_2_)" fill="none" stroke="#2B5166" stroke-miterlimit="10" x1="447.9" y1="724.8" x2="-671.1" y2="-394.2"/>
	
		<line clip-path="url(#SVGID_2_)" fill="none" stroke="#2B5166" stroke-miterlimit="10" x1="450.6" y1="722.1" x2="-668.4" y2="-396.9"/>
	
		<line clip-path="url(#SVGID_2_)" fill="none" stroke="#2B5166" stroke-miterlimit="10" x1="453.3" y1="719.4" x2="-665.7" y2="-399.6"/>
	
		<line clip-path="url(#SVGID_2_)" fill="none" stroke="#2B5166" stroke-miterlimit="10" x1="456" y1="716.7" x2="-663" y2="-402.3"/>
	
		<line clip-path="url(#SVGID_2_)" fill="none" stroke="#2B5166" stroke-miterlimit="10" x1="458.7" y1="714" x2="-660.3" y2="-405"/>
	
		<line clip-path="url(#SVGID_2_)" fill="none" stroke="#2B5166" stroke-miterlimit="10" x1="461.4" y1="711.3" x2="-657.6" y2="-407.7"/>
	
		<line clip-path="url(#SVGID_2_)" fill="none" stroke="#2B5166" stroke-miterlimit="10" x1="464.1" y1="708.6" x2="-654.9" y2="-410.4"/>
	
		<line clip-path="url(#SVGID_2_)" fill="none" stroke="#2B5166" stroke-miterlimit="10" x1="466.8" y1="705.9" x2="-652.1" y2="-413.1"/>
	
		<line clip-path="url(#SVGID_2_)" fill="none" stroke="#2B5166" stroke-miterlimit="10" x1="469.5" y1="703.1" x2="-649.4" y2="-415.8"/>
	
		<line clip-path="url(#SVGID_2_)" fill="none" stroke="#2B5166" stroke-miterlimit="10" x1="472.3" y1="700.4" x2="-646.7" y2="-418.5"/>
	
		<line clip-path="url(#SVGID_2_)" fill="none" stroke="#2B5166" stroke-miterlimit="10" x1="475" y1="697.7" x2="-644" y2="-421.3"/>
	
		<line clip-path="url(#SVGID_2_)" fill="none" stroke="#2B5166" stroke-miterlimit="10" x1="477.7" y1="695" x2="-641.3" y2="-424"/>
	
		<line clip-path="url(#SVGID_2_)" fill="none" stroke="#2B5166" stroke-miterlimit="10" x1="480.4" y1="692.3" x2="-638.6" y2="-426.7"/>
	
		<line clip-path="url(#SVGID_2_)" fill="none" stroke="#2B5166" stroke-miterlimit="10" x1="483.1" y1="689.6" x2="-635.9" y2="-429.4"/>
	
		<line clip-path="url(#SVGID_2_)" fill="none" stroke="#2B5166" stroke-miterlimit="10" x1="485.8" y1="686.9" x2="-633.2" y2="-432.1"/>
	
		<line clip-path="url(#SVGID_2_)" fill="none" stroke="#2B5166" stroke-miterlimit="10" x1="488.5" y1="684.2" x2="-630.5" y2="-434.8"/>
	
		<line clip-path="url(#SVGID_2_)" fill="none" stroke="#2B5166" stroke-miterlimit="10" x1="491.2" y1="681.5" x2="-627.7" y2="-437.5"/>
	
		<line clip-path="url(#SVGID_2_)" fill="none" stroke="#2B5166" stroke-miterlimit="10" x1="493.9" y1="678.7" x2="-625" y2="-440.2"/>
	
		<line clip-path="url(#SVGID_2_)" fill="none" stroke="#2B5166" stroke-miterlimit="10" x1="496.6" y1="676" x2="-622.3" y2="-442.9"/>
	
		<line clip-path="url(#SVGID_2_)" fill="none" stroke="#2B5166" stroke-miterlimit="10" x1="499.4" y1="673.3" x2="-619.6" y2="-445.7"/>
	
		<line clip-path="url(#SVGID_2_)" fill="none" stroke="#2B5166" stroke-miterlimit="10" x1="502.1" y1="670.6" x2="-616.9" y2="-448.4"/>
	
		<line clip-path="url(#SVGID_2_)" fill="none" stroke="#2B5166" stroke-miterlimit="10" x1="504.8" y1="667.9" x2="-614.2" y2="-451.1"/>
	
		<line clip-path="url(#SVGID_2_)" fill="none" stroke="#2B5166" stroke-miterlimit="10" x1="507.5" y1="665.2" x2="-611.5" y2="-453.8"/>
	
		<line clip-path="url(#SVGID_2_)" fill="none" stroke="#2B5166" stroke-miterlimit="10" x1="510.2" y1="662.5" x2="-608.8" y2="-456.5"/>
	
		<line clip-path="url(#SVGID_2_)" fill="none" stroke="#2B5166" stroke-miterlimit="10" x1="512.9" y1="659.8" x2="-606.1" y2="-459.2"/>
	
		<line clip-path="url(#SVGID_2_)" fill="none" stroke="#2B5166" stroke-miterlimit="10" x1="515.6" y1="657.1" x2="-603.4" y2="-461.9"/>
	
		<line clip-path="url(#SVGID_2_)" fill="none" stroke="#2B5166" stroke-miterlimit="10" x1="518.3" y1="654.4" x2="-600.6" y2="-464.6"/>
	
		<line clip-path="url(#SVGID_2_)" fill="none" stroke="#2B5166" stroke-miterlimit="10" x1="521" y1="651.6" x2="-597.9" y2="-467.3"/>
	
		<line clip-path="url(#SVGID_2_)" fill="none" stroke="#2B5166" stroke-miterlimit="10" x1="523.8" y1="648.9" x2="-595.2" y2="-470"/>
	
		<line clip-path="url(#SVGID_2_)" fill="none" stroke="#2B5166" stroke-miterlimit="10" x1="526.5" y1="646.2" x2="-592.5" y2="-472.8"/>
	
		<line clip-path="url(#SVGID_2_)" fill="none" stroke="#2B5166" stroke-miterlimit="10" x1="529.2" y1="643.5" x2="-589.8" y2="-475.5"/>
	
		<line clip-path="url(#SVGID_2_)" fill="none" stroke="#2B5166" stroke-miterlimit="10" x1="531.9" y1="640.8" x2="-587.1" y2="-478.2"/>
	
		<line clip-path="url(#SVGID_2_)" fill="none" stroke="#2B5166" stroke-miterlimit="10" x1="534.6" y1="638.1" x2="-584.4" y2="-480.9"/>
	
		<line clip-path="url(#SVGID_2_)" fill="none" stroke="#2B5166" stroke-miterlimit="10" x1="537.3" y1="635.4" x2="-581.7" y2="-483.6"/>
	
		<line clip-path="url(#SVGID_2_)" fill="none" stroke="#2B5166" stroke-miterlimit="10" x1="540" y1="632.7" x2="-579" y2="-486.3"/>
	
		<line clip-path="url(#SVGID_2_)" fill="none" stroke="#2B5166" stroke-miterlimit="10" x1="542.7" y1="630" x2="-576.3" y2="-489"/>
	
		<line clip-path="url(#SVGID_2_)" fill="none" stroke="#2B5166" stroke-miterlimit="10" x1="545.4" y1="627.2" x2="-573.5" y2="-491.7"/>
	
		<line clip-path="url(#SVGID_2_)" fill="none" stroke="#2B5166" stroke-miterlimit="10" x1="548.1" y1="624.5" x2="-570.8" y2="-494.4"/>
	
		<line clip-path="url(#SVGID_2_)" fill="none" stroke="#2B5166" stroke-miterlimit="10" x1="550.9" y1="621.8" x2="-568.1" y2="-497.1"/>
	
		<line clip-path="url(#SVGID_2_)" fill="none" stroke="#2B5166" stroke-miterlimit="10" x1="553.6" y1="619.1" x2="-565.4" y2="-499.9"/>
	
		<line clip-path="url(#SVGID_2_)" fill="none" stroke="#2B5166" stroke-miterlimit="10" x1="556.3" y1="616.4" x2="-562.7" y2="-502.6"/>
	
		<line clip-path="url(#SVGID_2_)" fill="none" stroke="#2B5166" stroke-miterlimit="10" x1="559" y1="613.7" x2="-560" y2="-505.3"/>
	
		<line clip-path="url(#SVGID_2_)" fill="none" stroke="#2B5166" stroke-miterlimit="10" x1="561.7" y1="611" x2="-557.3" y2="-508"/>
	
		<line clip-path="url(#SVGID_2_)" fill="none" stroke="#2B5166" stroke-miterlimit="10" x1="564.4" y1="608.3" x2="-554.6" y2="-510.7"/>
	
		<line clip-path="url(#SVGID_2_)" fill="none" stroke="#2B5166" stroke-miterlimit="10" x1="567.1" y1="605.6" x2="-551.9" y2="-513.4"/>
	
		<line clip-path="url(#SVGID_2_)" fill="none" stroke="#2B5166" stroke-miterlimit="10" x1="569.8" y1="602.9" x2="-549.1" y2="-516.1"/>
	
		<line clip-path="url(#SVGID_2_)" fill="none" stroke="#2B5166" stroke-miterlimit="10" x1="572.5" y1="600.1" x2="-546.4" y2="-518.8"/>
	
		<line clip-path="url(#SVGID_2_)" fill="none" stroke="#2B5166" stroke-miterlimit="10" x1="575.3" y1="597.4" x2="-543.7" y2="-521.5"/>
	
		<line clip-path="url(#SVGID_2_)" fill="none" stroke="#2B5166" stroke-miterlimit="10" x1="578" y1="594.7" x2="-541" y2="-524.3"/>
	
		<line clip-path="url(#SVGID_2_)" fill="none" stroke="#2B5166" stroke-miterlimit="10" x1="580.7" y1="592" x2="-538.3" y2="-527"/>
	
		<line clip-path="url(#SVGID_2_)" fill="none" stroke="#2B5166" stroke-miterlimit="10" x1="583.4" y1="589.3" x2="-535.6" y2="-529.7"/>
	
		<line clip-path="url(#SVGID_2_)" fill="none" stroke="#2B5166" stroke-miterlimit="10" x1="586.1" y1="586.6" x2="-532.9" y2="-532.4"/>
	
		<line clip-path="url(#SVGID_2_)" fill="none" stroke="#2B5166" stroke-miterlimit="10" x1="588.8" y1="583.9" x2="-530.2" y2="-535.1"/>
	
		<line clip-path="url(#SVGID_2_)" fill="none" stroke="#2B5166" stroke-miterlimit="10" x1="591.5" y1="581.2" x2="-527.5" y2="-537.8"/>
	
		<line clip-path="url(#SVGID_2_)" fill="none" stroke="#2B5166" stroke-miterlimit="10" x1="594.2" y1="578.5" x2="-524.8" y2="-540.5"/>
	
		<line clip-path="url(#SVGID_2_)" fill="none" stroke="#2B5166" stroke-miterlimit="10" x1="596.9" y1="575.8" x2="-522" y2="-543.2"/>
	
		<line clip-path="url(#SVGID_2_)" fill="none" stroke="#2B5166" stroke-miterlimit="10" x1="599.6" y1="573" x2="-519.3" y2="-545.9"/>
	
		<line clip-path="url(#SVGID_2_)" fill="none" stroke="#2B5166" stroke-miterlimit="10" x1="602.4" y1="570.3" x2="-516.6" y2="-548.6"/>
	
		<line clip-path="url(#SVGID_2_)" fill="none" stroke="#2B5166" stroke-miterlimit="10" x1="605.1" y1="567.6" x2="-513.9" y2="-551.4"/>
	
		<line clip-path="url(#SVGID_2_)" fill="none" stroke="#2B5166" stroke-miterlimit="10" x1="607.8" y1="564.9" x2="-511.2" y2="-554.1"/>
	
		<line clip-path="url(#SVGID_2_)" fill="none" stroke="#2B5166" stroke-miterlimit="10" x1="610.5" y1="562.2" x2="-508.5" y2="-556.8"/>
	
		<line clip-path="url(#SVGID_2_)" fill="none" stroke="#2B5166" stroke-miterlimit="10" x1="613.2" y1="559.5" x2="-505.8" y2="-559.5"/>
	
		<line clip-path="url(#SVGID_2_)" fill="none" stroke="#2B5166" stroke-miterlimit="10" x1="615.9" y1="556.8" x2="-503.1" y2="-562.2"/>
	
		<line clip-path="url(#SVGID_2_)" fill="none" stroke="#2B5166" stroke-miterlimit="10" x1="618.6" y1="554.1" x2="-500.4" y2="-564.9"/>
	
		<line clip-path="url(#SVGID_2_)" fill="none" stroke="#2B5166" stroke-miterlimit="10" x1="621.3" y1="551.4" x2="-497.6" y2="-567.6"/>
	
		<line clip-path="url(#SVGID_2_)" fill="none" stroke="#2B5166" stroke-miterlimit="10" x1="624" y1="548.6" x2="-494.9" y2="-570.3"/>
	
		<line clip-path="url(#SVGID_2_)" fill="none" stroke="#2B5166" stroke-miterlimit="10" x1="626.7" y1="545.9" x2="-492.2" y2="-573"/>
	
		<line clip-path="url(#SVGID_2_)" fill="none" stroke="#2B5166" stroke-miterlimit="10" x1="629.5" y1="543.2" x2="-489.5" y2="-575.8"/>
	
		<line clip-path="url(#SVGID_2_)" fill="none" stroke="#2B5166" stroke-miterlimit="10" x1="632.2" y1="540.5" x2="-486.8" y2="-578.5"/>
	
		<line clip-path="url(#SVGID_2_)" fill="none" stroke="#2B5166" stroke-miterlimit="10" x1="634.9" y1="537.8" x2="-484.1" y2="-581.2"/>
	
		<line clip-path="url(#SVGID_2_)" fill="none" stroke="#2B5166" stroke-miterlimit="10" x1="637.6" y1="535.1" x2="-481.4" y2="-583.9"/>
	
		<line clip-path="url(#SVGID_2_)" fill="none" stroke="#2B5166" stroke-miterlimit="10" x1="640.3" y1="532.4" x2="-478.7" y2="-586.6"/>
	
		<line clip-path="url(#SVGID_2_)" fill="none" stroke="#2B5166" stroke-miterlimit="10" x1="643" y1="529.7" x2="-476" y2="-589.3"/>
	
		<line clip-path="url(#SVGID_2_)" fill="none" stroke="#2B5166" stroke-miterlimit="10" x1="645.7" y1="527" x2="-473.3" y2="-592"/>
	
		<line clip-path="url(#SVGID_2_)" fill="none" stroke="#2B5166" stroke-miterlimit="10" x1="648.4" y1="524.3" x2="-470.5" y2="-594.7"/>
	
		<line clip-path="url(#SVGID_2_)" fill="none" stroke="#2B5166" stroke-miterlimit="10" x1="651.1" y1="521.5" x2="-467.8" y2="-597.4"/>
	
		<line clip-path="url(#SVGID_2_)" fill="none" stroke="#2B5166" stroke-miterlimit="10" x1="653.9" y1="518.8" x2="-465.1" y2="-600.1"/>
	
		<line clip-path="url(#SVGID_2_)" fill="none" stroke="#2B5166" stroke-miterlimit="10" x1="656.6" y1="516.1" x2="-462.4" y2="-602.9"/>
	
		<line clip-path="url(#SVGID_2_)" fill="none" stroke="#2B5166" stroke-miterlimit="10" x1="659.3" y1="513.4" x2="-459.7" y2="-605.6"/>
	
		<line clip-path="url(#SVGID_2_)" fill="none" stroke="#2B5166" stroke-miterlimit="10" x1="662" y1="510.7" x2="-457" y2="-608.3"/>
	
		<line clip-path="url(#SVGID_2_)" fill="none" stroke="#2B5166" stroke-miterlimit="10" x1="664.7" y1="508" x2="-454.3" y2="-611"/>
	
		<line clip-path="url(#SVGID_2_)" fill="none" stroke="#2B5166" stroke-miterlimit="10" x1="667.4" y1="505.3" x2="-451.6" y2="-613.7"/>
	
		<line clip-path="url(#SVGID_2_)" fill="none" stroke="#2B5166" stroke-miterlimit="10" x1="670.1" y1="502.6" x2="-448.9" y2="-616.4"/>
	
		<line clip-path="url(#SVGID_2_)" fill="none" stroke="#2B5166" stroke-miterlimit="10" x1="672.8" y1="499.9" x2="-446.1" y2="-619.1"/>
	
		<line clip-path="url(#SVGID_2_)" fill="none" stroke="#2B5166" stroke-miterlimit="10" x1="675.5" y1="497.1" x2="-443.4" y2="-621.8"/>
	
		<line clip-path="url(#SVGID_2_)" fill="none" stroke="#2B5166" stroke-miterlimit="10" x1="678.2" y1="494.4" x2="-440.7" y2="-624.5"/>
	
		<line clip-path="url(#SVGID_2_)" fill="none" stroke="#2B5166" stroke-miterlimit="10" x1="681" y1="491.7" x2="-438" y2="-627.3"/>
	
		<line clip-path="url(#SVGID_2_)" fill="none" stroke="#2B5166" stroke-miterlimit="10" x1="683.7" y1="489" x2="-435.3" y2="-630"/>
	
		<line clip-path="url(#SVGID_2_)" fill="none" stroke="#2B5166" stroke-miterlimit="10" x1="686.4" y1="486.3" x2="-432.6" y2="-632.7"/>
	
		<line clip-path="url(#SVGID_2_)" fill="none" stroke="#2B5166" stroke-miterlimit="10" x1="689.1" y1="483.6" x2="-429.9" y2="-635.4"/>
	
		<line clip-path="url(#SVGID_2_)" fill="none" stroke="#2B5166" stroke-miterlimit="10" x1="691.8" y1="480.9" x2="-427.2" y2="-638.1"/>
	
		<line clip-path="url(#SVGID_2_)" fill="none" stroke="#2B5166" stroke-miterlimit="10" x1="694.5" y1="478.2" x2="-424.5" y2="-640.8"/>
	
		<line clip-path="url(#SVGID_2_)" fill="none" stroke="#2B5166" stroke-miterlimit="10" x1="697.2" y1="475.5" x2="-421.8" y2="-643.5"/>
	
		<line clip-path="url(#SVGID_2_)" fill="none" stroke="#2B5166" stroke-miterlimit="10" x1="699.9" y1="472.8" x2="-419" y2="-646.2"/>
	
		<line clip-path="url(#SVGID_2_)" fill="none" stroke="#2B5166" stroke-miterlimit="10" x1="702.6" y1="470" x2="-416.3" y2="-648.9"/>
	
		<line clip-path="url(#SVGID_2_)" fill="none" stroke="#2B5166" stroke-miterlimit="10" x1="705.4" y1="467.3" x2="-413.6" y2="-651.6"/>
	
		<line clip-path="url(#SVGID_2_)" fill="none" stroke="#2B5166" stroke-miterlimit="10" x1="708.1" y1="464.6" x2="-410.9" y2="-654.4"/>
	
		<line clip-path="url(#SVGID_2_)" fill="none" stroke="#2B5166" stroke-miterlimit="10" x1="710.8" y1="461.9" x2="-408.2" y2="-657.1"/>
	
		<line clip-path="url(#SVGID_2_)" fill="none" stroke="#2B5166" stroke-miterlimit="10" x1="713.5" y1="459.2" x2="-405.5" y2="-659.8"/>
	
		<line clip-path="url(#SVGID_2_)" fill="none" stroke="#2B5166" stroke-miterlimit="10" x1="716.2" y1="456.5" x2="-402.8" y2="-662.5"/>
	
		<line clip-path="url(#SVGID_2_)" fill="none" stroke="#2B5166" stroke-miterlimit="10" x1="718.9" y1="453.8" x2="-400.1" y2="-665.2"/>
	
		<line clip-path="url(#SVGID_2_)" fill="none" stroke="#2B5166" stroke-miterlimit="10" x1="721.6" y1="451.1" x2="-397.4" y2="-667.9"/>
	
		<line clip-path="url(#SVGID_2_)" fill="none" stroke="#2B5166" stroke-miterlimit="10" x1="724.3" y1="448.4" x2="-394.7" y2="-670.6"/>
	
		<line clip-path="url(#SVGID_2_)" fill="none" stroke="#2B5166" stroke-miterlimit="10" x1="727" y1="445.6" x2="-391.9" y2="-673.3"/>
	
		<line clip-path="url(#SVGID_2_)" fill="none" stroke="#2B5166" stroke-miterlimit="10" x1="729.7" y1="442.9" x2="-389.2" y2="-676"/>
	
		<line clip-path="url(#SVGID_2_)" fill="none" stroke="#2B5166" stroke-miterlimit="10" x1="732.5" y1="440.2" x2="-386.5" y2="-678.7"/>
	
		<line clip-path="url(#SVGID_2_)" fill="none" stroke="#2B5166" stroke-miterlimit="10" x1="735.2" y1="437.5" x2="-383.8" y2="-681.5"/>
	
		<line clip-path="url(#SVGID_2_)" fill="none" stroke="#2B5166" stroke-miterlimit="10" x1="737.9" y1="434.8" x2="-381.1" y2="-684.2"/>
	
		<line clip-path="url(#SVGID_2_)" fill="none" stroke="#2B5166" stroke-miterlimit="10" x1="740.6" y1="432.1" x2="-378.4" y2="-686.9"/>
	
		<line clip-path="url(#SVGID_2_)" fill="none" stroke="#2B5166" stroke-miterlimit="10" x1="743.3" y1="429.4" x2="-375.7" y2="-689.6"/>
	
		<line clip-path="url(#SVGID_2_)" fill="none" stroke="#2B5166" stroke-miterlimit="10" x1="746" y1="426.7" x2="-373" y2="-692.3"/>
	
		<line clip-path="url(#SVGID_2_)" fill="none" stroke="#2B5166" stroke-miterlimit="10" x1="748.7" y1="424" x2="-370.3" y2="-695"/>
	
		<line clip-path="url(#SVGID_2_)" fill="none" stroke="#2B5166" stroke-miterlimit="10" x1="751.4" y1="421.3" x2="-367.5" y2="-697.7"/>
	
		<line clip-path="url(#SVGID_2_)" fill="none" stroke="#2B5166" stroke-miterlimit="10" x1="754.1" y1="418.5" x2="-364.8" y2="-700.4"/>
	
		<line clip-path="url(#SVGID_2_)" fill="none" stroke="#2B5166" stroke-miterlimit="10" x1="756.9" y1="415.8" x2="-362.1" y2="-703.1"/>
	
		<line clip-path="url(#SVGID_2_)" fill="none" stroke="#2B5166" stroke-miterlimit="10" x1="759.6" y1="413.1" x2="-359.4" y2="-705.9"/>
	
		<line clip-path="url(#SVGID_2_)" fill="none" stroke="#2B5166" stroke-miterlimit="10" x1="762.3" y1="410.4" x2="-356.7" y2="-708.6"/>
	
		<line clip-path="url(#SVGID_2_)" fill="none" stroke="#2B5166" stroke-miterlimit="10" x1="765" y1="407.7" x2="-354" y2="-711.3"/>
	
		<line clip-path="url(#SVGID_2_)" fill="none" stroke="#2B5166" stroke-miterlimit="10" x1="767.7" y1="405" x2="-351.3" y2="-714"/>
	
		<line clip-path="url(#SVGID_2_)" fill="none" stroke="#2B5166" stroke-miterlimit="10" x1="770.4" y1="402.3" x2="-348.6" y2="-716.7"/>
	
		<line clip-path="url(#SVGID_2_)" fill="none" stroke="#2B5166" stroke-miterlimit="10" x1="773.1" y1="399.6" x2="-345.9" y2="-719.4"/>
	
		<line clip-path="url(#SVGID_2_)" fill="none" stroke="#2B5166" stroke-miterlimit="10" x1="775.8" y1="396.9" x2="-343.2" y2="-722.1"/>
	
		<line clip-path="url(#SVGID_2_)" fill="none" stroke="#2B5166" stroke-miterlimit="10" x1="778.5" y1="394.1" x2="-340.4" y2="-724.8"/>
	
		<line clip-path="url(#SVGID_2_)" fill="none" stroke="#2B5166" stroke-miterlimit="10" x1="781.2" y1="391.4" x2="-337.7" y2="-727.5"/>
	
		<line clip-path="url(#SVGID_2_)" fill="none" stroke="#2B5166" stroke-miterlimit="10" x1="784" y1="388.7" x2="-335" y2="-730.2"/>
	
		<line clip-path="url(#SVGID_2_)" fill="none" stroke="#2B5166" stroke-miterlimit="10" x1="786.7" y1="386" x2="-332.3" y2="-733"/>
	
		<line clip-path="url(#SVGID_2_)" fill="none" stroke="#2B5166" stroke-miterlimit="10" x1="789.4" y1="383.3" x2="-329.6" y2="-735.7"/>
	
		<line clip-path="url(#SVGID_2_)" fill="none" stroke="#2B5166" stroke-miterlimit="10" x1="792.1" y1="380.6" x2="-326.9" y2="-738.4"/>
	
		<line clip-path="url(#SVGID_2_)" fill="none" stroke="#2B5166" stroke-miterlimit="10" x1="794.8" y1="377.9" x2="-324.2" y2="-741.1"/>
	
		<line clip-path="url(#SVGID_2_)" fill="none" stroke="#2B5166" stroke-miterlimit="10" x1="797.5" y1="375.2" x2="-321.5" y2="-743.8"/>
	
		<line clip-path="url(#SVGID_2_)" fill="none" stroke="#2B5166" stroke-miterlimit="10" x1="800.2" y1="372.5" x2="-318.8" y2="-746.5"/>
	
		<line clip-path="url(#SVGID_2_)" fill="none" stroke="#2B5166" stroke-miterlimit="10" x1="802.9" y1="369.8" x2="-316" y2="-749.2"/>
	
		<line clip-path="url(#SVGID_2_)" fill="none" stroke="#2B5166" stroke-miterlimit="10" x1="805.6" y1="367" x2="-313.3" y2="-751.9"/>
	
		<line clip-path="url(#SVGID_2_)" fill="none" stroke="#2B5166" stroke-miterlimit="10" x1="808.3" y1="364.3" x2="-310.6" y2="-754.6"/>
	
		<line clip-path="url(#SVGID_2_)" fill="none" stroke="#2B5166" stroke-miterlimit="10" x1="811.1" y1="361.6" x2="-307.9" y2="-757.4"/>
	
		<line clip-path="url(#SVGID_2_)" fill="none" stroke="#2B5166" stroke-miterlimit="10" x1="813.8" y1="358.9" x2="-305.2" y2="-760.1"/>
	
		<line clip-path="url(#SVGID_2_)" fill="none" stroke="#2B5166" stroke-miterlimit="10" x1="816.5" y1="356.2" x2="-302.5" y2="-762.8"/>
	
		<line clip-path="url(#SVGID_2_)" fill="none" stroke="#2B5166" stroke-miterlimit="10" x1="819.2" y1="353.5" x2="-299.8" y2="-765.5"/>
	
		<line clip-path="url(#SVGID_2_)" fill="none" stroke="#2B5166" stroke-miterlimit="10" x1="821.9" y1="350.8" x2="-297.1" y2="-768.2"/>
	
		<line clip-path="url(#SVGID_2_)" fill="none" stroke="#2B5166" stroke-miterlimit="10" x1="824.6" y1="348.1" x2="-294.4" y2="-770.9"/>
	
		<line clip-path="url(#SVGID_2_)" fill="none" stroke="#2B5166" stroke-miterlimit="10" x1="827.3" y1="345.4" x2="-291.7" y2="-773.6"/>
	
		<line clip-path="url(#SVGID_2_)" fill="none" stroke="#2B5166" stroke-miterlimit="10" x1="830" y1="342.7" x2="-288.9" y2="-776.3"/>
	
		<line clip-path="url(#SVGID_2_)" fill="none" stroke="#2B5166" stroke-miterlimit="10" x1="832.7" y1="339.9" x2="-286.2" y2="-779"/>
	
		<line clip-path="url(#SVGID_2_)" fill="none" stroke="#2B5166" stroke-miterlimit="10" x1="835.5" y1="337.2" x2="-283.5" y2="-781.7"/>
	
		<line clip-path="url(#SVGID_2_)" fill="none" stroke="#2B5166" stroke-miterlimit="10" x1="838.2" y1="334.5" x2="-280.8" y2="-784.5"/>
	
		<line clip-path="url(#SVGID_2_)" fill="none" stroke="#2B5166" stroke-miterlimit="10" x1="840.9" y1="331.8" x2="-278.1" y2="-787.2"/>
	
		<line clip-path="url(#SVGID_2_)" fill="none" stroke="#2B5166" stroke-miterlimit="10" x1="843.6" y1="329.1" x2="-275.4" y2="-789.9"/>
	
		<line clip-path="url(#SVGID_2_)" fill="none" stroke="#2B5166" stroke-miterlimit="10" x1="846.3" y1="326.4" x2="-272.7" y2="-792.6"/>
	
		<line clip-path="url(#SVGID_2_)" fill="none" stroke="#2B5166" stroke-miterlimit="10" x1="849" y1="323.7" x2="-270" y2="-795.3"/>
	
		<line clip-path="url(#SVGID_2_)" fill="none" stroke="#2B5166" stroke-miterlimit="10" x1="851.7" y1="321" x2="-267.3" y2="-798"/>
	
		<line clip-path="url(#SVGID_2_)" fill="none" stroke="#2B5166" stroke-miterlimit="10" x1="854.4" y1="318.3" x2="-264.5" y2="-800.7"/>
	
		<line clip-path="url(#SVGID_2_)" fill="none" stroke="#2B5166" stroke-miterlimit="10" x1="857.1" y1="315.5" x2="-261.8" y2="-803.4"/>
	
		<line clip-path="url(#SVGID_2_)" fill="none" stroke="#2B5166" stroke-miterlimit="10" x1="859.8" y1="312.8" x2="-259.1" y2="-806.1"/>
	
		<line clip-path="url(#SVGID_2_)" fill="none" stroke="#2B5166" stroke-miterlimit="10" x1="862.6" y1="310.1" x2="-256.4" y2="-808.9"/>
	
		<line clip-path="url(#SVGID_2_)" fill="none" stroke="#2B5166" stroke-miterlimit="10" x1="865.3" y1="307.4" x2="-253.7" y2="-811.6"/>
	
		<line clip-path="url(#SVGID_2_)" fill="none" stroke="#2B5166" stroke-miterlimit="10" x1="868" y1="304.7" x2="-251" y2="-814.3"/>
	
		<line clip-path="url(#SVGID_2_)" fill="none" stroke="#2B5166" stroke-miterlimit="10" x1="870.7" y1="302" x2="-248.3" y2="-817"/>
	
		<line clip-path="url(#SVGID_2_)" fill="none" stroke="#2B5166" stroke-miterlimit="10" x1="873.4" y1="299.3" x2="-245.6" y2="-819.7"/>
	
		<line clip-path="url(#SVGID_2_)" fill="none" stroke="#2B5166" stroke-miterlimit="10" x1="876.1" y1="296.6" x2="-242.9" y2="-822.4"/>
	
		<line clip-path="url(#SVGID_2_)" fill="none" stroke="#2B5166" stroke-miterlimit="10" x1="878.8" y1="293.9" x2="-240.2" y2="-825.1"/>
	
		<line clip-path="url(#SVGID_2_)" fill="none" stroke="#2B5166" stroke-miterlimit="10" x1="881.5" y1="291.2" x2="-237.4" y2="-827.8"/>
	
		<line clip-path="url(#SVGID_2_)" fill="none" stroke="#2B5166" stroke-miterlimit="10" x1="884.2" y1="288.4" x2="-234.7" y2="-830.5"/>
	
		<line clip-path="url(#SVGID_2_)" fill="none" stroke="#2B5166" stroke-miterlimit="10" x1="887" y1="285.7" x2="-232" y2="-833.2"/>
	
		<line clip-path="url(#SVGID_2_)" fill="none" stroke="#2B5166" stroke-miterlimit="10" x1="889.7" y1="283" x2="-229.3" y2="-836"/>
	
		<line clip-path="url(#SVGID_2_)" fill="none" stroke="#2B5166" stroke-miterlimit="10" x1="892.4" y1="280.3" x2="-226.6" y2="-838.7"/>
	
		<line clip-path="url(#SVGID_2_)" fill="none" stroke="#2B5166" stroke-miterlimit="10" x1="895.1" y1="277.6" x2="-223.9" y2="-841.4"/>
	
		<line clip-path="url(#SVGID_2_)" fill="none" stroke="#2B5166" stroke-miterlimit="10" x1="897.8" y1="274.9" x2="-221.2" y2="-844.1"/>
	
		<line clip-path="url(#SVGID_2_)" fill="none" stroke="#2B5166" stroke-miterlimit="10" x1="900.5" y1="272.2" x2="-218.5" y2="-846.8"/>
	
		<line clip-path="url(#SVGID_2_)" fill="none" stroke="#2B5166" stroke-miterlimit="10" x1="903.2" y1="269.5" x2="-215.8" y2="-849.5"/>
	
		<line clip-path="url(#SVGID_2_)" fill="none" stroke="#2B5166" stroke-miterlimit="10" x1="905.9" y1="266.8" x2="-213.1" y2="-852.2"/>
	
		<line clip-path="url(#SVGID_2_)" fill="none" stroke="#2B5166" stroke-miterlimit="10" x1="908.6" y1="264" x2="-210.3" y2="-854.9"/>
	
		<line clip-path="url(#SVGID_2_)" fill="none" stroke="#2B5166" stroke-miterlimit="10" x1="911.3" y1="261.3" x2="-207.6" y2="-857.6"/>
</g>
</svg>
