<?xml version="1.0" encoding="utf-8"?>
<!-- Generator: Adobe Illustrator 18.1.1, SVG Export Plug-In . SVG Version: 6.00 Build 0)  -->
<!DOCTYPE svg PUBLIC "-//W3C//DTD SVG 1.1//EN" "http://www.w3.org/Graphics/SVG/1.1/DTD/svg11.dtd">
<svg version="1.1" id="Layer_1" xmlns="http://www.w3.org/2000/svg" xmlns:xlink="http://www.w3.org/1999/xlink" x="0px" y="0px"
	 viewBox="0 262 800 538" enable-background="new 0 262 800 538" xml:space="preserve">
<path fill="#FFFFFF" d="M775.8,528.7c-4.7-135.2-51.7-243.4-105.3-241.6c-3.5,0.1-6.9,0.7-10.3,1.8l-558,201.3
	c-1.4,0.5-3.1,0.5-4.4-0.1l-43.5-18.8c-2.5-1.1-5.4-0.4-7.2,1.7c-7.4,8.5-24.8,33.8-23.2,79.9c1.6,46.1,20.7,72.5,28.7,81.4
	c1.9,2.2,4.9,2.6,7.4,1.3l41.9-21.7c1.3-0.7,3-0.8,4.4-0.5l32.1,9.1c-0.1,0.2-0.1,0.5-0.1,0.7l0.5,12.9
	c1.3,37.5,26.3,69.6,62.4,79.8l137.4,39.2c7.1,2,14.4,2.9,21.4,2.6c14.3-0.5,28.1-5.5,39.9-14.6c12.7-9.9,21.2-23.4,24.7-38.4
	c0-0.2,0-0.5,0-0.7L677,775.9c3.5,0.8,6.9,1.2,10.4,1.1C740.8,775.1,780.5,664,775.8,528.7z M377.2,691c-0.5,5.4-3.1,10.2-7.4,13.5
	c-5,4-11.4,5.1-17.6,3.5l-137.4-39.2c-14.7-4.2-25.3-16.9-26.6-32.1l189.1,53.9C377.3,690.8,377.2,690.8,377.2,691z M696.3,488.9
	L372.9,586c-1.7,0.5-3.4-1.1-3-2.9l9-51.9c0.2-1.7-1.1-3.2-2.6-3L209,552c-2.8,0.4-3.8-3.8-1.2-4.8L435.3,465c1.7-0.6,3.5,1,3.1,2.9
	l-9.1,49.6c-0.4,1.7,1.1,3.2,2.6,3l263.3-36.4C698.1,483.6,699,488,696.3,488.9z"/>
</svg>
