<?xml version="1.0" encoding="utf-8"?>
<!-- Generator: Adobe Illustrator 18.1.1, SVG Export Plug-In . SVG Version: 6.00 Build 0)  -->
<!DOCTYPE svg PUBLIC "-//W3C//DTD SVG 1.1//EN" "http://www.w3.org/Graphics/SVG/1.1/DTD/svg11.dtd">
<svg version="1.1" id="Layer_1" xmlns="http://www.w3.org/2000/svg" xmlns:xlink="http://www.w3.org/1999/xlink" x="0px" y="0px"
	 viewBox="0 0 800 800" enable-background="new 0 0 800 800" xml:space="preserve">
<g>
	<path fill="#295267" d="M540.8,323.7c-27.6-52.9-66.8-87-87.8-76.1c-1.4,0.7-2.6,1.6-3.8,2.7L265.5,436.3c-0.5,0.5-1.1,0.8-1.8,0.8
		l-20.9,0.8c-1.2,0-2.2,0.9-2.5,2c-1.3,4.8-3.4,18.2,6,36.2c9.4,18.1,22,24.9,26.9,26.9c1.2,0.5,2.5,0.1,3.2-0.9l12.5-16.6
		c0.4-0.5,1-0.9,1.7-1l14.5-2.5c0,0.1,0,0.2,0.1,0.3l2.6,5.1c7.6,14.7,23.7,22.7,40,19.9l62.1-10.5c3.2-0.5,6.3-1.6,9-3
		c5.6-2.9,10.1-7.5,13.1-13.4c3.2-6.3,4-13.3,2.5-20c0-0.1-0.1-0.2-0.1-0.3l114-19.3c1.5-0.3,3-0.9,4.4-1.6
		C573.8,428.3,568.4,376.6,540.8,323.7z M412.7,470.7c-1.3,2.5-3.6,4.2-6.3,4.7l-62.1,10.5c-6.7,1.1-13.3-1.9-16.7-7.7l85.5-14.5
		c0,0.1,0,0.1,0,0.2C413.9,466.1,413.8,468.6,412.7,470.7z M501.6,322.9L391.4,423c-0.6,0.5-1.5,0.2-1.7-0.6l-6.3-22.3
		c-0.2-0.7-1-1.1-1.6-0.7l-62,41.2c-1,0.7-2.2-0.8-1.4-1.7l74.9-75.9c0.6-0.6,1.6-0.3,1.8,0.6l5.8,21.5c0.2,0.7,1,1.1,1.6,0.7
		l97.8-64.5C501.4,320.5,502.6,322,501.6,322.9z"/>
	<g>
		<path fill="#295267" d="M400,599.3c-76.8,0-145.5-42.9-179.2-111.8c-48.2-98.7-7.1-218.2,91.6-266.5
			c27.5-13.4,56.9-20.3,87.3-20.3c76.8,0,145.5,42.9,179.2,111.8c23.4,47.8,26.7,101.9,9.4,152.2c-17.3,50.3-53.2,90.9-101,114.3
			C459.8,592.5,430.4,599.3,400,599.3z M399.8,216.5c-28,0-55,6.3-80.3,18.6c-90.9,44.4-128.7,154.4-84.3,245.3
			c31,63.5,94.2,103,164.9,103c28,0,55-6.3,80.3-18.6c44-21.5,77-58.9,93-105.2c15.9-46.3,12.9-96.1-8.6-140.1
			C533.7,256,470.5,216.5,399.8,216.5z"/>
		<path fill="#295267" d="M400.1,730.2c-61,0-120.7-16.8-172.8-48.7c-53.5-32.7-96.4-80-124.1-136.6
			C23.3,381.3,91.4,183.2,255,103.3c45.6-22.3,94.3-33.6,144.6-33.6c61,0,120.7,16.8,172.8,48.7c53.5,32.7,96.4,80,124.1,136.6
			c38.7,79.2,44.2,168.8,15.6,252.2C683.5,590.7,624,658,544.8,696.7C499.2,718.9,450.5,730.2,400.1,730.2z M399.7,85.6
			c-48,0-94.3,10.8-137.7,32C106.2,193.6,41.4,382.2,117.4,537.9c26.3,53.9,67.2,98.9,118.1,130.1c49.6,30.3,106.5,46.4,164.6,46.4
			c48,0,94.3-10.8,137.7-32c155.8-76.1,220.6-264.7,144.5-420.4C656,208.1,615.2,163.1,564.2,132C514.6,101.6,457.7,85.6,399.7,85.6
			z"/>
		<g>
			<path fill="#295267" d="M224.4,579.9c0.3-0.6,0.6-1.1,0.9-1.5l1.6-2l4.3-5.4l2.8-3.6c0.3-0.4,0.7-0.8,1.2-1.2
				c0.5-0.4,1-0.7,1.4-0.9l12.1-1.4c0.5,0.1,1,0.3,1.6,0.6c0.6,0.3,1.1,0.6,1.5,0.9l1.6,1.3l16.6,13.1l9.6,7.6
				c0.9,0.7,1,1.6,0.3,2.5l-7,8.8c-0.3,0.4-0.7,0.6-1.2,0.7c-0.5,0.1-0.9-0.1-1.3-0.4l-11.6-9.2l-6.3-5l-6.9-5.5
				c-0.4-0.3-0.8-0.4-1.3-0.4c-0.5,0-0.8,0.2-1.2,0.6l-4.8,6.1c-0.3,0.4-0.4,0.8-0.4,1.3c0.1,0.5,0.3,0.9,0.7,1.2l6.6,5.2l8.8,7
				l1,0.8c0.4,0.3,0.8,0.7,1.2,1.2c0.4,0.5,0.7,0.9,1,1.4l1.4,12.1c-0.1,0.5-0.3,1.1-0.6,1.7c-0.3,0.6-0.6,1-0.9,1.4l-1.1,1.4
				l-6.6,8.3l-1,1.3c-0.3,0.4-0.7,0.8-1.2,1.2c-0.5,0.4-1,0.7-1.4,0.9l-12.1,1.4c-0.5-0.1-1-0.3-1.6-0.6c-0.6-0.3-1.1-0.6-1.5-0.9
				l-1.4-1.1l-20.3-16.1l-4.5-3.6c-0.4-0.3-0.6-0.7-0.7-1.2c-0.1-0.5,0.1-0.9,0.4-1.3l7.1-9c0.3-0.4,0.7-0.6,1.2-0.7
				c0.5-0.1,0.9,0.1,1.3,0.4l5.1,4.1l13.4,10.7l4.8,3.8c0.4,0.3,0.8,0.4,1.3,0.4c0.5,0,0.8-0.2,1.2-0.6l4.7-5.9
				c0.3-0.4,0.4-0.8,0.4-1.3c-0.1-0.5-0.3-0.9-0.7-1.2l-4.7-3.7l-9.9-7.9l-1.8-1.4c-0.4-0.3-0.8-0.7-1.2-1.2c-0.4-0.5-0.8-1-1-1.4
				l-1.4-12.1C223.9,581,224.1,580.5,224.4,579.9z"/>
			<path fill="#295267" d="M153,548.3c0.1-0.5,0.3-0.9,0.7-1.2l5.4-4l35.5-26.3l0.2-0.2l0.1,0.1c0.4-0.3,0.9-0.6,1.4-0.8
				c0.5-0.2,1-0.4,1.4-0.5l12,1.8c0.5,0.2,0.9,0.5,1.4,1c0.5,0.5,0.9,0.9,1.2,1.3l4.1,5.5l12,16.3l1.5,2c0.3,0.4,0.6,0.9,0.8,1.5
				c0.3,0.6,0.4,1.1,0.5,1.6l-1.8,12c-0.2,0.5-0.5,0.9-0.9,1.4c-0.4,0.5-0.8,0.9-1.2,1.1l-2.5,1.9l-33.7,25l-4.6,3.4
				c-0.4,0.3-0.8,0.4-1.3,0.3c-0.5-0.1-0.9-0.3-1.2-0.7l-7.7-10.3c-0.3-0.4-0.4-0.8-0.3-1.3c0.1-0.5,0.3-0.9,0.7-1.2l6.6-4.9
				l26-19.3l4.3-3.2c0.4-0.3,0.6-0.7,0.7-1.2c0.1-0.5,0-0.9-0.3-1.3l-11-14.8c-0.3-0.4-0.7-0.6-1.1-0.7c-0.5,0-0.9,0.1-1.3,0.4
				l-4.4,3.3l-28.9,21.4l-3.6,2.7c-0.4,0.3-0.8,0.4-1.3,0.3c-0.5-0.1-0.9-0.3-1.2-0.7l-7.7-10.4C153,549.2,152.9,548.8,153,548.3z"
				/>
			<path fill="#295267" d="M131.7,478.3c0.3-0.3,0.8-0.7,1.3-1.1c0.5-0.4,1-0.7,1.5-0.8l2.5-1l15.7-6.3l1.6-0.6
				c0.5-0.2,1-0.3,1.7-0.4c0.7-0.1,1.2-0.1,1.7-0.1l11.2,4.8c0.3,0.3,0.7,0.8,1.1,1.3c0.4,0.5,0.7,1.1,0.9,1.5l1,2.5l2.5,6.3
				l3.5,8.8c0.2,0.5,0.5,0.8,0.9,1c0.4,0.2,0.9,0.2,1.3,0l14.2-5.7c1.1-0.4,1.9-0.1,2.3,1l4.8,11.9c0.4,1.1,0.1,1.9-1,2.3l-8.3,3.3
				l-35.8,14.4l-13.2,5.3c-0.5,0.2-0.9,0.2-1.4,0c-0.4-0.2-0.8-0.5-0.9-1l-10.6-26.4l-1.8-4.4l-0.8-2.1c-0.2-0.5-0.3-1-0.4-1.7
				c-0.1-0.7-0.1-1.2-0.1-1.7L131.7,478.3z M157.8,484.2l-15.3,6.1l6.8,17l15.3-6.1L157.8,484.2z"/>
			<path fill="#295267" d="M120.6,413.1c0.4-0.2,0.9-0.5,1.5-0.7s1.1-0.4,1.6-0.5l2.7-0.4l16.7-2.4l1.7-0.2c0.5-0.1,1.1-0.1,1.7,0
				c0.7,0.1,1.2,0.1,1.7,0.3l9.7,7.2c0.2,0.4,0.5,0.9,0.7,1.5c0.3,0.6,0.4,1.2,0.5,1.7l0.4,2.7l1,6.7l1.4,9.4
				c0.1,0.5,0.3,0.9,0.6,1.2c0.4,0.3,0.8,0.4,1.3,0.3l15.1-2.2c1.2-0.2,1.8,0.3,2,1.5l1.9,12.7c0.2,1.2-0.3,1.8-1.5,2l-8.9,1.3
				l-38.2,5.6l-14,2.1c-0.5,0.1-0.9,0-1.3-0.3s-0.6-0.7-0.7-1.2l-4.1-28.1l-0.7-4.7l-0.3-2.2c-0.1-0.5-0.1-1.1,0-1.7
				c0.1-0.7,0.1-1.2,0.3-1.7L120.6,413.1z M144.5,424.9l-16.3,2.4l2.6,18.1l16.3-2.4L144.5,424.9z"/>
			<path fill="#295267" d="M126,341.7c0.5-0.1,1-0.2,1.6-0.3c0.6-0.1,1.2-0.1,1.7,0l1.8,0.2l33.3,3.6l4.8,0.5c0.5,0.1,1,0.2,1.6,0.4
				c0.6,0.2,1.1,0.4,1.5,0.7l7.6,9.5c0.2,0.5,0.3,1,0.4,1.7c0.1,0.7,0.1,1.2,0,1.7l-0.2,1.9l-2.5,22.4l-0.6,5
				c-0.1,0.5-0.2,1-0.4,1.7c-0.2,0.6-0.4,1.1-0.7,1.5l-9.5,7.6c-0.5,0.2-1,0.3-1.6,0.4c-0.6,0.1-1.2,0.1-1.7,0l-1.9-0.2l-33.1-3.6
				l-4.8-0.5c-0.5-0.1-1-0.2-1.6-0.4c-0.6-0.2-1.1-0.4-1.5-0.7l-7.6-9.5c-0.1-0.5-0.3-1-0.3-1.6c-0.1-0.6-0.1-1.2,0-1.7l0.4-4
				l2.1-19.5l0.7-5.9c0.1-0.5,0.2-1.1,0.4-1.7c0.2-0.6,0.5-1.2,0.7-1.6L126,341.7z M130.7,358.1l-2.4,21.8l33.5,3.7l2.4-21.8
				L130.7,358.1z"/>
			<path fill="#295267" d="M203.3,287.6c0.5-0.1,0.8,0,1,0.3c0.2,0.3,0.2,0.6,0,1.1l-5.6,13.7c-0.2,0.5-0.5,0.9-1,1.2
				c-0.4,0.4-0.9,0.6-1.4,0.6l-20.4,3c-0.3,0-0.5,0.2-0.6,0.5l-4,9.8c-0.1,0.3,0,0.5,0.3,0.6l16.1,6.6c1.1,0.4,1.4,1.2,1,2.3
				l-4.9,11.9c-0.4,1.1-1.2,1.4-2.3,1l-28.1-11.5l-14.8-6l-14.2-5.8c-0.5-0.2-0.8-0.5-1-0.9c-0.2-0.4-0.2-0.9,0-1.4l15.3-37.4
				c0.2-0.5,0.5-1,0.9-1.5c0.4-0.5,0.8-1,1.1-1.3l11.2-4.7c0.5,0,1,0,1.7,0.1c0.6,0.1,1.2,0.2,1.6,0.4l11.7,4.8l6.3,2.6l0.9,0.4
				c0.3,0.1,0.7,0.4,1.1,0.8c0.4,0.4,0.8,0.8,1.1,1.2l4.9,11.3L203.3,287.6z M151.3,286.4l-8.5,20.9l14.7,6l4.1-9.9l3.7-9.2l0.1-0.3
				l0.6-1.6l-1.1-0.5l-9.8-4L151.3,286.4z"/>
			<path fill="#295267" d="M195,215.6c0.4,0.3,0.6,0.7,0.7,1.2c0.1,0.5,0,0.9-0.3,1.3l-7.9,10.6c-0.3,0.4-0.4,0.8-0.4,1.3
				c0,0.5,0.3,0.8,0.7,1.1l36.9,27.4c0.4,0.3,0.6,0.7,0.7,1.1c0.1,0.5,0,0.9-0.3,1.3l-7.7,10.4c-0.3,0.4-0.7,0.6-1.2,0.7
				c-0.5,0.1-0.9,0-1.3-0.3L178,244.3c-0.4-0.3-0.8-0.4-1.3-0.3c-0.4,0.1-0.8,0.3-1.1,0.7l-7.9,10.6c-0.3,0.4-0.7,0.6-1.2,0.7
				c-0.5,0.1-0.9,0-1.3-0.3l-9.9-7.3c-0.9-0.7-1.1-1.5-0.4-2.5l7.9-10.6l2.1-2.8l7.7-10.4l2.1-2.8l7.9-10.6c0.3-0.4,0.7-0.6,1.2-0.7
				c0.5-0.1,0.9,0,1.3,0.3L195,215.6z"/>
			<path fill="#295267" d="M268.5,141.4c0.3,0.1,0.5,0.5,0.5,1l3.1,43.3c0,0.5,0.1,1.1,0.4,1.7c0.2,0.6,0.4,1.1,0.7,1.5l11.3,17.4
				c0.3,0.4,0.4,0.9,0.3,1.3c-0.1,0.5-0.3,0.8-0.7,1.1l-10.9,7.1c-0.4,0.3-0.9,0.4-1.3,0.3c-0.5-0.1-0.8-0.4-1.1-0.8l-11.3-17.4
				c-0.3-0.4-0.6-0.8-1.1-1.3c-0.5-0.4-0.9-0.8-1.4-1L218.7,175c-0.4-0.2-0.7-0.5-0.7-0.8c0-0.3,0.2-0.6,0.6-0.9l11.7-7.6
				c0.4-0.3,0.9-0.4,1.4-0.4c0.5,0,1,0.1,1.5,0.3l23.8,13.8l-2.9-27.4c0-0.5,0.1-1,0.4-1.5c0.3-0.5,0.6-0.9,1-1.2l11.7-7.6
				C267.8,141.3,268.2,141.3,268.5,141.4z"/>
			<path fill="#295267" d="M333.9,126.9c0.3,0.4,0.7,0.8,1,1.3c0.3,0.5,0.6,1,0.8,1.5l0.6,1.7l11,31.6l1.6,4.6
				c0.2,0.5,0.3,1,0.3,1.7c0.1,0.6,0.1,1.2,0,1.7l-5.3,10.9c-0.3,0.4-0.8,0.7-1.4,1.1c-0.6,0.3-1.1,0.6-1.6,0.7l-1.9,0.6l-21.3,7.4
				l-4.8,1.6c-0.5,0.2-1,0.3-1.6,0.4c-0.6,0.1-1.2,0.1-1.7,0l-10.9-5.3c-0.4-0.3-0.7-0.8-1-1.3c-0.3-0.5-0.6-1.1-0.7-1.5l-0.6-1.9
				l-10.9-31.5l-1.6-4.6c-0.2-0.5-0.3-1-0.4-1.6c-0.1-0.6-0.1-1.2,0-1.7l5.3-10.9c0.4-0.3,0.8-0.7,1.3-1c0.5-0.4,1-0.6,1.5-0.8
				l3.8-1.3l18.5-6.4l5.6-2c0.5-0.2,1-0.3,1.7-0.3c0.7-0.1,1.2-0.1,1.7,0L333.9,126.9z M321.1,138.2l-20.7,7.2l11,31.8l20.7-7.2
				L321.1,138.2z"/>
			<path fill="#295267" d="M409.5,110.3c0.4,0.3,0.6,0.7,0.6,1.2l0.4,6.7l2.7,44.1l0,0.3l-0.1,0c0,0.5,0,1-0.1,1.6
				c-0.1,0.6-0.2,1-0.4,1.4l-8,9.1c-0.4,0.3-1,0.5-1.6,0.7c-0.6,0.2-1.2,0.3-1.7,0.3l-6.8,0.4l-20.2,1.2l-2.5,0.2
				c-0.5,0-1.1,0-1.7-0.1c-0.6-0.1-1.2-0.2-1.6-0.5l-9.1-8c-0.3-0.4-0.5-0.9-0.7-1.5c-0.2-0.6-0.3-1.2-0.3-1.7l-0.2-3.2l-2.6-41.9
				l-0.4-5.8c0-0.5,0.1-0.9,0.4-1.3c0.3-0.4,0.7-0.6,1.2-0.6l12.8-0.8c0.5,0,0.9,0.1,1.3,0.4c0.4,0.3,0.6,0.7,0.6,1.2l0.5,8.2
				l2,32.3l0.3,5.4c0,0.5,0.2,0.9,0.6,1.2c0.4,0.3,0.8,0.5,1.3,0.4l18.4-1.1c0.5,0,0.9-0.2,1.2-0.6c0.3-0.4,0.4-0.8,0.4-1.3L396,153
				l-2.2-35.9l-0.3-4.5c0-0.5,0.1-0.9,0.4-1.3c0.3-0.4,0.7-0.6,1.2-0.6l12.9-0.8C408.7,109.9,409.1,110,409.5,110.3z"/>
			<path fill="#295267" d="M476.3,186.1c0.1,0.5,0.1,0.8-0.1,1.1c-0.2,0.2-0.6,0.3-1.1,0.2l-14.5-3.2c-0.5-0.1-0.9-0.4-1.4-0.7
				c-0.4-0.4-0.7-0.8-0.9-1.3l-6.4-19.6c-0.1-0.3-0.3-0.4-0.6-0.5l-10.3-2.3c-0.3-0.1-0.5,0.1-0.6,0.4l-3.7,16.9
				c-0.3,1.2-1,1.6-2.1,1.4l-12.6-2.8c-1.2-0.3-1.6-1-1.4-2.1l6.5-29.7l3.4-15.6l3.3-15c0.1-0.5,0.4-0.9,0.8-1.1
				c0.4-0.3,0.9-0.3,1.3-0.2l39.4,8.7c0.5,0.1,1,0.3,1.6,0.6c0.6,0.3,1.1,0.6,1.5,0.9l6.5,10.2c0.1,0.5,0.1,1,0.2,1.7
				c0,0.6,0,1.2-0.1,1.7l-2.7,12.3l-1.5,6.6l-0.2,0.9c-0.1,0.4-0.3,0.8-0.6,1.3c-0.3,0.5-0.6,0.9-0.9,1.3l-10.3,6.7L476.3,186.1z
				 M468.6,134.7l-22-4.8l-3.4,15.5l10.5,2.3l9.7,2.1l0.3,0.1l1.6,0.4l0.3-1.2l2.3-10.3L468.6,134.7z"/>
			<path fill="#295267" d="M570.2,212.7c-0.2,0.6-0.5,1.1-0.8,1.5l-1.6,2.1l-4.1,5.5l-2.7,3.7c-0.3,0.4-0.7,0.8-1.2,1.2
				c-0.5,0.4-0.9,0.7-1.4,1l-12,1.8c-0.5-0.1-1-0.2-1.6-0.5c-0.6-0.3-1.1-0.6-1.5-0.9l-1.6-1.2l-17-12.7l-9.8-7.3
				c-0.9-0.7-1.1-1.5-0.4-2.5l6.7-9c0.3-0.4,0.7-0.6,1.2-0.7c0.5-0.1,0.9,0,1.3,0.3l11.9,8.9l6.4,4.8l7.1,5.3
				c0.4,0.3,0.8,0.4,1.3,0.4c0.5,0,0.8-0.3,1.1-0.7l4.6-6.2c0.3-0.4,0.4-0.8,0.3-1.3s-0.3-0.9-0.7-1.2l-6.7-5l-9-6.7l-1-0.8
				c-0.4-0.3-0.8-0.7-1.2-1.2c-0.4-0.5-0.8-0.9-1-1.3l-1.8-12c0.1-0.5,0.3-1.1,0.6-1.7s0.6-1.1,0.9-1.5l1.1-1.4l6.4-8.5l1-1.3
				c0.3-0.4,0.7-0.8,1.2-1.2c0.5-0.4,0.9-0.7,1.4-0.9l12-1.8c0.5,0.1,1,0.3,1.6,0.5c0.6,0.2,1.1,0.5,1.5,0.8l1.4,1.1l20.8,15.5
				l4.6,3.5c0.4,0.3,0.6,0.7,0.7,1.2c0.1,0.5,0,0.9-0.3,1.3l-6.9,9.2c-0.3,0.4-0.7,0.6-1.2,0.7c-0.5,0.1-0.9,0-1.3-0.3l-5.2-3.9
				l-13.8-10.3l-4.9-3.6c-0.4-0.3-0.8-0.4-1.3-0.4c-0.5,0-0.8,0.3-1.1,0.7l-4.5,6.1c-0.3,0.4-0.4,0.8-0.3,1.3
				c0.1,0.5,0.3,0.9,0.7,1.2l4.8,3.6l10.2,7.6l1.8,1.3c0.4,0.3,0.8,0.7,1.3,1.2c0.4,0.5,0.8,0.9,1,1.4l1.8,12
				C570.6,211.5,570.4,212.1,570.2,212.7z"/>
			<path fill="#295267" d="M626.7,243.1c-0.4,0.3-0.8,0.5-1.3,0.4c-0.5,0-0.9-0.3-1.2-0.6l-8.5-10.2c-0.3-0.4-0.7-0.6-1.2-0.7
				s-0.9,0.1-1.3,0.4l-35.4,29.4c-0.4,0.3-0.8,0.5-1.3,0.4c-0.5,0-0.9-0.2-1.2-0.6l-8.3-10c-0.3-0.4-0.5-0.8-0.4-1.3
				c0-0.5,0.3-0.9,0.6-1.2l35.4-29.4c0.4-0.3,0.6-0.7,0.6-1.1c0-0.4-0.1-0.8-0.4-1.2l-8.5-10.2c-0.3-0.4-0.5-0.8-0.4-1.3
				c0-0.5,0.3-0.9,0.6-1.2l9.5-7.9c0.9-0.8,1.7-0.7,2.5,0.2l8.5,10.2l2.2,2.7l8.3,10l2.2,2.7l8.5,10.2c0.3,0.4,0.5,0.8,0.4,1.3
				c0,0.5-0.3,0.9-0.6,1.2L626.7,243.1z"/>
			<path fill="#295267" d="M671.1,299.7c-0.2,0.5-0.5,0.8-0.9,1l-6.1,2.9l-39.9,19l-0.3,0.1l0-0.1c-0.5,0.2-1,0.4-1.5,0.5
				c-0.6,0.1-1,0.2-1.5,0.2l-11.4-4.1c-0.4-0.3-0.8-0.7-1.2-1.2c-0.4-0.5-0.7-1-0.9-1.5l-2.9-6.1l-8.7-18.3l-1.1-2.3
				c-0.2-0.5-0.4-1-0.5-1.6c-0.2-0.6-0.2-1.2-0.2-1.7l4.1-11.4c0.3-0.4,0.7-0.8,1.2-1.2c0.5-0.4,1-0.7,1.4-0.9l2.9-1.4l37.9-18
				l5.2-2.5c0.4-0.2,0.9-0.2,1.4-0.1c0.5,0.2,0.8,0.5,1,0.9l5.5,11.6c0.2,0.4,0.2,0.9,0.1,1.4c-0.2,0.5-0.5,0.8-0.9,1l-7.4,3.5
				L617,283.4l-4.9,2.3c-0.4,0.2-0.8,0.5-0.9,1c-0.2,0.5-0.1,0.9,0.1,1.4l7.9,16.7c0.2,0.5,0.5,0.7,1,0.9c0.4,0.1,0.9,0.1,1.3-0.1
				l5-2.4l32.5-15.4l4-1.9c0.4-0.2,0.9-0.2,1.4-0.1c0.5,0.2,0.8,0.5,1,0.9l5.6,11.7C671.2,298.8,671.3,299.2,671.1,299.7z"/>
			<path fill="#295267" d="M679.1,378c-0.4,0.3-0.9,0.5-1.5,0.8c-0.6,0.3-1.1,0.4-1.6,0.5l-3.2,0.6l-33.8,5.8l-2.5,0.4
				c-0.5,0.1-1.1,0.1-1.7,0.1c-0.6,0-1.2-0.1-1.7-0.2l-9.9-7c-0.3-0.4-0.6-0.9-0.8-1.5c-0.2-0.6-0.4-1.2-0.5-1.7l-0.6-3.7l-5.1-29.7
				l-1.1-6.4c-0.2-1.2,0.3-1.8,1.4-2l7.8-1.3l45.4-7.8l7.6-1.3c0.5-0.1,0.9,0,1.3,0.3s0.6,0.7,0.7,1.2l1,5.7l4.5,26.2l1.4,7.9
				c0.1,0.5,0.1,1.1,0.1,1.7c0,0.7-0.1,1.2-0.2,1.7L679.1,378z M667.6,349.9l-1.4-7.9l-9.4,1.6l-16.5,2.8l-7.4,1.3l1.4,8.3l0.8,4.5
				l1.5,8.8l6.8-1.2l16.5-2.8l9.9-1.7l-1.5-8.7L667.6,349.9z"/>
			<path fill="#295267" d="M683.9,449.9c-0.4,0.3-0.8,0.4-1.3,0.4l-5.3-0.5l-2.8-0.3l-3.6-0.3c-0.5,0-0.9-0.3-1.2-0.6
				c-0.3-0.4-0.4-0.8-0.3-1.3l0.6-6.6l1.8-19.3l0.5-5.2c0-0.3-0.1-0.5-0.4-0.5l-10.1-0.9c-0.2,0-0.4,0.1-0.4,0.4l-2.5,26.6
				c0,0.5-0.3,0.9-0.6,1.2c-0.4,0.3-0.8,0.4-1.3,0.3l-9.3-0.9c-0.5,0-0.9-0.2-1.2-0.6c-0.3-0.3-0.4-0.8-0.4-1.3l2.5-26.6
				c0-0.3-0.1-0.5-0.4-0.5l-4.6-0.4l-0.1,0l-5.4-0.5c-0.3,0-0.5,0.1-0.5,0.4l-0.4,3.9l-1.9,21l-0.6,6.2c0,0.5-0.3,0.9-0.6,1.2
				c-0.4,0.3-0.8,0.4-1.3,0.4l-3.7-0.3l-4.8-0.4l-3.1-0.3c-0.5,0-0.9-0.3-1.2-0.6c-0.3-0.4-0.4-0.8-0.4-1.3l0.5-5.3l3.3-35.3
				l0.5-5.6c0.1-1.2,0.8-1.7,1.9-1.6l3.2,0.3l53.9,5l4.5,0.4c0.5,0,0.9,0.3,1.2,0.6c0.3,0.4,0.4,0.8,0.4,1.3l-0.6,6.8l-3.4,36.4
				l-0.3,3C684.5,449.2,684.3,449.6,683.9,449.9z"/>
			<path fill="#295267" d="M659.8,524.7c-0.4,0.2-0.9,0.2-1.4,0l-57.8-21.7c-0.5-0.2-0.8-0.5-1-0.9c-0.2-0.4-0.2-0.9,0-1.4l4.3-11.5
				l0.4-1c0.2-0.5,0.5-0.9,0.9-1.3c0.4-0.4,0.9-0.6,1.4-0.7l42.9-6l-35.4-13.2c-1.1-0.4-1.5-1.2-1-2.3l4.5-12.1
				c0.4-1.1,1.2-1.5,2.3-1l57.8,21.7c1.1,0.4,1.5,1.2,1,2.3l-4.6,12.4c-0.2,0.5-0.5,0.9-0.9,1.3c-0.4,0.4-0.9,0.6-1.4,0.7l-43,6
				l35.5,13.3c0.5,0.2,0.8,0.5,1,0.9c0.2,0.4,0.2,0.9,0,1.4l-4.5,12.1C660.5,524.2,660.2,524.5,659.8,524.7z"/>
			<path fill="#295267" d="M610.8,575.4c-0.4-0.3-0.7-0.7-0.7-1.1c-0.1-0.5,0-0.9,0.3-1.3l7.5-10.9c0.3-0.4,0.4-0.8,0.3-1.3
				c-0.1-0.5-0.3-0.8-0.7-1.1l-37.8-26.2c-0.4-0.3-0.7-0.7-0.8-1.1c-0.1-0.5,0-0.9,0.3-1.3l7.4-10.7c0.3-0.4,0.7-0.7,1.1-0.7
				c0.5-0.1,0.9,0,1.3,0.3l37.8,26.2c0.4,0.3,0.8,0.4,1.3,0.3c0.4-0.1,0.8-0.3,1.1-0.7l7.5-10.9c0.3-0.4,0.7-0.7,1.1-0.7
				c0.5-0.1,0.9,0,1.3,0.3l10.1,7c1,0.7,1.1,1.5,0.4,2.5l-7.5,10.9l-2,2.8l-7.4,10.7l-2,2.8l-7.5,10.9c-0.3,0.4-0.7,0.7-1.1,0.7
				c-0.5,0.1-0.9,0-1.3-0.3L610.8,575.4z"/>
			<path fill="#295267" d="M538.7,652.5c-0.4-0.1-0.6-0.4-0.8-0.9l-19.2-62c-0.2-0.5-0.2-1,0-1.5c0.2-0.5,0.5-0.9,0.9-1.2l14.3-9.9
				c0.4-0.3,0.9-0.4,1.4-0.4c0.5,0,1,0.2,1.4,0.5l51.1,40c0.4,0.3,0.6,0.7,0.6,1.1c0,0.4-0.2,0.7-0.6,1l-11.5,8
				c-0.4,0.3-0.9,0.4-1.4,0.4c-0.5,0-1-0.2-1.4-0.5l-36.6-30.6l15.5,45.1c0.2,0.5,0.2,1,0,1.4c-0.2,0.5-0.4,0.9-0.8,1.2l-11.6,8
				C539.4,652.5,539.1,652.6,538.7,652.5z"/>
			<path fill="#295267" d="M472.7,669.1c-0.3-0.3-0.7-0.8-1-1.3c-0.4-0.5-0.6-1-0.8-1.5l-0.6-1.7l-11.7-31.4l-1.7-4.5
				c-0.2-0.5-0.3-1-0.4-1.7c-0.1-0.6-0.1-1.2-0.1-1.7l5-11c0.3-0.4,0.8-0.8,1.3-1.1c0.6-0.3,1.1-0.6,1.6-0.8l1.8-0.7l21.1-7.9
				l4.7-1.8c0.5-0.2,1-0.3,1.6-0.4c0.6-0.1,1.2-0.1,1.7,0l11,5c0.4,0.3,0.7,0.8,1.1,1.3c0.3,0.5,0.6,1,0.8,1.5l0.7,1.8l11.7,31.2
				l1.7,4.5c0.2,0.5,0.3,1,0.4,1.6c0.1,0.6,0.1,1.2,0,1.7l-5,11c-0.3,0.3-0.8,0.7-1.3,1c-0.5,0.4-1,0.6-1.5,0.8l-3.8,1.4l-18.3,6.9
				l-5.6,2.1c-0.5,0.2-1,0.3-1.7,0.4s-1.2,0.1-1.7,0.1L472.7,669.1z M485.2,657.4l20.5-7.7l-11.8-31.5l-20.5,7.7L485.2,657.4z"/>
			<path fill="#295267" d="M429.1,621.5c-0.2-1.2,0.3-1.8,1.5-2l12.7-2.1c1.2-0.2,1.8,0.3,2,1.5l10.3,60.9c0.2,1.2-0.3,1.8-1.5,2
				l-12.7,2.1c-1.2,0.2-1.8-0.3-2-1.5L429.1,621.5z"/>
			<path fill="#295267" d="M403.9,670.5c0.3-0.3,0.5-0.7,0.5-1.2l0.4-30.2c0-0.5-0.2-0.9-0.5-1.3c-0.3-0.3-0.8-0.5-1.3-0.5
				l-29.9-0.4c-0.5,0-0.9-0.2-1.3-0.5c-0.3-0.3-0.5-0.7-0.5-1.2l0.2-12.3c0-0.5,0.2-0.9,0.5-1.3c0.3-0.3,0.8-0.5,1.3-0.5l28.6,0.4
				l5.7,0.1l1.2,0c0.5,0,1.1,0.1,1.7,0.2c0.6,0.1,1.1,0.3,1.6,0.6l8.5,8.7c0.2,0.4,0.4,1,0.5,1.6c0.1,0.6,0.2,1.2,0.2,1.7l0,0.6
				l-0.1,9.9l-0.3,22.2l-0.1,4.9l0,2.5c0,0.5-0.1,1.1-0.2,1.7c-0.1,0.6-0.3,1.1-0.6,1.6l-8.7,8.5c-0.4,0.2-0.9,0.3-1.4,0.5
				c-0.5,0.1-0.8,0.2-1.1,0.2l-0.8,0l-1.2,0l-0.4,0l-0.2,0l-2.1,0l-31.6-0.5c-0.5,0-0.9-0.2-1.3-0.5c-0.3-0.3-0.5-0.8-0.5-1.3
				l0.2-12.3c0-0.5,0.2-0.9,0.5-1.3c0.3-0.3,0.8-0.5,1.3-0.5l29.9,0.4C403.2,671,403.6,670.8,403.9,670.5z"/>
			<path fill="#295267" d="M300.1,669.5c-0.2-0.4-0.3-0.9-0.2-1.4l1.4-5.1l0.7-2.7l1-3.5c0.1-0.5,0.4-0.8,0.8-1
				c0.4-0.2,0.9-0.2,1.3-0.1l6.4,1.8l18.7,5.2l5,1.4c0.3,0.1,0.5,0,0.6-0.3l2.7-9.8c0.1-0.2-0.1-0.4-0.4-0.5l-25.7-7.1
				c-0.5-0.1-0.8-0.4-1-0.8c-0.2-0.4-0.2-0.9-0.1-1.3l2.5-9c0.1-0.5,0.4-0.8,0.8-1.1c0.4-0.2,0.8-0.3,1.3-0.2l25.7,7.1
				c0.3,0.1,0.5,0,0.6-0.3l1.2-4.4l0-0.1l1.4-5.2c0.1-0.3,0-0.5-0.3-0.6l-3.8-1l-20.3-5.6l-6-1.7c-0.5-0.1-0.8-0.4-1.1-0.8
				c-0.2-0.4-0.3-0.9-0.2-1.4l1-3.6l1.3-4.7l0.8-3c0.1-0.5,0.4-0.8,0.8-1.1c0.4-0.2,0.9-0.3,1.4-0.2l5.1,1.4l34.2,9.4l5.4,1.5
				c1.1,0.3,1.6,1,1.2,2.2l-0.8,3.1l-14.4,52.2l-1.2,4.3c-0.1,0.5-0.4,0.8-0.8,1.1c-0.4,0.2-0.9,0.3-1.4,0.2l-6.6-1.8l-35.2-9.7
				l-2.9-0.8C300.7,670.2,300.3,669.9,300.1,669.5z"/>
			<circle fill="#295267" cx="286.3" cy="624.7" r="10.5"/>
			<circle fill="#295267" cx="581.8" cy="575.2" r="10.5"/>
			<circle fill="#295267" cx="504.7" cy="170.6" r="10.5"/>
			<circle fill="#295267" cx="226.7" cy="216.7" r="10.5"/>
		</g>
	</g>
</g>
</svg>
