<?xml version="1.0" encoding="utf-8"?>
<!-- Generator: Adobe Illustrator 18.1.1, SVG Export Plug-In . SVG Version: 6.00 Build 0)  -->
<!DOCTYPE svg PUBLIC "-//W3C//DTD SVG 1.1//EN" "http://www.w3.org/Graphics/SVG/1.1/DTD/svg11.dtd">
<svg version="1.1" id="Layer_3_xA0_Image_1_" xmlns="http://www.w3.org/2000/svg" xmlns:xlink="http://www.w3.org/1999/xlink"
	 x="0px" y="0px" viewBox="0 0 660 660" enable-background="new 0 0 660 660" xml:space="preserve">
<g>
	<path fill="#F0F3F3" d="M23.6,339.4c0-4.9,0-9.8,0-14.7c0.4-2.8,0.4-5.6,0.4-8.4c0.1-8.6,1-17.2,2.1-25.7c1.8-14.6,5-29,8.9-43.2
		c5.5-19.7,12.9-38.6,22.2-56.8c11.7-22.8,25.9-43.9,42.8-63.1c17.4-19.7,36.9-37,58.7-51.7c22.4-15,46.3-27,71.8-35.9
		c20.4-7.1,41.4-11.9,62.8-14.6c8.3-1,16.6-1.4,24.9-1.4c0.6,0,1.3,0.2,1.9-0.2c7.1,0,14.3,0,21.4,0c2.8,0.6,5.8,0.3,8.6,0.4
		c11,0.1,21.9,1.8,32.7,3.6c25.6,4.3,50.1,11.9,73.8,22.5c20.1,9,38.9,20.1,56.7,33.1c14.2,10.4,27.3,21.9,39.5,34.6
		c13.4,14,25.3,29.2,35.8,45.4c7.3,11.2,13.7,23,19.5,35c8,16.6,14.3,33.8,19.3,51.5c4.2,15.2,7.1,30.7,8.9,46.3
		c1,8.2,1.2,16.4,1.1,24.7c0,6.3,0,12.6,0,18.8c0.5,20.3-2.6,40.1-7.1,59.8c-6.1,26.8-15.8,52.3-28.6,76.6
		c-10.7,20.3-23.7,39.1-38.8,56.4c-17.7,20.5-38,38.2-60.5,53.3c-15.7,10.5-32.1,19.5-49.4,27c-20.5,8.8-41.6,15.5-63.5,19.8
		c-11.7,2.3-23.5,4-35.5,4.4c-2.8,0.1-5.6-0.2-8.4,0.4c-9.8,0-19.6,0-29.4,0c-2.8-0.6-5.7-0.3-8.6-0.4c-13.4-0.4-26.6-2.7-39.7-5.4
		c-19-3.9-37.4-9.6-55.3-17.1c-16-6.7-31.3-14.7-46-23.9c-14.7-9.2-28.5-19.7-41.4-31.3c-18.5-16.6-34.6-35.2-48.6-55.8
		c-8.4-12.4-15.9-25.3-22.4-38.7c-10.4-21.6-18.4-44.1-23.6-67.6c-2.6-11.8-4.5-23.8-5.7-35.8c-0.7-6.6-0.8-13.2-1-19.8
		C23.8,340.8,24,340,23.6,339.4z"/>
	<path fill="#F9FAFA" d="M637.5,340.3c-0.1,0-0.3,0-0.4,0c0-6.7,0-13.4,0-20.1c0.1,0,0.3,0,0.4,0
		C637.5,326.9,637.5,333.6,637.5,340.3z"/>
	<path fill="#2B5166" d="M343.4,622.6c-61.8,0-108.1-11.8-151.3-35c-43.2-23.2-78.3-55.4-105.2-96.4
		c-31.7-48.3-47.8-101.5-48.1-159.3c-0.2-48.1,10.9-93.5,33-136.1C95.6,150,129.3,113,172.7,85.2C221.5,53.9,275,38.5,332.8,38.4
		c81,2.1,150.9,30.7,207.4,89.1c55.5,57.3,82.2,126.7,82.6,206.3c-2.4,79.9-31.3,148.5-87.6,205.3
		C477.9,593.6,409.9,621.6,343.4,622.6z"/>
	<path fill="#F0F3F3" d="M516.1,329.4c-1,51.9-18.7,96.5-55.2,132.7c-32.4,32.1-71.9,49.5-117.4,53.3c-56,2.7-104.2-15-144.4-54.3
		c-35.4-37.4-54.2-81.6-53.2-133.3c1-51.8,20.4-96.1,58-131.7c36.4-34.5,80.4-50.9,130.5-50.7c49.9,1.9,93.1,19.4,128.2,55.3
		C497.6,236.6,514.8,280,516.1,329.4z"/>
	<path fill="#F0F2F3" d="M544.1,419.8c1.9,1.3,3.8,1.7,5.6,2.4c8.2,3.1,16.4,6.1,24.6,9.1c0.2,0.1,0.4,0.2,0.6,0.3
		c2.6,1.2,2.8,1.8,1.8,4.5c-1.1,2.8-2.2,5.7-3.3,8.5c-0.7,1.8-1.4,2.2-3.2,1.6c-4-1.4-8.1-3-12.1-4.5c-4.6-1.7-9.3-3.5-13.9-5.2
		c-7.5-2.8-15-5.7-22.4-8.5c-1.2-0.5-2.5-0.8-3.8-1.3c-1.6-0.6-2.1-1.5-1.5-3.1c1.3-3.5,2.7-6.9,4-10.4c0.9-2.3,2.9-2.6,4.8-2.9
		c3.9-0.6,7.7-1.3,11.6-1.7c4-0.4,8-1.4,12.1-1.5c2.2-0.1,4.4-0.6,6.6-0.9c2-0.3,3.9-0.6,5.9-1c0.1-0.6-0.5-0.6-0.9-0.8
		c-6.9-2.8-14-5.2-21-7.9c-3-1.2-6.1-2.3-9.1-3.5c-1.7-0.7-1.9-1.1-1.3-2.9c0.7-2.1,1.5-4.2,2.2-6.3c0.5-1.3,0.9-2.5,1.4-3.7
		c0.6-1.7,1.2-2,2.8-1.4c3,1,6,2.1,8.9,3.3c4.1,1.8,8.3,3,12.5,4.7c6.3,2.5,12.7,4.9,19.1,7.3c4.1,1.5,8.2,3,12.3,4.6
		c1.7,0.6,2,1.3,1.3,2.8c-1.4,3.4-2.5,6.8-3.8,10.2c-0.6,1.6-1.6,2.6-3.6,2.8c-4.4,0.4-8.8,1.2-13.1,1.9c-3,0.4-6,0.8-9,1.2
		c-2.1,0.3-4.2,0.5-6.3,0.9C550.6,418.9,547.4,419,544.1,419.8z"/>
	<path fill="#F0F3F3" d="M596.9,298.5c-0.5,1.4-0.3,3-1.5,4.3c-1.5,1.7-3,3.5-4.1,5.5c-1.3,2.4-3.4,2.9-5.7,3.3
		c-4.9,0.9-9.9,1.7-14.8,2.5c-6.5,1.1-13,2.1-19.4,3.3c-2.5,0.5-4.5-0.1-6.3-1.7c-1.8-1.5-3.9-2.6-5.9-4c-1.5-1.1-2.2-2.5-2.4-4.1
		c-1-7.8-2.7-15.6-4-23.3c-0.7-4.4-1.5-8.7-2.2-13.1c-0.2-1.4,0.1-1.8,1.6-2.1c6.2-1.1,12.4-2.1,18.5-3.2c4.4-0.7,8.7-1.5,13.1-2.3
		c4-0.7,8-1.4,12-2.1c3.9-0.7,7.9-1.3,11.8-2c1.8-0.3,2.4,0,2.7,1.9c1.5,7.8,2.8,15.7,4.1,23.6c0.7,4.2,1.6,8.4,2.4,12.6
		C596.8,298.1,596.8,298.3,596.9,298.5z"/>
	<path fill="#F0F2F3" d="M409.7,84.3c0.2,2-0.7,4-1.1,6c-0.7,4-1.6,8-2.6,11.9c-0.5,2.1-1.3,4-3.6,5.1c-2.2,1.1-4.2,2.7-6.3,4.2
		c-1.3,0.9-1.3,1.1-0.8,2.6c1.9,5.2,3.8,10.5,5.6,15.7c0.2,0.6,0.4,1.1,0.6,1.7c0.4,1.6-0.1,2-1.7,1.7c-4.2-0.9-8.4-1.8-12.6-2.8
		c-1.3-0.3-2.1-1.3-2.5-2.6c-1.5-4.7-3.1-9.4-4.6-14.1c-0.3-0.8-0.6-1.5-0.7-2.3c-0.1-1-0.7-1.5-1.5-1.7c-2.8-0.7-5.6-1.3-8.4-1.9
		c-0.7-0.2-1.1,0.2-1.2,0.9c-0.6,2.5-1.3,5-1.7,7.6c-0.4,2.4-1.2,4.7-1.5,7.1c-0.2,1.5-1.1,1.9-2.6,1.6c-3.5-0.8-7.1-1.6-10.6-2.5
		c-1.7-0.4-2-0.8-1.7-2.4c1.5-6.8,3-13.6,4.4-20.4c1.8-8.2,3.5-16.5,5.3-24.7c0.7-3.2,1.4-6.5,2.2-9.7c0.5-2.1,0.9-2.3,3.1-1.8
		c11.1,2.4,22.2,4.8,33.3,7.3c0.9,0.2,1.9,0.5,2.8,0.8c1.4,0.3,2.4,1.1,3.1,2.3c1.4,2.3,2.9,4.6,4.4,7
		C409.7,82.3,409.7,82.3,409.7,84.3z"/>
	<path fill="#F0F3F3" d="M100.9,209.5c2.3,0.1,3.8,0.9,5.3,1.6c3.5,1.5,7,2.8,10.4,4.3c2,0.9,4.3,1.3,5.8,3.2c0.4,0.5,0.8,1,1.1,1.7
		c1.1,2.6,2.2,5.2,3.4,7.7c0.7,1.6,0.8,1.5,2.5,1.2c6.1-1,12.2-2,18.3-3c1.3-0.2,1.7,0.3,1.2,1.5c-1.6,3.9-3.2,7.8-4.7,11.7
		c-0.7,1.6-1.9,2.4-3.6,2.6c-5.3,0.8-10.7,1.6-16,2.3c-1.7,0.2-2.7,0.9-3.3,2.5c-0.7,1.8-1.5,3.6-2.2,5.3c-0.9,2.2-0.8,2.5,1.5,3.5
		c2.4,1,4.8,1.9,7.2,2.9c1.7,0.7,3.4,1.4,5.1,2.1c1.7,0.7,2,1.3,1.3,3c-0.7,1.9-1.5,3.7-2.3,5.5c-0.5,1.3-1,2.6-1.5,3.9
		c-0.8,1.9-1.6,2.2-3.4,1.4c-8.6-3.5-17.2-7-25.7-10.4c-8-3.2-15.9-6.5-23.9-9.7c-0.6-0.3-1.2-0.6-1.8-0.9c-1.7-0.9-2-1.3-1.3-3.2
		c1.1-2.9,2.3-5.8,3.4-8.7c2.1-5.3,4.3-10.6,6.5-15.8c1.3-3.2,2.6-6.3,3.9-9.4c0.7-1.6,1.7-2.7,3.4-3.3c2.6-0.9,5-2.1,7.5-3.2
		C99.8,209.8,100.6,209.5,100.9,209.5z"/>
	<path fill="#F0F2F3" d="M283.5,116.8c0.1,1-0.2,1.9-0.7,2.8c-1.2,2.4-2.6,4.9-3.7,7.4c-0.7,1.5-1.8,2.3-3.3,2.8c-2,0.7-4,1.3-5.9,2
		c-5.2,1.8-10.3,3.7-15.5,5.5c-1.9,0.7-3.8,1.1-5.7,1.8c-1.7,0.6-2.9-0.5-4.2-1c-2.2-0.9-4.2-2.2-6.4-3.1c-1.8-0.7-2.7-2-3.2-3.7
		c-0.7-2-1.3-4.1-2-6.1c-2.1-6-4.2-12-6.3-18c-1.3-3.8-2.5-7.6-3.8-11.4c-0.4-1.3-0.4-2.4,0.2-3.6c1.4-2.6,2.7-5.3,4-8
		c0.5-1.1,1.2-1.8,2.3-2.3c1-0.4,1.9-0.9,2.9-1.2c6.4-2.3,12.8-4.6,19.3-6.7c1.9-0.6,3.7-1.4,5.7-1.8c1-0.2,1.9-0.2,2.8,0.3
		c2.8,1.4,5.6,2.8,8.4,4.2c1.7,0.8,2.5,2.3,3.1,3.9c1.6,4.5,3.1,9.1,4.7,13.7c2.3,6.5,4.5,13,6.8,19.5
		C283.3,114.6,283.7,115.7,283.5,116.8z"/>
	<path fill="#F0F3F3" d="M63.7,313.9c0-3.1,0.4-5.7,0.8-8.2c0.3-1.8,0.3-3.5,0.5-5.3c0.5-4.3,0.9-8.5,1.4-12.8
		c0.1-0.8,0.3-1.6,0.5-2.4c0.2-1,0.7-1.8,1.5-2.4c2.1-1.7,4.3-3.4,6.4-5.1c1.8-1.4,3.8-2,6-1.4c1.6,0.4,3.2,0.3,4.8,0.5
		c4.7,0.6,9.4,0.9,14.1,1.5c4.8,0.6,9.5,1.3,14.3,1.6c3.9,0.2,6.1,1.9,8.1,4.8c1.1,1.6,2.4,3.2,3.7,4.7c0.5,0.6,0.7,1.3,0.7,2
		c0.2,2.8-0.2,5.5-0.6,8.2c-0.4,2.3-0.3,4.7-0.7,7c-0.5,3.3-0.7,6.6-1.3,9.9c-0.2,1.4-0.3,2.8-0.5,4.2c-0.3,1.7-0.9,3-2.4,4
		c-2.3,1.6-4.4,3.4-6.6,5.2c-1.3,1.1-2.9,1.2-4.4,0.9c-2.4-0.4-4.8-0.5-7.3-0.8c-3.1-0.4-6.3-0.8-9.4-1.2c-2.1-0.3-4.1-0.3-6.2-0.6
		c-3.7-0.5-7.5-0.7-11.2-1.3c-0.4-0.1-0.9,0-1.3-0.1c-1.9-0.1-3.4-0.7-4.8-2.3c-1.5-1.8-2.8-3.8-4.4-5.5
		C63.9,317.4,63.2,315.6,63.7,313.9z"/>
	<path fill="#F0F2F3" d="M418.2,517.7c0.7,0.2,1.5,0.4,2.2,0.7c2.7,1.2,5.4,2.4,8.1,3.6c1.4,0.6,2.2,1.8,2.7,3.1
		c1.3,3.2,2.6,6.5,3.7,9.8c2.4,7.1,5.3,14,7.9,21c0.5,1.3,1,2.6,1.5,3.9c0.6,1.7,0.6,3.2-0.3,4.9c-1.2,2.1-2.3,4.4-3.1,6.6
		c-0.8,2.2-2.4,3.2-4.4,3.9c-7.9,2.9-15.8,5.9-23.7,8.9c-2.1,0.8-4.2,1.2-6.4-0.1c-2.2-1.2-4.6-2.1-6.9-3.1
		c-1.4-0.6-2.2-1.6-2.6-2.8c-2.3-6-4.5-12.1-6.8-18.1c-2-5.4-4-10.8-6.1-16.2c-0.9-2.4-0.7-4.6,0.4-6.9c1.1-2.1,2-4.3,3-6.5
		c0.4-1,1.2-1.6,2.1-2.1c3-1.5,6.2-2.5,9.3-3.7c5.8-2.2,11.7-4.3,17.5-6.5C416.9,518,417.5,517.9,418.2,517.7z"/>
	<path fill="#F0F3F3" d="M255,523.5c1.9,0.1,3.6,0.7,5.4,1.2c7.5,2.1,15,4.2,22.4,6.3c4.1,1.1,8.3,2.2,12.4,3.4
		c2.5,0.7,2.6,0.9,2.1,3.4c-0.7,3.7-2,7.3-3,10.9c-1.7,6.1-3.3,12.3-5,18.4c-1.9,6.9-3.9,13.8-5.8,20.7c-0.3,1.1-0.6,2.3-0.9,3.4
		c-0.5,1.8-1.2,2.3-3,1.8c-5.4-1.4-10.7-2.9-16.1-4.4c-5.5-1.5-11-3-16.5-4.5c-2.4-0.7-4.9-1.3-7.3-2c-1.7-0.5-2.1-1.1-1.8-2.9
		c0.6-3.3,1.8-6.6,2.7-9.8c0.3-1.2,0.9-1.4,2.2-1.1c1.4,0.3,2.8,0.8,4.3,1.2c7.1,2,14.1,3.9,21.2,5.9c2.4,0.7,2.8,0.5,3.5-1.9
		c0.5-1.7,0.9-3.4,1.4-5.1c0.5-2,0.4-2.2-1.7-2.7c-1.7-0.4-3.3-0.9-4.9-1.3c-5.3-1.5-10.7-3-16-4.5c-2.4-0.7-2.5-0.8-1.9-3.2
		c0.6-2.2,1.2-4.4,1.8-6.6c0.4-1.6,1.2-2.1,2.8-1.7c2.4,0.6,4.7,1.3,7.1,1.9c4.8,1.4,9.7,2.7,14.5,4.1c2,0.6,2.1,0.5,2.7-1.4
		c0.6-2.1,1.1-4.3,1.7-6.4c0.3-1.2,0.2-1.4-1.2-1.8c-6.3-1.7-12.5-3.5-18.8-5.2c-2.5-0.6-4.9-1.8-7.5-2.1c-1.4-0.2-1.9-1.1-1.6-2.4
		c0.8-3.4,1.8-6.7,2.7-10.1C253.2,523.6,254,523.4,255,523.5z"/>
	<path fill="#F0F2F3" d="M535,368.8c0.6-2.5,0.2-5,0.8-7.5c0.4-2,0.3-4,0.5-6c0.3-4.1,0.8-8.2,1.1-12.4c0.2-3.4,0.4-6.9,1.1-10.3
		c0.3-1.2,0.1-2.5,0.1-3.8c0.1-2.3,0.6-3,2.9-2.9c2.6,0.1,5.1,0.5,7.7,0.8c1.7,0.2,3.4,0.3,5.1,0.4c2.7,0.1,5.3,0.5,8,0.7
		c2.2,0.1,4.4,0.2,6.6,0.7c1.9,0.4,3.8,0.4,5.7,0.5c4.6,0.3,9.1,1,13.7,1.3c2.4,0.2,4.8,0.5,7.3,0.6c3.4,0.1,4.2,0.8,3.7,4.1
		c-0.5,3.8-0.6,7.6-1.2,11.4c-0.3,1.7-0.3,3.4-0.4,5.1c-0.2,4.1-0.8,8.2-1,12.4c-0.2,3.7-0.7,7.5-1.3,11.2c-0.3,1.9-0.7,2.2-2.7,2.1
		c-2.1-0.1-4.3-0.2-6.4-0.6c-1-0.2-2.1-0.2-3.1-0.3c-1.6-0.1-2.2-0.9-2-2.5c0.3-2.3,0.6-4.5,0.7-6.8c0.2-2.9,0.6-5.9,0.8-8.8
		c0.2-2.3,0.6-4.5,0.6-6.8c0-1.6,0.6-3,0.5-4.6c-0.1-1.1-0.4-1.4-1.5-1.7c-2.3-0.6-4.6-0.1-6.8-0.8c-0.9-0.3-1.6,0.2-1.8,1.2
		c-0.1,0.4-0.1,0.9-0.1,1.3c0,3-0.5,5.9-0.8,8.8c-0.2,2.1-0.4,4.1-0.5,6.2c-0.1,2.2-0.5,4.4-0.6,6.6c0,2.1-0.7,2.2-2.8,2.2
		c-2.2,0-4.4-0.6-6.6-0.6c-1.9,0-2.5-0.6-2.5-2.6c0.1-2.3,0.2-4.6,0.6-6.8c0.4-2.4,0.2-4.9,0.7-7.3c0.5-2.6,0.2-5.3,0.8-7.9
		c0.1-0.5,0.1-1,0.1-1.6c0-0.6-0.3-1-0.9-1c-2.7-0.1-5.4-0.5-8.2-0.7c-0.8-0.1-1.1,0.4-1.1,1.1c0,0.9-0.4,1.8-0.4,2.6
		c0.1,2.4-0.4,4.7-0.6,7.1c-0.2,2.4-0.2,4.9-0.7,7.3c-0.4,2-0.5,4.1-0.5,6.2c0,1.7-0.6,3.4-0.5,5.1c0,0.9-0.6,1.3-1.5,1.3
		c-1.8-0.1-3.6,0.3-5.3-0.3c-0.8-0.2-1.6-0.1-2.4-0.2c-0.9,0-1.8-0.1-2.6-0.3c-1.9-0.6-1.9-0.5-1.9-2.4
		C535,369.4,535,369.1,535,368.8z"/>
	<path fill="#F0F3F3" d="M299.9,63.4c0.8,0,1.8,0,2.7,0c1.1,0.1,1.7,0.7,1.9,1.8c0,0.2,0,0.4,0,0.7c-0.3,3.3,0.4,6.7,0.6,10
		c0.2,2.8,0.1,5.6,0.4,8.4c0.4,4.6,0.6,9.3,0.9,13.9c0.2,2.4,0.3,4.7,0.4,7.1c0,0.1,0,0.3,0,0.4c0.3,2.9,1.2,3.6,4.1,3
		c1-0.2,2-0.3,3.1-0.3c3.6,0.1,7.2-0.6,10.9-0.5c1.8,0.1,2.4-0.7,2.5-2.6c0-4.6-0.4-9.2-0.8-13.7c-0.1-0.8-0.1-1.6,0-2.4
		c0.1-3.6-0.4-7.1-0.6-10.6c-0.2-4.6-0.8-9.3-0.8-13.9c0-0.4,0-0.7,0-1.1c0-0.8,0.4-1.2,1.2-1.4c0.7-0.1,1.4-0.4,2.2-0.4
		c3-0.2,6.1,0,9.1-0.4c2.1-0.3,2.5,0.4,2.7,2.5c0.4,4.9,0.6,9.7,1,14.6c0.2,2.3,0.2,4.6,0.4,6.9c0.4,5,0.4,10.1,1,15
		c0.4,3.2,0.1,6.4,0.5,9.5c0.2,1.6-0.3,3.2-1.7,4.6c-2,1.9-3.7,4.2-5.5,6.3c-0.8,0.9-1.8,1.5-2.9,1.5c-2.2,0-4.2,0.7-6.4,0.6
		c-4-0.2-8,0.3-12,0.6c-3.1,0.2-6.2,0-9.3,0.7c-1.9,0.4-3.6-0.3-5-1.7c-1.8-1.8-3.9-3.5-5.9-5.1c-1.6-1.3-2.4-3-2.3-4.9
		c0.2-3.6-0.4-7.2-0.6-10.9c-0.2-5-0.5-10-0.9-15c-0.3-4.9-0.8-9.9-0.9-14.8c0-1.8-0.5-3.7-0.4-5.5c0.1-1.5,0.6-2.2,2-2.1
		C294.1,64,296.9,63.2,299.9,63.4z"/>
	<path fill="#F0F2F3" d="M173.9,467.3c-0.5,3.4-1.1,6.8-1.7,10.3c-0.2,1-0.7,1.7-1.6,2.3c-8,5.9-16,12-24,17.9
		c-4.5,3.3-8.9,6.7-13.4,9.9c-1.5,1.1-2.2,1-3.5-0.2c-1-1-1.6-2.3-2.5-3.4c-1.2-1.7-2.7-3.2-3.7-5c-1.2-2-1.2-2.3,0.6-3.7
		c3.8-2.9,7.8-5.6,11.6-8.6c5.5-4.3,11.4-8.2,16.8-12.7c1-0.8,2.1-1.4,3.1-2.2c0.4-0.3,0.9-0.6,1.2-0.9c1.5-1.4,1.6-2.2,0.4-3.8
		c-1.4-1.8-2.7-3.7-4.1-5.5c-1.6-2.1-3.1-4.1-4.7-6.2c-1.5-1.9-1.9-2.1-4-0.6c-2.8,2-5.5,4-8.2,6c-3.3,2.5-6.5,5.1-9.9,7.5
		c-4.9,3.4-9.6,7.2-14.5,10.6c-1.6,1.1-2.2,1.1-3.4-0.5c-2.2-2.9-4.3-5.8-6.5-8.7c-1-1.3-0.9-1.9,0.4-2.9c1.4-1.1,2.9-2.1,4.3-3.2
		c5.9-4.3,11.8-8.7,17.7-13c4.5-3.3,8.9-6.6,13.3-10c4.2-3.2,4.6-3.3,9.8-2.4c1.6,0.3,3.2,0.6,4.8,0.8c1.3,0.1,2.2,0.6,3.1,1.5
		c2.4,2.2,4,5,5.9,7.5c3.6,4.7,7,9.5,10.5,14.3C172.9,463.9,174.2,465.2,173.9,467.3z"/>
	<path fill="#F0F2F3" d="M536.6,259.1c-1,0.1-1.9-0.1-2.7-0.4c-2.5-0.9-5-1.9-7.5-2.8c-1.3-0.5-2.2-1.4-2.8-2.7
		c-2.2-4.7-4.4-9.4-6.6-14.1c-1.1-2.2-2.2-4.4-3.3-6.6c-0.6-1.2-1-2.5-1.7-3.6c-1.2-2.2-1-4.2-0.1-6.4c0.9-2.3,1.8-4.5,2.6-6.9
		c0.4-1.1,1-2,2.1-2.5c2.4-1.3,4.8-2.6,7.3-3.7c4.4-2.1,8.9-4.1,13.3-6.2c7.3-3.5,14.6-7,21.8-10.5c2-1,2.7-0.8,3.7,1.3
		c1.5,3.1,3,6.3,4.5,9.4c0.7,1.6,0.6,2.1-1,2.8c-3.4,1.6-6.9,3.2-10.3,4.8c-0.5,0.2-1.1,0.5-1.6,0.8c-8.2,4.1-16.4,7.9-24.7,11.7
		c-3,1.4-3.1,1.8-1.7,4.9c2,4.1,3.9,8.3,5.9,12.5c0.1,0.2,0.2,0.4,0.3,0.6c1.1,1.8,1.5,2,3.4,1c2.1-1,4.3-2,6.4-3
		c7-3.2,13.9-6.6,20.9-9.9c3.2-1.5,6.4-3.1,9.6-4.6c1.6-0.8,2.5-0.5,3.3,1c1.6,3.2,3.1,6.4,4.6,9.6c0.7,1.6,0.6,2.3-1,3.1
		c-4.6,2.3-9.2,4.4-13.8,6.6c-0.5,0.2-1,0.4-1.4,0.6c-7.6,3.6-15.1,7.3-22.7,10.9c-1.3,0.6-2.7,1.2-4,1.8
		C538.4,259,537.5,259.2,536.6,259.1z"/>
	<path fill="#F0F3F3" d="M478.1,107.5c1.6,0.1,2.8,0.4,4,1.3c4.9,3.7,10,7.2,14.8,11c3,2.3,6.1,4.5,9.1,6.7c1.7,1.3,1.9,2.2,0.7,3.9
		c-1.7,2.5-3.5,5-5.5,7.2c-1.2,1.4-1.6,1.5-3.1,0.4c-2.2-1.6-4.4-3.2-6.6-4.9c-4.7-3.5-9.5-7.1-14.2-10.6c-1.6-1.2-2.6-1-3.8,0.5
		c-1,1.4-2,2.8-2.9,4.2c-1.2,1.8-1.2,2,0.5,3.3c2.7,2.1,5.5,4.2,8.3,6.3c2.4,1.8,4.7,3.6,7.1,5.3c1.2,0.9,1.8,2,2,3.5
		c0.2,2.3,0.5,4.7,1,7c0.4,1.8,0.2,3.4-0.9,4.8c-2.6,3.6-5.2,7.2-7.8,10.8c-1.1,1.6-2.7,2.4-4.7,2.5c-2.4,0.2-4.8,0.8-7.2,1.2
		c-1.7,0.3-3.2,0-4.6-1c-5.6-4.2-11.2-8.3-16.8-12.4c-3-2.2-5.9-4.4-8.9-6.7c-1.8-1.3-1.9-2-0.6-3.9c1.7-2.4,3.5-4.6,5.1-7
		c0.9-1.3,1.8-1.4,3.2-0.5c2,1.4,4.1,2.7,6,4.3c4.5,3.7,9.3,6.9,13.8,10.4c1,0.8,2,1.6,3,2.3c1.3,0.9,1.9,0.9,2.8-0.3
		c1.3-1.7,2.6-3.4,3.8-5.2c0.9-1.4,0.8-2-0.6-3c-4.9-3.7-9.9-7.3-14.8-11c-1.3-1-2.3-2.1-2.5-4c-0.3-3.1-1-6.3-1.4-9.4
		c-0.2-1.3,0.7-2.4,1.5-3.4c2.6-3.5,5.2-7,7.8-10.5c0.7-1,1.7-1.6,2.8-1.8C471.7,108.4,475,108,478.1,107.5z"/>
	<path fill="#F0F3F3" d="M189.4,482.9c1.6-0.1,2.8,0.6,3.9,1.5c4.9,3.9,9.9,7.8,14.8,11.7c3.4,2.7,6.8,5.4,10.3,8.1
		c1.5,1.2,1.6,1.7,0.4,3.3c-1.9,2.5-3.9,5-5.9,7.5c-1.1,1.3-1.8,1.3-3.2,0.1c-2.5-2-4.9-4-7.4-6c-4.5-3.7-9.3-7.1-13.7-11
		c-0.4-0.3-0.9-0.6-1.3-0.9c-0.9-0.6-1.7-0.5-2.4,0.3c-1.5,1.9-3,3.8-4.5,5.8c-0.6,0.8-0.2,1.8,0.9,2.6c2.9,2.2,5.8,4.3,8.6,6.6
		c2.3,1.9,4.7,3.6,6.8,5.7c1,1,1.5,2.1,1.5,3.5c0.1,1.8,0.3,3.5,0.6,5.3c0.6,3.2,0.2,5.9-2.1,8.4c-2.3,2.5-4.2,5.3-6.4,8
		c-1.3,1.6-2.6,2.9-5,2.9c-2.8,0.1-5.6,0.7-8.3,1.1c-1.6,0.2-2.8-0.6-3.8-1.4c-3.7-2.7-7.2-5.6-10.8-8.5c-2.5-2-5-4-7.5-5.9
		c-1.8-1.4-3.6-2.8-5.4-4.3c-1.8-1.5-1.7-2-0.3-3.8c1.9-2.3,3.7-4.6,5.5-7c1-1.3,1.9-1.4,3.2-0.4c5.5,4.4,10.9,8.8,16.5,13
		c1.3,1,2.5,2.1,3.7,3.2c1.7,1.4,2.8,1.3,4.1-0.4c1-1.3,2-2.5,3-3.9c1.2-1.6,1-2.6-0.5-3.8c-4.4-3.4-8.9-6.9-13.3-10.3
		c-0.9-0.7-1.7-1.6-2.6-2.5c-0.4-0.4-0.6-0.8-0.6-1.4c-0.4-3.4-0.9-6.7-1.3-10.1c-0.2-1.2,0.5-2.2,1.1-3.1c1.3-1.8,2.5-3.7,4-5.3
		c1.7-1.9,3-4,4.8-5.9c0.9-0.9,1.8-1.5,3-1.7C183.2,483.7,186.3,483.3,189.4,482.9z"/>
	<path fill="#F0F2F3" d="M77.5,414.3c-0.3-1.5,0.6-2.7,1.1-4c0.7-1.8,1.6-3.5,2.2-5.4c0.6-1.9,2-2.9,3.7-3.6
		c5.9-2.3,11.7-4.6,17.5-7c2.1-0.9,4-0.6,6,0.3c2.3,1.1,4.6,2.1,6.9,3c1.6,0.7,2.5,2,3.2,3.5c2,5,4,10,6.1,15
		c0.8,2.1,1.2,2.3,3.3,1.4c3.6-1.4,7.1-2.9,10.7-4.4c0.4-0.2,0.8-0.3,1.3-0.5c1.4-0.4,2-0.2,2.5,1.1c1.5,3.6,2.9,7.1,4.3,10.7
		c0.5,1.2,0.1,1.8-1.2,2.4c-3.8,1.5-7.6,3-11.3,4.5c-8.9,3.6-17.7,7.1-26.6,10.7c-4.7,1.9-9.3,3.8-14,5.7c-1.9,0.7-2.7,0.4-3.4-1.5
		c-1.2-3-2.4-5.9-3.6-8.9c-2.4-6-4.9-12.1-7.3-18.1C78.2,417.8,77.3,416.2,77.5,414.3z"/>
	<path fill="#F0F3F3" d="M94.5,338.9c1.5-0.3,2.9,0.4,4.2,1.5c1.8,1.5,3.7,2.9,5.7,4.2c2.3,1.5,2.6,3.8,3,6.2
		c0.5,3.7,1,7.5,1.7,11.2c0.3,1.4,0.4,2.8,0.6,4.2c0.2,1.2,0.7,1.6,2,1.5c1.3-0.1,2.6-0.3,3.9-0.5c2.6-0.5,5.3-0.5,7.9-1.3
		c0.7-0.2,1.5-0.1,2.2-0.1c1,0.1,1.6,0.7,1.8,1.7c0.6,3.8,1.1,7.6,1.6,11.4c0.1,1.1-0.6,1.9-1.9,2c-4.3,0.6-8.6,1.2-12.9,1.8
		c-4.7,0.7-9.3,1.4-14,2.1c-3.6,0.5-7.3,0.9-11,1.5c-3.4,0.5-6.8,1.3-10.3,1.6c-2.7,0.2-5.2,1.3-7.9,1.1c-1.7-0.1-1.8,0-2.2-1.8
		c-0.5-2.7-0.9-5.4-1.3-8.1c-0.4-2.6-0.7-5.3-1.1-7.9c-0.5-3.6-1-7.1-1.6-10.7c-0.2-1.5-0.3-2.9-0.7-4.4c-0.5-2.1-0.1-3.8,1.3-5.5
		c1.6-1.9,3.1-4,4.4-6.1c0.9-1.6,2.3-2.3,3.9-2.6c3.3-0.6,6.6-1,9.8-1.4c2.4-0.3,4.8-0.6,7.2-1.1C92.1,339,93.1,339,94.5,338.9z"/>
	<path fill="#F0F3F3" d="M458.2,513.7c1.3,3.7,2.3,7,3.5,10.1c1.4,3.8,2.6,7.7,3.9,11.6c2.1,6,4.2,12,6.3,18c0.2,0.5,0.2,1,0.4,1.5
		c0.5,1.2,0,2-1,2.6c-1.5,1-3,2.1-4.5,3.2c-1.7,1.2-3.4,2.4-5.1,3.6c-1.7,1.1-2.5,0.8-3.1-1.1c-2.1-6.6-4.1-13.3-6.1-20
		c-0.8-2.6-1.6-5.2-2.4-7.8c-2.4-7.8-4.9-15.5-7.3-23.3c-0.5-1.7-1-3.4-1.4-5.1c-0.5-1.8-0.3-2.2,1.3-3.3c3.2-2.2,6.3-4.4,9.5-6.5
		c0.6-0.4,1.2-0.7,1.7-1.1c2.9-2.6,3.3-1.5,5.3,0c6.6,5,13,10.2,19.5,15.3c4.2,3.3,8.5,6.6,12.8,9.9c4.4,3.4,8.7,6.8,13.1,10.3
		c1.7,1.3,1.6,2-0.1,3.2c-2.8,2-5.7,4-8.5,6c-2,1.4-3.3,1.3-5.2-0.2c-4.2-3.4-8.2-7-12.4-10.3c-3.5-2.7-6.5-5.8-10-8.5
		C465.1,519.2,462.2,516.2,458.2,513.7z"/>
	<path fill="#F0F2F3" d="M350.4,563.9c0,4.5-0.1,8.9,0,13.4c0.1,3.3-0.8,6.5-0.5,9.8c0.1,0.8-0.4,1.4-1,1.9
		c-2.3,2.3-4.5,4.5-6.8,6.8c-0.9,1-2,1.4-3.4,1.4c-8,0-16.1,0.1-24.1-0.1c-3-0.1-6.1-0.3-9.1-0.4c-1.4,0-2-0.7-2-2.1
		c0-3.5-0.2-7,0.1-10.5c0.1-1.6,0.6-2.1,2.2-2.1c4.3,0,8.7-0.3,12.9,0.1c4.3,0.4,8.6,0.2,12.9,0.3c0.4,0,0.7,0,1.1,0
		c1.5-0.2,1.9-0.6,1.9-2.1c0-3.1-0.3-6.3,0.1-9.4c0.7-5.6,0.2-11.1,0.4-16.7c0-0.4,0-0.9,0-1.3c-0.1-1.4-0.4-1.6-1.8-1.7
		c-0.8,0-1.6,0-2.5,0c-8.1-0.6-16.3-0.4-24.4-0.4c-1.7,0-2.4-0.6-2.5-2.4c-0.2-2.2,0-4.4,0.3-6.6c0.1-1.3,0.1-2.5,0.1-3.8
		c0.1-1.6,0.3-1.9,1.8-1.9c5.1,0,10.1-0.4,15.2,0.1c5.7,0.5,11.4,0.2,17.1,0.3c1.8,0,3.3,0.5,4.5,1.8c1.8,1.9,3.6,3.7,5.5,5.5
		c1.3,1.2,1.8,2.5,1.8,4.3C350.3,553.4,350.4,558.6,350.4,563.9C350.4,563.9,350.4,563.9,350.4,563.9z"/>
	<path fill="#F0F3F3" d="M197.9,124.3c-0.7-3.7-0.8-7.1-1.2-10.4c-0.3-2.3-0.6-4.5-0.6-6.8c0-1.7-0.4-3.4-0.7-5
		c-0.4-2.2,0.2-3.5,2-4.7c3.2-2.1,6.5-4.2,9.7-6.3c1.6-1,1.9-0.8,2,1c0.3,4.3,0.7,8.7,1,13c0.3,4.3,0.6,8.5,0.9,12.8
		c0.3,4.2,0.8,8.4,0.9,12.6c0,1.8,0.7,3.5,1.7,5c1.7,2.4,3.3,4.9,4.9,7.4c1.5,2.3,3,4.7,4.6,7.1c1.1,1.7,1,2.5-0.7,3.7
		c-2.8,1.8-5.6,3.7-8.4,5.5c-1.8,1.1-2.6,1-3.9-0.9c-1.4-2.1-2.7-4.2-4.1-6.3c-1.9-2.9-3.7-5.9-5.6-8.8c-0.6-0.9-1.3-1.6-2.3-2.1
		c-4.4-2.3-8.8-4.7-13.1-7c-6.1-3.3-12.1-6.6-18.2-9.9c-1.3-0.7-2.6-1.4-3.9-2.1c-1.3-0.7-1.3-1.3-0.2-2.1c2.9-2,5.9-3.7,8.7-5.8
		c2.3-1.7,4.2-1.4,6.4,0c3.6,2.2,7.2,4.3,10.9,6.5c2.6,1.5,5.3,3,7.9,4.5C197.6,125.4,198,125.1,197.9,124.3z"/>
	<path fill="#F0F2F3" d="M529.7,174.5c-0.5,0-0.8,0.3-1.1,0.6c-2.6,2.1-5.1,4.3-7.7,6.4c-4.8,3.9-9.6,7.9-14.4,11.9
		c-3.1,2.5-6.2,5-9.2,7.7c-0.4,0.3-0.8,0.7-1.2,1c-1,0.6-1.9,0.6-2.8-0.3c-1.1-1.2-2-2.5-3.2-3.7c-1.4-1.5-2.7-3.2-3.9-4.8
		c-1.1-1.4-1.1-1.9,0.2-3c1.9-1.7,4-3.3,6-5c2.4-2,4.9-4.1,7.3-6.1c1.9-1.6,3.8-3.2,5.8-4.8c2.4-2,4.8-3.9,7.2-5.9
		c1.7-1.4,3.3-2.7,5-4.1c0.3-0.3,0.6-0.6,1-0.9c0.8-0.8,1-1.6,0.2-2.5c-2-2.4-3.9-4.8-5.9-7.2c-0.3-0.3-0.6-0.6-0.9-1
		c-1.6-2.1-1.5-2.4,0.5-4.1c2.3-2,4.6-4,6.9-6c1.6-1.4,2.2-1.5,3.7,0.2c2.1,2.3,4.1,4.7,6,7.1c2.4,2.9,4.8,5.8,7.2,8.8
		c2.3,2.9,4.7,5.7,7.1,8.5c1.9,2.3,3.8,4.6,5.6,6.8c0.3,0.4,0.7,0.8,1,1.2c0.6,0.9,0.7,1.7-0.2,2.5c-1.8,1.5-3.5,3.2-5.4,4.7
		c-0.9,0.7-1.7,1.6-2.8,2.2c-1.4,0.8-1.7,0.9-2.9-0.3c-1.1-1.1-2.2-2.2-3-3.5c-1.1-1.6-2.7-2.8-3.7-4.4
		C531.5,175.4,530.8,174.8,529.7,174.5z"/>
	<path fill="#F0F3F3" d="M140.8,160.8c0,0.6-0.3,1-0.6,1.4c-2.1,2.8-4.1,5.6-6.2,8.4c-1.3,1.7-1.2,2.4,0.7,3.8
		c10.2,7.6,20.4,15.2,30.6,22.8c0.7,0.5,1.4,0.9,2,1.3c1.3,0.9,1.5,1.9,0.6,3.2c-1.6,2.4-3.4,4.7-5.1,7c-0.6,0.8-1.2,1.7-1.9,2.4
		c-0.7,0.7-1.3,0.7-2.1,0.1c-4.9-3.7-9.9-7.2-14.8-10.9c-4.3-3.2-8.6-6.5-13-9.6c-2-1.4-3.8-3-5.8-4.5c-1.6-1.2-2.2-0.7-3.1,0.6
		c-1.7,2.2-3.4,4.5-5,6.8c-3.1,4.2-3.5,3.5-7,1c-2-1.5-4-3-6-4.5c-1.3-1-1.4-1.8-0.4-3.2c3.5-4.7,7-9.4,10.5-14
		c4-5.4,8-10.8,12-16.2c0.9-1.2,1.9-2.4,2.9-3.6c0.7-0.9,1.4-1,2.3-0.3c2.9,2.1,5.7,4.2,8.6,6.3C140.5,159.4,140.9,160,140.8,160.8z
		"/>
	<path fill="#F0F3F3" d="M563.1,463.4c0,0.7-0.5,1.1-0.8,1.6c-3.1,4.5-6.2,9.1-9.3,13.6c-2.7,3.9-5.5,7.7-8.2,11.6
		c-1.9,2.8-3.9,5.6-5.8,8.4c-0.4,0.6-0.8,1.1-1.3,1.5c-0.6,0.4-1.3,0.4-1.9,0c-3-2.1-6-4.1-8.9-6.2c-0.9-0.7-1-1.6-0.5-2.6
		c0.6-1.1,1.4-2.1,2.2-3.1c1.5-2.1,2.8-4.2,4.2-6.3c1.1-1.7,1.1-2.1-0.6-3.3c-5-3.5-10.1-7.1-15.1-10.6c-6-4.1-11.9-8.2-17.9-12.4
		c-0.2-0.2-0.5-0.4-0.7-0.6c-1.6-1.5-1.7-1.9-0.5-3.7c1.7-2.5,3.3-4.9,5-7.3c0.3-0.4,0.6-0.8,1-1.2c1.1-1.1,1.9-1.2,3.1-0.3
		c3.3,2.5,6.8,4.7,10.2,7.1c4,2.8,8,5.7,12,8.3c3.8,2.5,7.4,5.4,11.3,7.8c1.9,1.2,2.4,1.1,3.6-0.6c1.9-2.7,3.8-5.5,5.7-8.2
		c1.3-2,1.7-2.1,3.7-0.7c2.8,1.9,5.5,3.8,8.3,5.7C562.6,462.2,563.1,462.6,563.1,463.4z"/>
	<path fill="#F0F2F3" d="M358,537.2c0-2.1,0.2-2.5,2-2.9c2.1-0.4,4.2-0.7,6.3-1.1c1.4-0.2,2.8-0.4,4.1-0.7c1.6-0.3,2.5,0.2,2.6,1.8
		c0.2,3,1,6,1.5,9c0.7,4.9,1.6,9.7,2.5,14.6c0.8,4.8,1.6,9.6,2.4,14.4c0.8,4.9,1.7,9.7,2.5,14.6c0.2,1.1,0.4,2.2,0.6,3.3
		c0.1,1-0.2,1.8-1.3,2c-2.1,0.4-4.2,1-6.3,1.2c-1.5,0.2-3.1,0.5-4.6,0.8c-1.9,0.4-2.7,0-3-1.9c-1.1-6.3-2-12.7-3.2-19
		c-0.7-3.6-1.2-7.3-1.9-10.9c-0.6-3.1-1-6.3-1.5-9.4c-0.5-3-1-6-1.5-8.9C358.7,541.8,358.3,539.4,358,537.2z"/>
	<path fill="#F0F3F3" d="M225,548.9c-5.3,0.3-9.6-4.1-9.6-9.8c0-4.8,4-9.7,10-9.4c5.6,0.3,9.6,4.2,9.6,9.8
		C234.9,545,230.7,548.9,225,548.9z"/>
	<path fill="#F0F3F3" d="M169.6,169.9c-5.2,0.3-9.6-4.5-9.6-9.6c0-4.5,3.6-9.8,10-9.7c5.2,0.1,9.6,4.6,9.6,9.7
		C179.6,164.8,176,170.4,169.6,169.9z"/>
	<path fill="#F0F3F3" d="M428.2,107.9c4.7-0.7,9.8,4.6,9.7,9.5c-0.1,5.3-4.6,9.9-9.9,9.8c-5.4-0.1-9.5-4.2-9.6-9.6
		C418.2,112.3,422.4,107.5,428.2,107.9z"/>
	<path fill="#F0F2F3" d="M499.9,483.8c5.2-0.5,9.8,4.4,9.6,9.5c-0.2,5.4-3.5,9.6-9.8,9.7c-5.5,0.1-9.6-4.1-9.8-9.4
		C489.8,488.1,494.9,483.1,499.9,483.8z"/>
	<path fill="#2B5166" d="M322.4,500.9c-38-0.4-77.9-16.8-111.4-48.8c-32.9-34.2-50.7-74.7-50.5-122.4c0.3-45.1,16.6-84,47.1-117.1
		c34.9-35.1,77.1-53.3,126.6-52.4c46.8,0.9,87.1,18.3,119.4,52.3c32.3,33.9,48.2,74.7,47.4,121.8c-0.4,25.6-6.6,49.8-18,72.6
		c-13.3,26.6-32.4,48.4-57.2,65C397.1,491,365.5,500.9,322.4,500.9z"/>
	<path fill="#2B5166" d="M547.5,284c0-1.9,0-1.8,1.6-2.2c4.8-1.2,9.7-1.7,14.6-2.6c4.3-0.8,8.6-1.5,12.9-2.2
		c1.1-0.2,1.5,0.1,1.8,1.3c0.9,4.3,1.4,8.6,2.2,12.9c0.3,1.4,0.5,2.8,0.7,4.1c0.2,1.4,0.2,1.4-1.2,1.7c-9.2,1.6-18.5,3.2-27.7,4.7
		c-1.3,0.2-1.8-0.1-2-1.3c-0.4-2.7-0.9-5.4-1.3-8.1c-0.4-2.5-0.7-5-1.3-7.4C547.5,284.6,547.5,284.2,547.5,284z"/>
	<path fill="#2B5166" d="M371.3,92.9c-0.1-1.7,0.7-3.2,0.9-4.8c0.4-2.2,0.9-4.3,1.4-6.5c0.4-1.7,0.9-1.9,2.5-1.5
		c5.1,1.3,10.2,2.4,15.3,3.4c3.1,0.6,3.1,0.6,2.5,3.7c-0.7,3.4-1.5,6.8-2.2,10.2c-0.2,1-0.7,1.3-1.7,1.1c-5.2-1.2-10.5-2.4-15.7-3.6
		c-0.6-0.1-1.2-0.1-1.8-0.2C371.6,94.4,370.9,94,371.3,92.9z"/>
	<path fill="#2B5166" d="M104.9,249.7c-0.3-0.1-0.6-0.2-1-0.4c-3.4-1.4-6.9-2.7-10.3-4.1c-1.4-0.6-1.6-0.9-1-2.3
		c2.2-5.4,4.4-10.8,6.6-16.3c0.5-1.3,0.8-1.5,2.2-1c3.5,1.4,7,2.8,10.5,4.2c1.5,0.6,1.5,0.9,1,2.4c-2.1,5.3-4.3,10.6-6.4,15.8
		C106.1,248.8,105.9,249.6,104.9,249.7z"/>
	<path fill="#2B5166" d="M257.4,87.6c0.4,0.9,0.8,1.8,1.1,2.7c2.8,8,5.6,16.1,8.4,24.2c0.9,2.5,1.1,2.5-1.7,3.4
		c-4.9,1.6-9.7,3.3-14.5,5c-0.7,0.2-1.4,0.6-2.2,0.5c-0.8-2.3-1.7-4.6-2.5-6.9c-2-5.7-3.9-11.5-5.9-17.3c-0.3-1-0.8-1.9-1.1-2.9
		c-0.7-2-0.7-2.2,1.3-2.9c4-1.4,8-2.8,12-4.2C254,88.7,255.5,87.8,257.4,87.6z"/>
	<path fill="#2B5166" d="M107.9,315.2c-1.2-0.4-2.8-0.3-4.3-0.5c-3.8-0.5-7.6-0.8-11.4-1.3c-4.1-0.5-8.2-1-12.3-1.3
		c-1.1-0.1-1.6-0.7-1.4-1.8c0.8-4.1,0.8-8.4,1.6-12.5c0.3-1.6,0-3.2,0.5-4.9c0.3-1,0.6-1.3,1.6-1.2c3.6,0.5,7.2,1,10.8,1.3
		c3.3,0.3,6.6,0.8,9.9,1.2c2,0.2,4,0.4,5.9,0.6c0.5,0,1,0,1.5,0.2c0.9,0.2,1.4,0.5,1.2,1.8c-0.6,4.9-1,9.8-1.5,14.7
		c-0.1,0.9-0.4,1.7-0.4,2.6C109.6,315.1,109,315.3,107.9,315.2z"/>
	<path fill="#2B5166" d="M428.7,562c0,0.8-0.6,0.9-1.2,1.1c-2.2,0.8-4.4,1.7-6.7,2.5c-3.1,1.1-6.1,2.3-9.2,3.4
		c-1.6,0.6-1.6,0.5-2.2-1c-1.4-3.6-2.8-7.2-4.2-10.8c-1.7-4.6-3.4-9.1-5.2-13.7c-0.2-0.4-0.3-0.8-0.4-1.3c-0.6-1.9-0.6-1.8,1.2-2.5
		c5.2-1.9,10.4-3.9,15.6-5.8c1.5-0.6,1.5-0.6,2.2,1c1.3,3.5,2.6,6.9,3.9,10.4c1.8,4.7,3.5,9.4,5.3,14.1
		C428.2,560.3,428.4,561.2,428.7,562z"/>
	<path fill="#2B5166" d="M105.7,409c1.5,3,2.6,6,3.7,8.9c0.6,1.7,1.3,3.3,2,4.9c0.7,1.6,0.7,1.7-1.1,2.4c-3.7,1.5-7.4,3-11.1,4.5
		c-1.2,0.5-1.4,0.4-1.9-0.9c-1.3-3.2-2.5-6.3-3.8-9.5c-0.5-1.2-1-2.5-1.5-3.7c-0.3-0.7-0.2-1.2,0.5-1.5
		C96.9,412.4,101.2,410.5,105.7,409z"/>
	<path fill="#2B5166" d="M78.4,357.5c-0.1-1,0.2-1.5,1.2-1.6c4.2-0.6,8.4-1.3,12.6-2c0.9-0.2,1.2,0.1,1.3,0.9c0.4,3,0.9,6,1.3,8.9
		c0.3,1.7,0.5,3.3,0.8,5c0.2,1.4,0.1,1.6-1.3,1.9c-2.3,0.5-4.6,1-7,1.2c-1.8,0.2-3.7,0.5-5.5,0.7c-0.9,0.1-1.2,0-1.3-0.9
		c-0.4-3.1-0.9-6.1-1.3-9.2C79,360.8,78.7,359,78.4,357.5z"/>
	<path fill="#F0F2F3" d="M484.6,337.2c0.1,5-0.3,9.8-1.4,14.4c-1.2,4.9-3.1,9.4-7,12.9c-2.6,2.3-5.6,3.8-9.1,4.3
		c-4.8,0.7-9.6,1.5-14.4,2.4c-4.9,0.8-9.9,1.7-14.8,2.5c-2.8,0.5-5.5,1-8.3,1.4c-4.2,0.7-8.4,1.4-12.7,2.1c-3.9,0.6-7.7,1.3-11.6,2
		c-5.1,0.8-10.2,1.8-15.3,2.6c-4.2,0.7-8.5,1.3-12.7,2.1c-4.3,0.8-8.6,1.5-12.9,2.2c-1.6,0.3-1.8,0.6-1.6,2c1,6.6,0.1,12.8-3.3,18.6
		c-4.2,7.1-10.3,11.6-18.2,13.4c-3.9,0.9-7.8,1.4-11.8,2c-3.9,0.7-7.9,1.3-11.8,2c-4.9,0.8-9.7,1.6-14.6,2.5c-2.9,0.5-5.8,1-8.7,1.5
		c-4.5,0.8-9,1.6-13.5,2.2c-1.5,0.2-2.9,0.4-4.4,0.4c-5.9,0.2-11.5-1.3-16.7-4c-4.9-2.6-9-6.2-12.2-10.8c-1.7-2.5-3.2-5.2-4.5-7.9
		c-0.4-0.8-0.9-1.1-1.9-1c-4,0.4-7.9,1.4-11.8,2c-1.2,0.2-2.1,1.2-2.8,2.1c-1.5,1.9-2.8,3.8-4.3,5.7c-1.9,2.6-3.8,5.1-5.7,7.7
		c-1.5,2-2.7,2.3-5,1.2c-6.4-3-11.6-7.5-16.2-12.9c-5.4-6.5-9.3-13.7-11.9-21.7c-1.9-5.8-2.6-11.8-2.3-18c0.1-1.8,0.6-3.6,1-5.4
		c0.2-1,1-1.6,2-1.9c0.4-0.1,0.7-0.1,1.1-0.1c5.7,0.3,11.4-0.7,17.1-0.4c1.5,0.1,2.7-0.5,3.8-1.6c9.1-9.2,18.5-18.1,27.4-27.5
		c10.4-10.9,21.4-21.3,31.8-32.2c13.4-14,27.5-27.4,40.9-41.4c10.6-11.1,21.8-21.7,32.4-32.8c12.3-12.9,25.2-25.3,37.6-38
		c3-3.1,6.7-4.4,11-4.6c6.6-0.2,12.3,2.2,17.9,5.3c4.3,2.4,8.4,5.3,12.1,8.6c4.4,3.9,8.7,7.8,12.5,12.3c3.8,4.4,7.7,8.8,11.1,13.5
		c2.9,3.9,5.7,7.9,8.4,12c2.4,3.7,4.7,7.6,7,11.3c1,1.7,2,3.4,3,5.2c4.1,7.9,8.2,15.8,11.5,24c4.3,10.4,7.9,21.1,10.4,32.1
		c1.1,4.6,1.9,9.3,2.4,14C484.2,329.5,484.7,333.4,484.6,337.2z"/>
	<path fill="#2B5166" d="M425.3,258.3c0,0.8-0.6,1.2-1,1.6c-3.9,3.4-7.8,6.8-11.6,10.3c-2.1,1.9-4.1,3.9-6.2,5.8
		c-4.2,3.7-8.3,7.6-12.5,11.4c-2.9,2.7-5.9,5.2-8.7,7.9c-3.3,3-6.5,6-9.9,9c-4.7,4.2-9.4,8.6-14.1,12.8c-3.5,3.1-6.9,6.3-10.3,9.4
		c-3.7,3.3-7.2,6.8-11.1,9.9c-1.7,1.4-3.3,3-4.9,4.5c-2.4,2.3-5.1,4.3-7.4,6.8c-1.4,1.5-3.1,2.5-4.5,4c-0.7,0.8-1.3,0.4-1.8-0.3
		c-0.2-0.2-0.2-0.5-0.3-0.8c-1.8-6.3-3.5-12.5-5.3-18.8c-0.5-1.9-0.8-2.1-2.5-1.2c-1.1,0.6-2.1,1.3-3.2,2c-5,3.4-9.9,6.7-14.9,10
		c-9.7,6.3-19.2,12.8-28.9,19.2c-3,2-6,4-9.1,6c-0.2,0.2-0.5,0.4-0.8,0.5c-0.4,0.1-0.7,0.1-1-0.2c-0.3-0.3-0.3-0.7-0.2-1
		c0.1-0.5,0.5-0.9,0.9-1.2c1-1,2-2,3-3c12.4-12.6,24.7-25.3,37.3-37.7c2.8-2.8,5.8-5.5,8.4-8.5c5.9-6.6,12.4-12.6,18.6-18.9
		c0.6-0.6,1.2-1.8,2.3-1.4c1.1,0.4,1,1.6,1.2,2.5c1.5,5.6,3,11.3,4.5,16.9c0.5,2,1.2,2.2,3,1c9.8-6.5,19.7-13,29.5-19.5
		c6.3-4.1,12.7-8.2,19-12.4c6-4,12.1-8,18.2-12c7.3-4.7,14.4-9.6,21.6-14.4c0.6-0.4,1.1-0.8,1.7-1
		C425,257.3,425.3,257.7,425.3,258.3z"/>
	<path fill="#2B5166" d="M343.3,392.7c0.2,4.2-2.6,7.3-7.6,8.2c-5.9,1-11.8,1.9-17.7,2.9c-4.9,0.9-9.8,1.6-14.6,2.4
		c-5.6,1-11.2,1.7-16.8,2.9c-3,0.6-6,1.2-8.9,1.4c-5.2,0.4-9.5-1.7-12.9-5.7c-1-1.2-0.8-1.8,0.8-2.1c2-0.3,4.1-0.8,6.1-1
		c4.2-0.5,8.3-1.4,12.4-2.1c4.8-0.8,9.6-1.6,14.4-2.4c4.8-0.8,9.6-1.6,14.4-2.4c5.8-1,11.6-2,17.4-3c3.6-0.6,7.3-1.2,10.9-1.8
		c2.1-0.3,2.1-0.3,2.1,1.8C343.3,392.2,343.3,392.4,343.3,392.7z"/>
</g>
</svg>
