<?xml version="1.0" encoding="utf-8"?>
<!-- Generator: Adobe Illustrator 18.1.1, SVG Export Plug-In . SVG Version: 6.00 Build 0)  -->
<!DOCTYPE svg PUBLIC "-//W3C//DTD SVG 1.1//EN" "http://www.w3.org/Graphics/SVG/1.1/DTD/svg11.dtd">
<svg version="1.1" id="Layer_1" xmlns="http://www.w3.org/2000/svg" xmlns:xlink="http://www.w3.org/1999/xlink" x="0px" y="0px"
	 viewBox="0 0 800 800" enable-background="new 0 0 800 800" xml:space="preserve">
<path fill="#295267" d="M713.8,397.2c-3.9-112.9-43.2-203.2-87.9-201.7c-2.9,0.1-5.8,0.6-8.6,1.5L151.4,365.1
	c-1.2,0.4-2.6,0.4-3.7-0.1l-36.3-15.7c-2.1-0.9-4.5-0.3-6,1.4c-6.2,7.1-20.7,28.2-19.4,66.7c1.3,38.5,17.3,60.5,24,68
	c1.6,1.8,4.1,2.2,6.2,1.1l35-18.1c1.1-0.6,2.5-0.7,3.7-0.4l26.8,7.6c-0.1,0.2-0.1,0.4-0.1,0.6L182,487c1.1,31.3,22,58.1,52.1,66.6
	l114.7,32.7c5.9,1.7,12,2.4,17.9,2.2c11.9-0.4,23.5-4.6,33.3-12.2c10.6-8.3,17.7-19.5,20.6-32.1c0-0.2,0-0.4,0-0.6l210.7,60
	c2.9,0.7,5.8,1,8.7,0.9C684.6,602.9,717.7,510.1,713.8,397.2z M381,532.7c-0.4,4.5-2.6,8.5-6.2,11.3c-4.2,3.3-9.5,4.3-14.7,2.9
	l-114.7-32.7c-12.3-3.5-21.1-14.1-22.2-26.8l157.9,45C381.1,532.5,381,532.5,381,532.7z M647.4,363.9L377.4,445
	c-1.4,0.4-2.8-0.9-2.5-2.4l7.5-43.3c0.2-1.4-0.9-2.7-2.2-2.5l-139.7,19.8c-2.3,0.3-3.2-3.2-1-4L429.5,344c1.4-0.5,2.9,0.8,2.6,2.4
	l-7.6,41.4c-0.3,1.4,0.9,2.7,2.2,2.5l219.8-30.4C648.9,359.5,649.7,363.2,647.4,363.9z"/>
</svg>
